<svg width="200" height="200" viewBox="0 0 200 200" fill="none" xmlns="http://www.w3.org/2000/svg">
<g clip-path="url(#clip0)">
<path d="M37.7757 86.4273L37.8053 85.8546H37.6246L37.415 86.4273L35.0119 93.3966H37.2342L37.7757 86.4273ZM29.1241 101.327L37.1438 79.2461H41.1092L39.7573 101.327H36.6038L36.9349 96.8205H33.8103L32.2784 101.327H29.1241Z" fill="black"/>
<path d="M54.5663 79.2461L50.8416 96.7893C50.6008 97.6909 50.2408 98.5028 49.7912 99.1924C49.3401 99.7932 48.8296 100.366 48.1385 100.815C47.4177 101.327 46.5466 101.567 45.4954 101.567C44.4435 101.567 43.6635 101.327 43.1219 100.815C42.6115 100.366 42.3412 99.7932 42.2212 99.1924C42.0108 98.5028 42.0108 97.722 42.19 96.7893L45.9146 79.2461H49.1593L45.4346 96.7893C45.2842 97.362 45.345 97.842 45.5858 98.1716C45.7058 98.3228 45.885 98.4117 46.1554 98.4117C46.7266 98.4117 47.0866 98.0516 47.2977 97.602C47.3881 97.4212 47.5081 97.1494 47.597 96.7893L51.3224 79.2461H54.5663Z" fill="black"/>
<path d="M54.6923 82.5817L55.4131 79.2451H64.7855L64.0647 82.5817H61.0016L57.0362 101.326H53.7915L57.757 82.5817H54.6923Z" fill="black"/>
<path d="M69.9737 83.7835C70.0937 83.1827 70.0345 82.73 69.8234 82.4012C69.7041 82.2493 69.493 82.1604 69.2234 82.1604C68.6522 82.1604 68.2914 82.5819 68.0826 82.9708C67.9626 83.2108 67.8714 83.4827 67.8099 83.7835L65.0468 96.7886C64.8964 97.3613 64.9579 97.8421 65.1987 98.1709C65.3187 98.3228 65.4979 98.4117 65.7683 98.4117C66.3395 98.4117 66.6995 98.0509 66.9099 97.6013C67.001 97.4205 67.121 97.1494 67.2099 96.7886L69.9737 83.7835ZM70.4545 96.7886C70.213 97.6909 69.853 98.5021 69.4041 99.1917C68.953 99.7925 68.4425 100.365 67.7514 100.815C67.0306 101.327 66.1602 101.567 65.1083 101.567C64.0556 101.567 63.2764 101.327 62.7348 100.815C62.2244 100.365 61.9533 99.7925 61.8341 99.1917C61.6229 98.5021 61.6229 97.7221 61.8029 96.7886L64.566 83.7835C64.7772 82.9115 65.1083 82.1292 65.5891 81.4085C66.0395 80.8077 66.5203 80.2069 67.2099 79.7573C67.9011 79.3061 68.8026 79.0054 69.8849 79.0054C70.9664 79.0054 71.7161 79.3061 72.2265 79.7573C72.7369 80.2069 73.0384 80.8077 73.1584 81.4085C73.3695 82.07 73.3695 82.85 73.2176 83.7835L70.4545 96.7886Z" fill="black"/>
<path d="M80.6761 85.165C80.8272 84.4442 80.976 83.6323 80.8864 83.0019C80.796 82.4011 80.556 81.9819 80.0457 81.9819C79.2041 82.01 78.7537 82.8819 78.4833 84.1723C78.3322 84.925 78.4522 85.7065 78.7849 86.5473C79.1137 87.3888 79.5056 88.2577 79.9553 89.1911C80.5264 90.3008 80.9761 91.4431 81.3361 92.555C81.6688 93.6647 81.8169 94.807 81.548 96.0085C81.2161 97.482 80.7353 98.8316 79.8057 99.8851C78.8737 100.935 77.6722 101.567 75.8699 101.567C73.7971 101.567 72.7771 100.785 72.3852 99.5836C71.9356 98.382 72.1764 96.8205 72.5052 95.1381L75.7498 94.8381C75.5402 95.7685 75.3891 96.7004 75.4795 97.3901C75.5683 98.1109 75.8091 98.5916 76.5018 98.5916C77.4633 98.5916 78.0026 97.5709 78.3322 96.1604C78.4833 95.4389 78.3322 94.5981 78.0026 93.7254C77.9122 93.5166 77.8233 93.2765 77.7314 93.0639C77.6426 92.855 77.5522 92.615 77.4633 92.4039C77.2507 91.9542 77.0106 91.4742 76.7699 90.9623C76.5299 90.4519 76.2899 89.94 76.0491 89.3704C75.5402 88.2296 75.2691 87.0873 75.1802 85.9465C75.0883 85.3738 75.1802 84.7731 75.3002 84.1723C75.5402 82.9707 76.0803 81.6803 77.0107 80.6876C77.8826 79.7269 79.0841 79.0372 80.6153 79.0061C82.6295 78.978 83.5599 79.7876 83.9518 80.9595C84.3118 82.1611 84.1918 83.6323 83.9199 84.865L80.6761 85.165Z" fill="black"/>
<path d="M88.297 89.1902C89.2882 89.1902 89.9786 89.0094 90.429 88.4975C90.9082 88.0167 91.149 87.2071 91.4201 85.9744C91.6913 84.744 91.7816 83.9032 91.5409 83.3306C91.3009 82.8217 90.7001 82.5505 89.7074 82.5505L88.297 89.1902ZM87.1835 79.2451H90.429C91.8416 79.2451 93.164 79.5778 94.0328 80.6282C94.9055 81.6794 95.2951 83.3306 94.7255 85.8537C94.1536 88.3775 93.1032 89.9998 91.8113 91.0518C90.5201 92.1022 89.017 92.4941 87.6051 92.4941L85.7428 101.326H82.4981L87.1835 79.2451Z" fill="black"/>
<path d="M97.538 79.2461H104.958L104.237 82.5826H100.061L98.8299 88.3777H101.834L101.082 91.9231H98.078L96.7876 97.9909H100.962L100.272 101.327H92.8518L97.538 79.2461Z" fill="black"/>
<path d="M106.721 79.2461H114.139L113.418 82.5826H109.244L108.011 88.3777H111.015L110.266 91.9231H107.262L105.969 97.9909H110.146L109.453 101.327H102.034L106.721 79.2461Z" fill="black"/>
<path d="M115.121 98.0818C116.234 98.0818 116.894 97.9618 117.464 96.8803C117.976 95.8876 118.397 94.1164 118.697 92.6748C118.846 91.9822 118.998 91.1718 119.207 90.2717C119.386 89.3694 119.568 88.5583 119.719 87.8375C120.018 86.4263 120.379 84.744 120.259 83.6632C120.168 82.6098 119.568 82.4898 118.456 82.4898L115.121 98.0818ZM111.215 101.326L115.901 79.2451H118.456C121.46 79.2451 122.902 79.8459 123.472 81.5282C123.952 83.2105 123.503 85.9456 122.572 90.2998C121.641 94.6253 120.948 97.361 119.747 99.0434C118.517 100.725 116.774 101.326 113.77 101.326H111.215Z" fill="black"/>
<path d="M28.954 112.923C29.0238 112.572 29.099 112.18 29.0534 111.868C29.0086 111.579 28.8932 111.37 28.6441 111.37C28.2332 111.385 28.0121 111.808 27.883 112.44C27.8071 112.81 27.8663 113.191 28.0266 113.596C28.1899 114.011 28.3783 114.436 28.5993 114.886C28.8795 115.434 29.099 115.994 29.2745 116.534C29.4378 117.076 29.5084 117.633 29.3785 118.22C29.2137 118.937 28.9836 119.599 28.5278 120.111C28.0699 120.624 27.4851 120.934 26.6056 120.934C25.5924 120.934 25.0941 120.551 24.9027 119.964C24.6832 119.378 24.7987 118.611 24.962 117.797L26.5448 117.647C26.4453 118.1 26.3701 118.558 26.4157 118.896C26.4605 119.243 26.5759 119.48 26.9139 119.48C27.3817 119.48 27.6468 118.982 27.8071 118.29C27.883 117.94 27.8071 117.529 27.6468 117.107C27.6028 117.001 27.558 116.886 27.5147 116.779C27.4691 116.679 27.4258 116.565 27.3818 116.458C27.2777 116.239 27.1622 116.008 27.046 115.756C26.9276 115.504 26.8076 115.257 26.6906 114.976C26.4453 114.424 26.3131 113.863 26.2676 113.303C26.2228 113.023 26.2676 112.734 26.3268 112.44C26.4453 111.853 26.705 111.221 27.1623 110.739C27.5891 110.271 28.177 109.93 28.9243 109.917C29.9049 109.899 30.3621 110.299 30.5504 110.872C30.7267 111.459 30.6689 112.18 30.5352 112.781L28.954 112.923Z" fill="black"/>
<path d="M33.846 113.542L33.8597 113.263H33.7746L33.6698 113.542L32.4979 116.946H33.5832L33.846 113.542ZM29.6201 120.814L33.5361 110.037H35.4752L34.8144 120.814H33.2733L33.4336 118.611H31.907L31.1627 120.814H29.6201Z" fill="black"/>
<path d="M38.599 120.814L39.0266 114.042L39.0578 113.583H38.9666L37.4423 120.814H35.9734L38.2656 110.037H40.1978L40.0823 114.963L40.0383 115.533H40.0679L40.2593 114.963L42.2515 110.037H44.1883L41.9014 120.814H40.434L41.9606 113.583H41.8748L41.7229 114.042L39.2742 120.814H38.599Z" fill="black"/>
<path d="M45.9299 110.037H49.5512L49.2041 111.662H47.1625L46.5617 114.495H48.0291L47.6638 116.226H46.1957L45.5653 119.19H47.6031L47.2635 120.814H43.6422L45.9299 110.037Z" fill="black"/>
<path d="M53.0549 119.23C53.6009 119.23 53.9215 119.172 54.2017 118.643C54.4463 118.162 54.6536 117.295 54.8025 116.595C54.8739 116.254 54.9475 115.858 55.047 115.417C55.1374 114.976 55.2248 114.584 55.3007 114.225C55.4473 113.543 55.6228 112.721 55.5635 112.194C55.5187 111.679 55.2248 111.621 54.684 111.621L53.0549 119.23ZM51.1485 120.814L53.4392 110.037H54.684C56.1491 110.037 56.8554 110.331 57.1342 111.148C57.3658 111.971 57.1478 113.303 56.6952 115.434C56.2395 117.547 55.9015 118.88 55.3144 119.703C54.7136 120.52 53.8607 120.814 52.3948 120.814H51.1485Z" fill="black"/>
<path d="M60.7685 113.542L60.7821 113.263H60.694L60.5892 113.542L59.4188 116.946H60.5041L60.7685 113.542ZM56.5433 120.814L60.4601 110.037H62.3976L61.7353 120.814H60.1973L60.3606 118.611H58.8294L58.0821 120.814H56.5433Z" fill="black"/>
<path d="M65.9522 113.485L65.9681 113.583H65.9969L66.0721 113.485L67.598 110.037H69.1519L66.2195 116.226L65.2519 120.814H63.666L64.6352 116.226L64.3443 110.037H65.8975L65.9522 113.485Z" fill="black"/>
<path d="M74.3432 113.542L74.3584 113.263H74.2688L74.1655 113.542L72.9951 116.946H74.0774L74.3432 113.542ZM70.1173 120.814L74.0318 110.037H75.9693L75.3086 120.814H73.772L73.9323 118.611H72.4042L71.6553 120.814H70.1173Z" fill="black"/>
<path d="M82.9204 110.037L81.1014 118.598C80.9844 119.043 80.8067 119.439 80.5917 119.773C80.3677 120.071 80.1193 120.351 79.7829 120.565C79.4297 120.814 79.0044 120.935 78.4909 120.935C77.9775 120.935 77.5962 120.814 77.3312 120.565C77.0813 120.351 76.9514 120.071 76.8906 119.773C76.7911 119.439 76.7911 119.058 76.8754 118.598L78.6983 110.037H80.2796L78.4613 118.598C78.3884 118.88 78.415 119.119 78.5358 119.271C78.5935 119.35 78.6839 119.391 78.813 119.391C79.0917 119.391 79.2694 119.212 79.3689 118.999C79.4137 118.91 79.4745 118.778 79.5148 118.598L81.3361 110.037H82.9204Z" fill="black"/>
<path d="M83.3602 111.661L83.7164 110.037H88.2909L87.937 111.661H86.4438L84.507 120.814H82.9212L84.8595 111.661H83.3602Z" fill="black"/>
<path d="M91.2014 112.254C91.2606 111.955 91.2295 111.733 91.13 111.58C91.0692 111.502 90.9697 111.46 90.8375 111.46C90.5603 111.46 90.3842 111.662 90.2801 111.853C90.2209 111.972 90.1775 112.103 90.1464 112.254L88.7983 118.599C88.7223 118.881 88.7519 119.119 88.8696 119.272C88.9289 119.351 89.0178 119.392 89.153 119.392C89.4272 119.392 89.6064 119.212 89.7074 118.999C89.7537 118.91 89.8084 118.778 89.8532 118.599L91.2014 112.254ZM91.4391 118.599C91.3214 119.043 91.1452 119.44 90.9257 119.773C90.7047 120.071 90.454 120.352 90.1168 120.565C89.7682 120.814 89.3383 120.935 88.8264 120.935C88.3145 120.935 87.9302 120.814 87.6681 120.565C87.4198 120.352 87.2853 120.071 87.2299 119.773C87.125 119.44 87.1251 119.058 87.2154 118.599L88.5621 112.254C88.6661 111.822 88.8264 111.443 89.0626 111.088C89.2836 110.799 89.516 110.5 89.8532 110.287C90.1912 110.064 90.6287 109.917 91.1611 109.917C91.6867 109.917 92.0528 110.064 92.3019 110.287C92.551 110.5 92.7014 110.799 92.7576 111.088C92.8632 111.413 92.8632 111.794 92.7872 112.254L91.4391 118.599Z" fill="black"/>
<path d="M97.8737 114.886C98.359 114.886 98.6955 114.803 98.918 114.553C99.1512 114.316 99.2651 113.922 99.3988 113.321C99.5325 112.72 99.5765 112.309 99.4596 112.029C99.3411 111.78 99.0517 111.648 98.5648 111.648L97.8737 114.886ZM97.3337 110.037H98.918C99.6061 110.037 100.253 110.197 100.675 110.709C101.103 111.221 101.292 112.029 101.014 113.262C100.734 114.494 100.222 115.286 99.5917 115.798C98.9598 116.315 98.2284 116.506 97.5372 116.506L96.6273 120.814H95.043L97.3337 110.037Z" fill="black"/>
<path d="M104.157 113.542L104.172 113.263H104.084L103.978 113.542L102.807 116.946H103.891L104.157 113.542ZM99.9319 120.814L103.846 110.037H105.785L105.122 120.814H103.586L103.746 118.611H102.22L101.472 120.814H99.9319Z" fill="black"/>
<path d="M109.145 114.803C109.369 114.803 109.66 114.786 109.94 114.565C110.214 114.344 110.495 113.965 110.655 113.203C110.815 112.44 110.716 112.042 110.526 111.821C110.333 111.608 110.04 111.608 109.823 111.608L109.145 114.803ZM109.115 120.814L109.249 116.267H108.824L107.87 120.814H106.285L108.575 110.037H110.16C112.048 110.037 112.623 111.087 112.197 113.143C111.962 114.211 111.477 115.184 110.787 115.594L110.701 120.814H109.115Z" fill="black"/>
<path d="M113.11 111.661L113.464 110.037H118.04L117.689 111.661H116.194L114.255 120.814H112.674L114.611 111.661H113.11Z" fill="black"/>
<path d="M120.784 112.923C120.854 112.572 120.929 112.18 120.885 111.868C120.84 111.579 120.724 111.37 120.474 111.37C120.063 111.385 119.843 111.808 119.713 112.44C119.638 112.81 119.698 113.191 119.858 113.596C120.02 114.011 120.208 114.436 120.427 114.886C120.708 115.434 120.929 115.994 121.104 116.534C121.267 117.076 121.34 117.633 121.208 118.22C121.045 118.937 120.813 119.599 120.359 120.111C119.9 120.624 119.315 120.934 118.437 120.934C117.422 120.934 116.924 120.551 116.734 119.964C116.514 119.378 116.628 118.611 116.792 117.797L118.376 117.647C118.277 118.1 118.201 118.558 118.245 118.896C118.29 119.243 118.406 119.48 118.744 119.48C119.211 119.48 119.478 118.982 119.638 118.29C119.713 117.94 119.638 117.529 119.478 117.107C119.432 117.001 119.389 116.886 119.344 116.779C119.299 116.679 119.257 116.565 119.211 116.458C119.106 116.239 118.992 116.008 118.877 115.756C118.757 115.504 118.637 115.257 118.521 114.976C118.277 114.424 118.143 113.863 118.097 113.303C118.054 113.023 118.097 112.734 118.157 112.44C118.277 111.853 118.536 111.221 118.992 110.739C119.419 110.271 120.007 109.93 120.754 109.917C121.735 109.899 122.19 110.299 122.382 110.872C122.556 111.459 122.5 112.18 122.366 112.781L120.784 112.923Z" fill="black"/>
<path d="M141.725 105.467C141.725 106.133 142.265 106.668 142.926 106.668H152.83C153.491 106.668 154.031 106.133 154.031 105.467C154.031 104.804 153.491 104.265 152.83 104.265H142.926C142.265 104.265 141.725 104.804 141.725 105.467Z" fill="black"/>
<path d="M162.214 110.971C164.577 110.967 166.491 109.057 166.5 106.686C166.491 104.323 164.577 102.408 162.214 102.408C159.845 102.408 157.933 104.323 157.928 106.686C157.933 109.057 159.845 110.967 162.214 110.971ZM155.525 106.686C155.525 102.997 158.518 100.005 162.214 100.005C165.906 100.005 168.903 102.991 168.903 106.686C168.903 110.38 165.906 113.375 162.214 113.375C158.518 113.375 155.525 110.38 155.525 106.686Z" fill="black"/>
<path d="M133.541 110.971C135.909 110.967 137.823 109.057 137.827 106.686C137.823 104.323 135.909 102.408 133.541 102.408C131.178 102.408 129.264 104.323 129.258 106.686C129.264 109.057 131.178 110.967 133.541 110.971ZM126.855 106.686C126.855 102.991 129.852 100.005 133.541 100.005C137.235 100.005 140.23 102.991 140.23 106.686C140.23 110.38 137.235 113.375 133.541 113.375C129.852 113.375 126.855 110.38 126.855 106.686Z" fill="black"/>
<path d="M174.541 101.052C174.27 100.495 173.909 99.9253 173.457 99.3518C172.558 98.1974 171.329 97.0004 169.873 95.8983L153.199 83.282C151.457 81.9628 149.126 80.8471 146.681 80.0237C144.235 79.2057 141.701 78.6893 139.515 78.6885H130.706C129.926 78.6847 129.165 78.9384 128.61 79.4579C128.043 79.966 127.738 80.727 127.739 81.482C127.739 81.8412 127.803 82.2013 127.92 82.5476L131.645 93.8165C131.691 93.9388 131.703 94.039 131.703 94.1165C131.699 94.2775 131.661 94.3573 131.554 94.4773C131.448 94.5927 131.233 94.7309 130.897 94.8031C126.225 95.8406 122.571 99.5516 121.614 104.251H27.9415C27.2815 104.251 26.74 104.793 26.74 105.453C26.74 106.126 27.2815 106.662 27.9415 106.662H122.505C123.167 106.733 123.761 106.261 123.835 105.6C124.293 101.427 127.395 98.0417 131.421 97.1492C132.139 96.9928 132.795 96.6624 133.296 96.1383C133.8 95.618 134.108 94.879 134.106 94.1165C134.106 93.7648 134.046 93.4048 133.928 93.0577L130.203 81.7942C130.158 81.662 130.142 81.5595 130.142 81.482C130.151 81.3195 130.189 81.2792 130.236 81.2223C130.292 81.1721 130.412 81.0924 130.706 81.0909H139.515C141.316 81.0878 143.67 81.5412 145.913 82.3023C148.164 83.0557 150.318 84.1099 151.748 85.1937L168.426 97.81C170.381 99.2789 171.867 101.005 172.378 102.088C172.547 102.436 172.601 102.708 172.596 102.781L171.395 104.865C171.066 105.439 171.26 106.174 171.837 106.506C172.027 106.614 172.232 106.668 172.437 106.668C172.851 106.668 173.252 106.454 173.476 106.067L174.708 103.935C174.924 103.563 175 103.156 175 102.79C174.995 102.169 174.811 101.615 174.541 101.052Z" fill="black"/>
</g>
<defs>
<clipPath id="clip0">
<rect width="150.218" height="42.2464" fill="white" transform="translate(24.782 78.6885)"/>
</clipPath>
</defs>
</svg>
