<svg width="200" height="200" viewBox="0 0 200 200" fill="none" xmlns="http://www.w3.org/2000/svg">
<g clip-path="url(#clip0)">
<path d="M70.1792 82.4997C70.4058 82.2282 70.6868 82.0892 71.0216 82.0818C71.4159 82.0737 71.7116 82.2142 71.908 82.5019C72.1052 82.7895 72.2038 83.122 72.2038 83.5009C72.2038 83.9055 72.1052 84.2785 71.908 84.622C71.7109 84.967 71.4151 85.1436 71.0208 85.1554C70.5677 85.1679 70.258 85.006 70.0902 84.6698C69.9232 84.3351 69.8401 83.9643 69.8401 83.5575C69.8401 83.1272 69.9527 82.7741 70.1792 82.4997Z" fill="black"/>
<path d="M70.4161 91.4209C70.6626 91.1076 70.9531 90.9442 71.2879 90.931C71.6616 90.9163 71.9477 91.0561 72.1449 91.3518C72.3413 91.6461 72.4406 91.9778 72.4406 92.3486C72.4406 92.7422 72.331 93.0585 72.1155 93.2991C71.8977 93.5396 71.6226 93.6669 71.2871 93.6823C70.9531 93.6978 70.6817 93.6169 70.475 93.4396C70.2683 93.2623 70.1454 92.9327 70.1057 92.4472C70.0659 92.0764 70.1704 91.7343 70.4161 91.4209Z" fill="black"/>
<path d="M109.693 78.8962C109.359 78.9278 109.077 79.0455 108.851 79.2508C108.624 79.4575 108.512 79.712 108.512 80.0122C108.512 80.2954 108.595 80.547 108.762 80.7633C108.931 80.9832 109.24 81.0619 109.693 81.0053C110.088 80.956 110.383 80.8023 110.581 80.5448C110.778 80.2888 110.876 80.0254 110.876 79.7517C110.876 79.4957 110.777 79.2802 110.581 79.1036C110.383 78.9293 110.088 78.8572 109.693 78.8962Z" fill="black"/>
<path d="M109.96 85.2081C109.626 85.264 109.335 85.4325 109.089 85.7127C108.842 85.993 108.738 86.2792 108.778 86.5646C108.817 86.9442 108.94 87.1885 109.148 87.2959C109.354 87.4048 109.625 87.4268 109.96 87.3636C110.296 87.3003 110.571 87.1583 110.789 86.9361C111.005 86.714 111.114 86.4513 111.114 86.1438C111.114 85.8562 111.015 85.6127 110.818 85.4126C110.62 85.2132 110.333 85.1434 109.96 85.2081Z" fill="black"/>
<path d="M89.6814 86.2013C89.9264 85.8821 90.217 85.6981 90.551 85.6503C90.9254 85.5966 91.2101 85.6967 91.4058 85.9475C91.6022 86.1984 91.7008 86.4941 91.7008 86.8355C91.7008 87.1989 91.5941 87.5049 91.3771 87.7528C91.1601 88.0022 90.885 88.156 90.5502 88.2104C90.2162 88.2656 89.9455 88.2244 89.7388 88.0839C89.5336 87.9448 89.41 87.6484 89.3702 87.1974C89.3313 86.8553 89.4342 86.5221 89.6814 86.2013Z" fill="black"/>
<path fill-rule="evenodd" clip-rule="evenodd" d="M76.6905 131.232H76.6957C77.9845 131.232 79.1226 131.105 80.1672 130.841C81.2516 130.574 82.2388 130.195 83.1113 129.714C83.6079 129.437 84.075 129.129 84.5112 128.788C84.8533 129.041 85.2167 129.277 85.6015 129.498C86.4585 129.985 87.4436 130.387 88.5316 130.689C89.6579 130.999 90.9136 131.158 92.2812 131.158C93.8945 131.158 95.4629 130.886 96.9342 130.346C97.6375 130.098 98.3548 129.761 99.075 129.341C99.8246 128.9 100.551 128.357 101.23 127.73C101.835 127.176 102.412 126.533 102.95 125.814C102.976 125.858 103.003 125.903 103.03 125.948C103.039 125.963 103.048 125.978 103.057 125.993C103.619 126.91 104.322 127.751 105.152 128.491C105.989 129.237 106.947 129.858 108.007 130.339C109.243 130.899 110.612 131.182 112.072 131.182C113.393 131.182 114.626 130.959 115.74 130.516C116.854 130.075 117.856 129.441 118.715 128.637C119.034 128.339 119.336 128.023 119.619 127.69C119.726 127.8 119.835 127.909 119.947 128.015C120.86 128.882 121.935 129.595 123.15 130.132C124.462 130.712 125.956 131.003 127.59 131.003C127.759 131.003 127.94 130.993 128.107 130.976C129.817 130.779 132.321 129.967 134.55 127.209C134.56 127.194 134.571 127.18 134.582 127.167C134.59 127.157 134.598 127.147 134.606 127.137C135.224 126.339 135.796 125.401 136.359 124.269C136.785 123.409 137.17 122.426 137.508 121.34C137.911 121.429 138.325 121.488 138.752 121.516C138.989 121.543 139.229 121.556 139.466 121.556C139.78 121.556 140.094 121.532 140.402 121.488C140.558 121.963 140.727 122.434 140.909 122.897C141.44 124.262 142.119 125.514 142.924 126.617C143.867 127.905 145.015 128.952 146.339 129.729C147.801 130.587 149.488 131.029 151.351 131.036C151.393 131.036 151.432 131.036 151.473 131.035C153.523 130.987 155.417 130.358 157.07 129.188C157.767 128.704 158.431 128.105 159.042 127.405C159.7 126.653 160.259 125.761 160.707 124.761C161.131 123.813 161.444 122.76 161.66 121.538C161.86 120.395 161.943 119.135 161.91 117.708C161.881 116.046 161.748 114.307 161.505 112.379C161.301 110.8 160.994 109.041 160.568 106.998C160.125 104.88 159.496 102.691 158.703 100.491L158.669 100.398C158.015 98.7072 157.22 97.1255 156.318 95.7271C155.454 94.3654 154.394 93.0802 153.171 91.9112C152.49 91.2587 151.755 90.6989 150.969 90.2325C151.006 89.9507 151.023 89.6645 151.023 89.3732C151.023 89.2511 151.02 89.1312 151.013 89.0091C151.693 88.8148 152.342 88.5213 152.945 88.1336C154.982 86.844 156.3 84.6702 156.56 82.1697C156.854 79.3448 155.77 76.4308 153.647 74.3614C151.717 72.5002 149.1 71.4755 146.28 71.4755C144.765 71.4755 143.264 71.783 141.916 72.3575C141.824 72.2303 141.727 72.1059 141.627 71.9838C141.118 71.3629 140.474 70.8296 139.711 70.3955C139.095 70.0432 138.402 69.7643 137.575 69.5363C136.857 69.3413 136.061 69.2126 135.132 69.1412C134.847 69.1206 134.563 69.1103 134.28 69.1103C133.279 69.1103 132.293 69.2442 131.411 69.4899C130.543 69.7187 129.696 70.0821 128.882 70.5706C128.309 70.2374 127.69 69.9549 126.984 69.7084C126.293 69.4693 125.539 69.284 124.737 69.1567C124.078 69.0522 123.385 69 122.674 69C122.474 69 122.272 69.0029 122.064 69.0118C121.994 69.0147 121.921 69.0199 121.85 69.025C120.458 69.1508 119.193 69.4774 118.143 69.9733C117.687 70.1822 117.251 70.4323 116.845 70.72C116.465 70.5463 116.058 70.3816 115.619 70.2212C114.311 69.7437 112.782 69.4848 110.941 69.4282C110.514 69.4002 110.088 69.387 109.672 69.387C108.475 69.387 107.317 69.5047 106.234 69.7357C106.207 69.7401 106.179 69.7467 106.153 69.7533C105.482 69.91 104.803 70.1167 104.131 70.3698C103.247 70.703 102.408 71.1621 101.639 71.7278C100.874 72.2884 100.167 72.9644 99.5326 73.7442C99.4487 73.8487 99.3656 73.9568 99.2846 74.065C98.5924 73.1976 97.8722 72.4855 97.1056 71.9058C96.1074 71.1488 95.1849 70.5934 94.2925 70.2094C93.2339 69.7518 92.3335 69.5039 91.4742 69.434C90.896 69.3847 90.5524 69.3693 90.4333 69.3693C90.2155 69.3693 90.0066 69.3811 89.3533 69.4458C88.4338 69.5326 87.47 69.8239 86.4181 70.3323C85.4315 70.8053 84.4634 71.4821 83.4607 72.3995C82.7339 73.0645 82.0571 73.8759 81.4149 74.8565C81.2677 74.6388 81.1133 74.424 80.9522 74.2158C80.1687 73.1998 79.1336 72.2604 77.8661 71.421C76.383 70.4434 74.563 69.8762 72.4553 69.7364C71.933 69.6753 71.4115 69.6459 70.9009 69.6459C69.6128 69.6459 68.3489 69.8386 67.1483 70.2205C67.1086 70.2322 67.0711 70.2447 67.0328 70.2587C66.3399 70.4993 65.6277 70.8185 64.9061 71.2099C64.0262 71.6903 63.192 72.3296 62.4269 73.1079C61.7354 73.8119 61.0946 74.6425 60.5179 75.5848C59.9372 76.5425 59.4622 77.6423 59.1029 78.8582L59.1054 78.8497C58.8472 79.6773 58.6184 80.5799 58.4095 81.5804C58.4074 81.5932 58.4047 81.6059 58.402 81.6186C58.3992 81.6322 58.3963 81.6458 58.3941 81.6599C58.166 81.4826 57.9402 81.3207 57.7114 81.1714C56.0319 80.0819 53.9389 79.4801 51.818 79.4801C48.9968 79.4801 46.3816 80.5056 44.4394 82.3808C42.3281 84.437 41.2445 87.3509 41.5387 90.1773C41.7992 92.6785 43.1182 94.8524 45.1295 96.1243C45.6577 96.4649 46.2146 96.732 46.7965 96.9254C46.761 96.9359 46.7263 96.9467 46.6918 96.9574C46.6683 96.9647 46.6449 96.972 46.6214 96.9791C45.6025 97.305 44.6513 97.8023 43.809 98.4446C42.8592 99.1662 42.0544 100.109 41.4255 101.235C40.8119 102.325 40.4073 103.584 40.1896 105.079C40.1829 105.118 40.1778 105.159 40.1726 105.199C39.9328 107.236 40.1623 109.331 40.8811 111.497C41.1599 112.289 41.5204 113.107 41.9529 113.926C40.9958 114.664 40.2484 115.634 39.7415 116.802C39.2428 117.935 39 119.234 39 120.775C39 120.837 39.0015 120.9 39.0037 120.965C39.1037 123.278 39.9828 125.4 41.5432 127.108C42.206 127.875 43.027 128.553 43.9782 129.122C44.9095 129.68 46.0108 130.137 47.2437 130.473C48.3605 130.78 49.6317 130.983 51.1324 131.096C51.8372 131.148 52.5846 131.174 53.4151 131.174C54.1265 131.174 54.8784 131.155 55.7148 131.115C58.0387 131.008 60.1729 130.674 62.0576 130.126L62.0679 130.123C62.0936 130.115 62.1183 130.108 62.1429 130.099C63.0044 129.83 63.843 129.504 64.6317 129.135C65.4791 128.74 66.2633 128.252 66.9703 127.682C67.2668 127.945 67.5743 128.191 67.8928 128.422C68.8904 129.163 70.0681 129.792 71.4909 130.34C73.0174 130.93 74.766 131.23 76.6905 131.232ZM129.044 76.9262C129.457 75.8889 129.985 75.1643 130.626 74.6935C131.266 74.2234 131.901 73.9144 132.533 73.7482C133.262 73.5444 134.021 73.4752 134.81 73.5341C135.439 73.5812 135.978 73.665 136.421 73.7864C136.865 73.9078 137.234 74.0513 137.53 74.2205C137.826 74.3889 138.057 74.5743 138.224 74.7803C138.393 74.9841 138.525 75.1915 138.624 75.4005C138.82 75.897 138.841 76.4576 138.683 77.0807C138.427 77.8252 138.002 78.4851 137.411 79.0478C136.82 79.6113 136.218 80.0836 135.608 80.4573C134.898 80.9039 134.129 81.2879 133.301 81.6094C133.695 82.5746 133.872 83.4757 133.833 84.2916C133.793 85.1067 133.686 85.8203 133.508 86.4176C133.291 87.1172 132.986 87.7536 132.591 88.3259C132.138 88.8968 131.626 89.3183 131.055 89.5809C130.483 89.8443 129.813 89.9958 129.044 90.0414C128.414 90.0775 127.866 90.0532 127.404 89.962C126.94 89.8708 126.56 89.759 126.265 89.6221C125.911 89.4728 125.615 89.2933 125.378 89.0836C125.063 88.7923 124.802 88.4701 124.595 88.1207C124.388 87.7697 124.225 87.4019 124.107 87.015C123.989 86.628 123.909 86.2366 123.871 85.8401C123.831 85.4451 123.811 85.0714 123.811 84.7212C123.811 83.8877 123.919 83.038 124.136 82.1795C123.132 81.9161 122.214 81.5652 121.387 81.1216C121.032 80.934 120.682 80.72 120.337 80.4772C119.992 80.2359 119.672 79.9645 119.376 79.6643C119.08 79.3642 118.828 79.0331 118.622 78.6726C118.415 78.3122 118.272 77.9215 118.193 77.503C118.095 77.0108 118.086 76.5738 118.164 76.195C118.242 75.8146 118.37 75.4828 118.548 75.1974C118.725 74.9127 118.937 74.67 119.183 74.4706C119.429 74.2698 119.69 74.1072 119.967 73.9821C120.617 73.6746 121.376 73.49 122.244 73.412C122.894 73.3862 123.495 73.4193 124.047 73.5069C124.598 73.5944 125.097 73.7151 125.54 73.8703C125.983 74.0255 126.377 74.2043 126.722 74.4088C127.068 74.614 127.367 74.8296 127.624 75.0569C128.236 75.5733 128.708 76.1898 129.044 76.9262ZM76.6986 125.726C75.451 125.725 74.3659 125.549 73.4721 125.205C72.5356 124.843 71.7624 124.438 71.1761 124.004C70.4581 123.482 69.874 122.885 69.3803 122.172C68.6925 121.125 68.154 119.968 67.7913 118.755C67.4169 117.499 67.1315 116.283 66.9446 115.133C66.7335 113.82 66.6143 112.483 66.5907 111.164C66.5393 110.19 66.5812 109.358 66.7143 108.649C66.8453 107.938 67.0366 107.31 67.2845 106.78C67.5258 106.264 67.8024 105.829 68.1084 105.488C68.4336 105.123 68.7683 104.822 69.1045 104.586C69.9262 103.995 70.8414 103.646 71.9235 103.51C72.0221 103.505 72.1861 103.501 72.3472 103.501C73.0748 103.501 73.7251 103.608 74.282 103.818C74.9728 104.081 75.5731 104.449 76.0674 104.909C76.5795 105.39 77.0186 105.955 77.3703 106.588C77.744 107.259 78.0464 107.942 78.27 108.618C78.793 110.157 79.0873 111.896 79.1454 113.795C79.1631 114.392 79.6516 114.861 80.2438 114.861H80.2643C80.8661 114.851 81.3494 114.358 81.3465 113.756C81.3421 112.719 81.4951 111.867 81.7879 111.295C82.1447 110.595 82.5397 110.063 82.9613 109.716C83.4475 109.317 83.9919 109.065 84.626 108.95C84.8806 108.903 85.1175 108.878 85.3264 108.878C85.4912 108.878 85.6405 108.893 85.7707 108.923C86.0929 108.992 86.3644 109.094 86.577 109.23C86.7955 109.37 86.9779 109.537 87.1309 109.737C87.3031 109.962 87.4399 110.199 87.5414 110.444C87.7849 111.086 87.9247 111.894 87.9483 112.818C87.9644 113.416 88.4544 113.89 89.0503 113.89H89.065C89.6667 113.883 90.1515 113.391 90.1515 112.79C90.1515 111.315 90.2494 109.972 90.4429 108.798C90.6378 107.618 90.8982 106.545 91.2175 105.611C91.5346 104.68 91.8936 103.873 92.2879 103.207C92.6873 102.53 93.0978 101.953 93.5113 101.489C94.4639 100.405 95.527 99.6567 96.6775 99.258C97.2653 99.1204 97.8016 99.0505 98.2732 99.0505C98.4247 99.0505 98.5711 99.0564 98.7109 99.0704C99.2714 99.1293 99.7526 99.2646 100.14 99.4772C100.536 99.6928 100.858 99.9547 101.125 100.279C101.411 100.626 101.642 101.013 101.818 101.431C102.285 102.499 102.542 103.818 102.591 105.37C102.591 107.544 102.445 109.594 102.155 111.424C101.862 113.28 101.528 114.903 101.158 116.249C100.735 117.797 100.257 119.187 99.7371 120.387C99.4134 121.144 99.0596 121.793 98.6859 122.317C98.3092 122.845 97.9134 123.3 97.5073 123.676C97.1108 124.039 96.6989 124.35 96.2803 124.596C95.8698 124.836 95.4725 125.024 95.1069 125.154C94.1976 125.491 93.2803 125.653 92.2783 125.654C91.4051 125.654 90.6444 125.565 89.9985 125.384C89.3556 125.206 88.7928 124.98 88.3242 124.715C87.8813 124.462 87.5098 124.175 87.22 123.86C86.9176 123.532 86.6778 123.199 86.5071 122.871C86.0334 122.003 85.7957 121.031 85.7729 119.879C85.7619 119.309 85.3154 118.842 84.746 118.803C84.7202 118.801 84.6967 118.8 84.6702 118.8C84.1339 118.8 83.6704 119.193 83.5829 119.731C83.3879 120.967 83.0017 122.05 82.4323 122.949C82.191 123.348 81.9056 123.712 81.576 124.049C81.2567 124.372 80.8742 124.659 80.4358 124.9C79.9944 125.146 79.4588 125.347 78.8453 125.499C78.2354 125.651 77.513 125.726 76.6986 125.726ZM112.072 125.677C111.397 125.677 110.793 125.558 110.276 125.324C109.73 125.075 109.238 124.757 108.818 124.383C108.394 124.008 108.037 123.585 107.754 123.121C107.443 122.614 107.171 122.09 106.947 121.57C106.445 120.329 106.121 118.963 105.969 117.417C105.804 116.252 105.706 115.019 105.667 113.708C105.627 112.344 105.619 111.076 105.647 109.937C105.672 108.573 105.727 107.18 105.81 105.791C105.934 104.172 106.255 102.643 106.765 101.266C106.984 100.699 107.264 100.111 107.592 99.5258C107.901 98.9755 108.282 98.4591 108.724 97.9868C109.164 97.5182 109.688 97.0952 110.279 96.7296C110.849 96.3772 111.519 96.1146 112.27 95.952C112.512 95.9218 112.746 95.9056 112.974 95.9056C113.573 95.9056 114.112 96.0116 114.622 96.2323C114.918 96.361 115.231 96.5508 115.551 96.7972C115.85 97.029 116.139 97.3534 116.411 97.7632C116.7 98.2009 116.962 98.7533 117.188 99.4022C117.424 100.073 117.605 100.888 117.731 101.826C117.94 103.742 118.061 105.681 118.089 107.566C118.115 109.481 118.103 111.215 118.049 112.718C117.97 114.454 117.859 116.152 117.726 117.751C117.547 119.28 117.213 120.691 116.734 121.907C116.525 122.377 116.258 122.887 115.956 123.383C115.685 123.834 115.348 124.25 114.959 124.615C114.602 124.95 114.181 125.215 113.712 125.402C113.247 125.583 112.697 125.677 112.072 125.677ZM53.413 125.667C52.7325 125.667 52.1028 125.647 51.5422 125.604C50.4056 125.52 49.4765 125.374 48.7055 125.163C47.9456 124.957 47.3107 124.701 46.8112 124.401C46.3367 124.116 45.9564 123.804 45.679 123.472C44.9301 122.669 44.5491 121.759 44.5042 120.724C44.5057 120.032 44.6006 119.427 44.7793 119.021C44.9404 118.654 45.1435 118.393 45.4017 118.222C45.7004 118.025 46.0498 117.895 46.4655 117.827C46.8443 117.764 47.2386 117.734 47.6344 117.734C47.7359 117.734 47.8389 117.735 47.9404 117.738C49.0925 117.802 50.5366 118.088 52.3397 118.614C52.4412 118.643 52.5442 118.658 52.6457 118.658C53.1077 118.658 53.538 118.365 53.6918 117.907C53.8786 117.345 53.5888 116.736 53.0363 116.527C51.9417 116.113 50.9824 115.623 50.1857 115.073C49.4132 114.54 48.7445 113.954 48.1972 113.33C47.666 112.727 47.2246 112.103 46.887 111.477C46.5501 110.853 46.2786 110.245 46.0785 109.674C45.6437 108.369 45.4959 107.073 45.6408 105.843C45.7548 105.068 45.9512 104.415 46.2234 103.933C46.4868 103.46 46.7928 103.091 47.1342 102.833C47.4998 102.555 47.8794 102.356 48.2994 102.22C48.7423 102.082 49.1991 101.993 49.6516 101.963C49.8671 101.948 50.0863 101.942 50.3085 101.942C51.284 101.942 52.3676 102.085 53.5285 102.37C55.8237 102.831 57.9637 103.279 59.4292 103.845C60.846 104.386 61.8325 104.91 62.452 105.454C63.0287 105.961 63.3811 106.462 63.5003 106.947C63.6474 107.539 63.6996 108.062 63.6562 108.501C63.6033 108.921 63.4738 109.271 63.2678 109.538C63.0331 109.842 62.7462 110.084 62.3909 110.276C61.9966 110.486 61.5412 110.647 61.0351 110.75C60.5231 110.857 59.9949 110.91 59.4659 110.91H59.3688L59.1113 110.914C57.7725 110.914 56.3262 110.674 54.8151 110.202C54.7055 110.168 54.5959 110.152 54.487 110.152C54.0236 110.152 53.5932 110.445 53.4402 110.909C53.2541 111.48 53.5579 112.097 54.128 112.294C55.4743 112.759 56.8845 113.258 58.0755 113.75C59.2342 114.229 60.1633 114.669 60.9181 115.097C61.7134 115.548 62.335 115.965 62.8146 116.372C63.309 116.79 63.7165 117.193 64.027 117.57C64.6891 118.378 65.0223 119.171 65.0444 119.995C65.0444 120.725 64.9282 121.353 64.6906 121.881C64.4537 122.405 64.1462 122.836 63.7489 123.195C63.3303 123.575 62.8588 123.885 62.3034 124.143C61.7192 124.418 61.1138 124.652 60.5017 124.843C59.0532 125.264 57.3517 125.527 55.4596 125.614C54.7364 125.65 54.053 125.667 53.413 125.667ZM151.351 125.532C150.47 125.526 149.742 125.345 149.128 124.982C148.457 124.591 147.867 124.047 147.37 123.368C146.845 122.65 146.397 121.817 146.034 120.893C145.663 119.945 145.355 118.956 145.12 117.96C144.539 115.606 144.233 113.004 144.209 110.21C144.204 109.619 143.733 109.138 143.143 109.119H143.109C142.534 109.119 142.051 109.562 142.01 110.14C141.85 112.332 141.514 113.487 141.26 114.069C140.79 115.14 140.419 115.551 140.237 115.701C139.877 116.019 139.626 116.053 139.465 116.053C139.413 116.053 139.359 116.048 139.305 116.04C139.265 116.033 139.226 116.029 139.186 116.028C138.452 115.996 137.923 115.735 137.525 115.202C137.002 114.51 136.607 113.736 136.345 112.899C136.017 111.891 135.814 110.747 135.739 109.489C135.701 108.905 135.22 108.454 134.639 108.454H134.605C134.011 108.474 133.538 108.961 133.538 109.556C133.538 111.521 133.437 113.301 133.242 114.851C133.042 116.423 132.783 117.795 132.472 118.934C132.163 120.077 131.811 121.049 131.424 121.826C131.035 122.611 130.64 123.265 130.251 123.77C129.421 124.795 128.529 125.366 127.542 125.502C126.691 125.494 125.963 125.36 125.37 125.096C124.74 124.818 124.192 124.462 123.741 124.032C123.281 123.593 122.898 123.092 122.603 122.536C122.28 121.935 122.017 121.318 121.822 120.704C121.368 119.218 121.136 117.53 121.136 115.699C121.136 113.071 121.285 110.764 121.596 108.649C121.895 106.587 122.238 104.789 122.615 103.304C123.055 101.637 123.562 100.108 124.119 98.7688C124.762 97.1511 125.521 95.9402 126.383 95.1531C127.251 94.3615 128.083 93.7906 128.857 93.4559C129.689 93.105 130.549 92.9248 131.403 92.9248L131.545 92.9262L131.801 92.9226C132.498 92.9226 133.13 93.0211 133.679 93.2153C134.279 93.4279 134.797 93.7082 135.213 94.0466C135.639 94.3931 136.001 94.7955 136.29 95.2443C136.601 95.7283 136.855 96.2293 137.047 96.7303C137.517 97.9831 137.782 99.4507 137.831 101.091C137.848 101.669 138.313 102.137 138.891 102.157C138.898 102.157 138.905 102.158 138.913 102.158C138.92 102.158 138.927 102.159 138.934 102.159C139.495 102.159 139.968 101.736 140.027 101.174C140.201 99.5339 140.578 98.1214 141.146 96.9804C141.376 96.5346 141.666 96.0866 142.002 95.6651C142.306 95.2803 142.671 94.95 143.089 94.6793C143.484 94.427 143.954 94.2482 144.486 94.1526C144.687 94.1158 144.901 94.0981 145.124 94.0981C145.506 94.0981 145.924 94.1511 146.371 94.2563C147.497 94.5189 148.501 95.0677 149.358 95.8887C150.267 96.7582 151.043 97.6955 151.666 98.6776C152.385 99.7943 153.011 101.041 153.531 102.385C154.234 104.337 154.791 106.278 155.177 108.129C155.564 109.982 155.855 111.649 156.043 113.088C156.254 114.765 156.375 116.353 156.401 117.806C156.427 118.883 156.37 119.817 156.235 120.588C156.101 121.341 155.915 121.988 155.679 122.508C155.452 123.02 155.191 123.446 154.895 123.781C154.578 124.143 154.255 124.439 153.93 124.665C153.151 125.218 152.286 125.507 151.351 125.532ZM75.4414 75.0975C74.5836 74.5318 73.4551 74.2022 72.0566 74.1235C70.7957 73.9624 69.604 74.0617 68.4806 74.417C68.0076 74.5833 67.5206 74.8025 67.0167 75.0754C66.5149 75.3498 66.0324 75.7221 65.5696 76.1929C65.1069 76.6637 64.6773 77.225 64.283 77.8724C63.8894 78.5198 63.5642 79.2856 63.309 80.164C63.0905 80.8621 62.8955 81.6434 62.7168 82.5019C62.5593 83.2353 62.4218 84.124 62.3033 85.1613C62.1864 86.1971 62.126 87.3454 62.126 88.5923C62.126 89.8157 62.215 91.1215 62.3916 92.495C62.5689 93.8685 62.9536 95.136 63.5436 96.3013C63.9387 97.123 64.5198 97.8417 65.2886 98.4523C65.6035 98.723 65.9772 98.9754 66.412 99.2078C66.8445 99.4403 67.3381 99.6411 67.8899 99.8096C68.4409 99.9781 69.0618 100.096 69.7518 100.16C70.4419 100.222 71.1996 100.2 72.0279 100.085C73.5449 99.867 74.894 99.4057 76.0762 98.726C76.5691 98.4406 77.0502 98.0867 77.524 97.6644C77.9978 97.2436 78.4112 96.7552 78.7651 96.1997C79.1204 95.6443 79.3962 95.0021 79.5927 94.2701C79.7906 93.5389 79.8678 92.7164 79.8288 91.7954C79.7898 91.0767 79.642 90.4094 79.3852 89.7915C79.1682 89.2603 78.8129 88.727 78.3215 88.1841C77.8286 87.6397 77.129 87.2343 76.2234 86.9614C76.8936 86.4796 77.4541 85.8837 77.908 85.1708C78.3023 84.5588 78.6084 83.79 78.8246 82.8542C79.0402 81.917 79.0019 80.7775 78.7069 79.4004C78.4502 78.4764 78.036 77.6429 77.4644 76.9035C76.9723 76.2643 76.2977 75.664 75.4414 75.0975ZM110.728 73.8268C112.126 73.8636 113.255 74.046 114.113 74.3572C114.97 74.6698 115.644 74.9987 116.136 75.3562C116.708 75.7689 117.122 76.2412 117.379 76.7826C117.674 77.5948 117.712 78.2996 117.496 78.9035C117.28 79.5068 116.973 80.0269 116.58 80.4565C116.126 80.9567 115.566 81.4003 114.896 81.7858C115.802 81.9065 116.501 82.1434 116.994 82.4972C117.485 82.8503 117.841 83.213 118.058 83.5867C118.315 84.0229 118.462 84.5085 118.501 85.0499C118.54 85.7444 118.462 86.3895 118.265 86.9825C118.069 87.5747 117.793 88.1139 117.438 88.5943C117.084 89.0754 116.67 89.5153 116.196 89.9104C115.723 90.3069 115.242 90.6549 114.748 90.9521C113.567 91.6605 112.217 92.2351 110.699 92.6735C109.871 92.9082 109.113 93.0656 108.423 93.1436C107.733 93.2201 107.113 93.2466 106.562 93.2172C106.009 93.1885 105.516 93.123 105.084 93.0185C104.649 92.9148 104.275 92.7831 103.96 92.622C103.192 92.2733 102.61 91.7922 102.216 91.1764C101.626 90.3128 101.241 89.316 101.064 88.1934C100.888 87.0722 100.799 86.0055 100.799 85.005C100.799 83.9847 100.858 83.0519 100.976 82.2132C101.094 81.3739 101.232 80.6654 101.389 80.0835C101.568 79.4038 101.764 78.7932 101.982 78.2562C102.238 77.5808 102.562 76.9989 102.956 76.5134C103.35 76.0279 103.779 75.6166 104.242 75.2775C104.705 74.9384 105.187 74.6772 105.69 74.4874C106.194 74.2976 106.681 74.1497 107.154 74.0394C108.275 73.801 109.468 73.74 110.728 73.8268ZM96.306 96.0311C96.8173 95.8715 97.3094 95.6567 97.7825 95.3867C98.1753 95.1557 98.5144 94.8931 98.7977 94.5974C99.0831 94.3031 99.3244 93.9904 99.5208 93.6579C99.718 93.3261 99.8798 92.9833 100.008 92.6295C100.136 92.2756 100.229 91.9335 100.288 91.6054C100.445 90.8234 100.493 90.0157 100.436 89.1822C100.376 87.797 100.218 86.5441 99.9629 85.4112C99.7069 84.2783 99.3869 83.2447 99.0044 82.3053C98.6204 81.3651 98.2069 80.514 97.7648 79.7504C97.3219 78.9875 96.8842 78.285 96.4517 77.6427C95.8013 76.6842 95.1326 75.9331 94.4441 75.4122C93.7555 74.8914 93.1199 74.4978 92.5409 74.2477C91.962 73.9976 91.4786 73.8512 91.0954 73.8195C90.7113 73.7864 90.4899 73.7702 90.4318 73.771C90.3729 73.771 90.1522 73.7894 89.7682 73.8269C89.385 73.8644 88.9024 74.0196 88.3227 74.2999C87.7415 74.5787 87.1118 75.0253 86.4335 75.6469C85.7545 76.2671 85.0909 77.1763 84.4414 78.3732C84.0081 79.1722 83.5659 80.063 83.1135 81.0466C82.6596 82.0302 82.2425 83.1314 81.8592 84.3416C81.4759 85.551 81.1559 86.8664 80.8999 88.2707C80.6439 89.6758 80.4872 91.1832 80.4284 92.7722C80.3894 93.7352 80.4482 94.6179 80.6049 95.4191C80.6645 95.7589 80.7579 96.0959 80.8859 96.4306C81.0132 96.7661 81.1706 97.0728 81.3582 97.3516C81.5458 97.6312 81.7805 97.8688 82.0667 98.0638C82.3521 98.2602 82.6912 98.397 83.0841 98.4757C83.5571 98.5618 84.0493 98.5772 84.5598 98.5272C84.9924 98.489 85.4705 98.3794 85.9921 98.1984C86.5122 98.0159 87.0287 97.7187 87.5407 97.3082C88.1307 96.8198 88.6066 96.296 88.9715 95.7354C89.3357 95.1756 89.6263 94.6393 89.8425 94.128C90.0588 93.616 90.2059 93.1599 90.2847 92.7567C90.3641 92.3543 90.4127 92.0873 90.4325 91.9571C90.4517 92.0799 90.5009 92.3286 90.5797 92.6994C90.6598 93.0709 90.807 93.4674 91.0233 93.8896C91.2395 94.3119 91.5294 94.7254 91.8935 95.1278C92.2584 95.5309 92.7344 95.8487 93.3251 96.0797C93.8357 96.2688 94.3528 96.3423 94.8744 96.3033C95.3967 96.2629 95.8734 96.1709 96.306 96.0311ZM142.785 76.8596C140.631 78.2676 137.647 82.5381 137.647 86.6651C141.949 83.3762 144.709 84.037 146.908 84.5637C148.272 84.8904 149.421 85.1654 150.588 84.414C152.743 83.0494 152.743 79.6293 150.588 77.5305C148.432 75.4515 144.939 75.4604 142.785 76.8596ZM137.646 87.9157C139.268 86.5952 142.421 86.0795 143.914 86.3642C145.409 86.6268 146.619 87.99 146.619 89.3752C146.619 90.7582 145.409 91.591 143.914 91.2835C143.092 91.1351 142.692 90.6663 142.227 90.1202C141.495 89.2616 140.6 88.212 137.646 87.9157ZM55.3132 84.8649C57.4679 86.2729 60.4525 90.5434 60.4517 94.6704C56.1494 91.3815 53.3896 92.0424 51.1905 92.569C49.8263 92.8957 48.6779 93.1707 47.5108 92.4193C45.3561 91.0547 45.3561 87.6346 47.5108 85.5358C49.6663 83.4569 53.1592 83.4664 55.3132 84.8649ZM60.4525 95.921C58.8318 94.5998 55.6781 94.0848 54.1847 94.3695C52.6906 94.6321 51.4804 95.996 51.4804 97.3805C51.4804 98.7628 52.6906 99.5949 54.1847 99.2888C55.0067 99.1404 55.4064 98.6715 55.872 98.1254C56.6038 97.2668 57.4985 96.2173 60.4525 95.921Z" fill="black"/>
</g>
<defs>
<clipPath id="clip0">
<rect width="122.916" height="62.2319" fill="white" transform="translate(39 69)"/>
</clipPath>
</defs>
</svg>
