<svg width="200" height="200" viewBox="0 0 200 200" fill="none" xmlns="http://www.w3.org/2000/svg">
<path d="M18.7679 114.864V109.201L12.9327 103.366C12.6372 103.07 12.4648 102.676 12.4648 102.258C12.4648 101.421 13.2036 100.681 14.041 100.681C14.4603 100.681 14.8538 100.854 15.1499 101.149L20.3447 106.345L25.5402 101.149C25.8357 100.854 26.2298 100.681 26.6485 100.681C27.4858 100.681 28.2247 101.42 28.2247 102.258C28.2247 102.676 28.0523 103.07 27.7568 103.366L21.9204 109.202V114.865C21.9204 115.726 21.2061 116.441 20.3441 116.441C19.4827 116.441 18.7679 115.726 18.7679 114.864Z" fill="black"/>
<path d="M35.3775 100.681C39.7356 100.681 43.2569 104.203 43.2569 108.561C43.2569 112.919 39.7356 116.441 35.3775 116.441C31.0195 116.441 27.4982 112.919 27.4982 108.561C27.4982 104.203 31.0195 100.681 35.3775 100.681ZM35.3775 113.289C37.9875 113.289 40.1056 111.171 40.1056 108.561C40.1056 105.951 37.9882 103.833 35.3775 103.833C32.7669 103.833 30.6494 105.951 30.6494 108.561C30.6494 111.171 32.7675 113.289 35.3775 113.289Z" fill="black"/>
<path d="M58.4263 113.018C58.4263 113.288 58.3524 113.535 58.2287 113.756C58.475 114.076 58.6233 114.445 58.6233 114.864C58.6233 115.85 57.8358 116.637 56.8507 116.637C56.235 116.637 55.6931 116.342 55.373 115.85C54.4131 116.244 53.4033 116.441 52.3941 116.441C48.0361 116.441 44.5142 112.919 44.5142 108.561C44.5142 104.203 48.0361 100.681 52.3941 100.681C54.4131 100.681 56.4074 101.47 57.9584 102.996C58.2533 103.291 58.4269 103.71 58.4269 104.105C58.4269 104.966 57.6881 105.68 56.8507 105.68C56.4314 105.68 56.0379 105.533 55.7418 105.212C54.8311 104.277 53.5997 103.834 52.3935 103.834C49.7835 103.834 47.6654 105.951 47.6654 108.562C47.6654 111.171 49.7829 113.289 52.3935 113.289C53.4027 113.289 54.4124 112.994 55.2744 112.329V110.137H53.9691C53.1077 110.137 52.3935 109.423 52.3935 108.561C52.3935 107.699 53.1071 106.985 53.9691 106.985H56.8507C57.7121 106.985 58.4269 107.699 58.4269 108.561L58.4263 113.018Z" fill="black"/>
<path d="M75.2089 114.864C75.2089 115.726 74.4947 116.441 73.6321 116.441C72.7713 116.441 72.0565 115.727 72.0565 114.864V111.713H64.1777V114.864C64.1777 115.726 63.4635 116.441 62.6015 116.441C61.7395 116.441 61.0252 115.727 61.0252 114.864V107.773C61.0252 103.859 64.2017 100.681 68.1171 100.681C72.0324 100.681 75.2089 103.858 75.2089 107.773V114.864ZM64.1777 108.561H72.0571V107.773C72.0571 105.606 70.2844 103.834 68.1177 103.834C65.951 103.834 64.1783 105.607 64.1783 107.773L64.1777 108.561Z" fill="black"/>
<path d="M125.198 116.441C124.337 116.441 123.622 115.727 123.622 114.865V102.258C123.622 101.396 124.337 100.682 125.198 100.682H132.29C134.9 100.682 137.017 102.799 137.017 105.41C137.017 106.42 136.697 107.354 136.156 108.118C137.167 108.98 137.807 110.285 137.807 111.713C137.807 114.323 135.689 116.441 133.078 116.441H125.198ZM126.775 103.834V106.985H132.29C133.152 106.985 133.867 106.271 133.867 105.409C133.867 104.547 133.152 103.833 132.29 103.833L126.775 103.834ZM126.775 110.137V113.289H133.077C133.939 113.289 134.654 112.575 134.654 111.713C134.654 110.851 133.94 110.137 133.077 110.137L126.775 110.137Z" fill="black"/>
<path d="M153.913 114.864C153.913 115.726 153.199 116.441 152.338 116.441C151.476 116.441 150.762 115.726 150.762 114.864V111.713H142.881V114.864C142.881 115.726 142.168 116.441 141.306 116.441C140.445 116.441 139.729 115.726 139.729 114.864V107.773C139.729 103.858 142.906 100.681 146.821 100.681C150.736 100.681 153.913 103.858 153.913 107.773L153.913 114.864ZM142.882 108.561H150.763V107.773C150.763 105.606 148.99 103.834 146.822 103.834C144.656 103.834 142.883 105.606 142.883 107.773L142.882 108.561Z" fill="black"/>
<path d="M158.193 116.441C157.331 116.441 156.616 115.726 156.616 114.864V102.258C156.616 101.396 157.33 100.681 158.193 100.681H165.285C167.894 100.681 170.012 102.799 170.012 105.409C170.012 106.419 169.692 107.354 169.15 108.117C170.161 108.979 170.8 110.285 170.8 111.713C170.8 114.323 168.683 116.441 166.073 116.441H158.193ZM159.769 103.833V106.984H165.285C166.146 106.984 166.86 106.271 166.86 105.409C166.86 104.547 166.146 103.833 165.285 103.833L159.769 103.833ZM159.769 110.137V113.289H166.072C166.933 113.289 167.649 112.575 167.649 111.713C167.649 110.851 166.934 110.136 166.072 110.136L159.769 110.137Z" fill="black"/>
<path d="M177.544 114.864V109.201L171.707 103.365C171.412 103.07 171.24 102.676 171.24 102.257C171.24 101.42 171.978 100.681 172.816 100.681C173.234 100.681 173.628 100.853 173.925 101.149L179.12 106.344L184.315 101.149C184.611 100.854 185.006 100.681 185.424 100.681C186.261 100.681 187 101.42 187 102.257C187 102.676 186.827 103.07 186.532 103.365L180.696 109.201V114.864C180.696 115.726 179.981 116.441 179.12 116.441C178.259 116.441 177.544 115.726 177.544 114.864Z" fill="black"/>
<path d="M92.297 111.863H106.533L99.4159 114.768L92.297 111.863Z" fill="black"/>
<path d="M86.8928 110.848L92.2489 106.681L88.3927 110.55L86.8928 110.848Z" fill="black"/>
<path d="M111.937 110.848L106.581 106.681L110.438 110.55L111.937 110.848Z" fill="black"/>
<path d="M95.4341 83.5793C94.7771 83.1895 94.2937 82.5972 94.2913 81.8707C94.2913 81.6552 94.4649 81.4809 94.681 81.4809C94.8972 81.4809 95.0726 81.6552 95.0726 81.8707C95.0689 82.2167 95.314 82.596 95.8349 82.9094C96.3478 83.2172 97.099 83.4241 97.9333 83.4229C98.0071 83.4229 98.081 83.4216 98.1531 83.4186C97.6254 83.0344 97.259 82.5036 97.2566 81.8707C97.2597 81.3892 97.5768 81.0185 97.964 80.7888C98.3599 80.5536 98.8636 80.4249 99.4153 80.4243C99.967 80.4249 100.471 80.5536 100.866 80.7888C101.254 81.0185 101.57 81.3892 101.574 81.8707C101.572 82.503 101.205 83.0344 100.677 83.4186C100.75 83.4216 100.823 83.4229 100.897 83.4229C101.73 83.4241 102.483 83.2172 102.995 82.9094C103.515 82.596 103.76 82.2173 103.756 81.8707H103.759C103.759 81.6552 103.933 81.4809 104.147 81.4809C104.361 81.4809 104.539 81.6552 104.539 81.8707C104.534 82.5978 104.051 83.1901 103.396 83.5793C102.733 83.9739 101.858 84.2024 100.897 84.2024C100.37 84.2024 99.8697 84.134 99.4147 84.0066C98.9603 84.134 98.4578 84.2024 97.932 84.2036C96.9709 84.2024 96.0972 83.9739 95.4341 83.5793ZM98.3649 81.4587C98.1124 81.6121 98.033 81.7697 98.0367 81.8707C98.0342 82.2167 98.2793 82.596 98.799 82.9094C98.9769 83.0171 99.1856 83.1119 99.4159 83.1901C99.6456 83.1119 99.8537 83.0171 100.032 82.9094C100.551 82.596 100.797 82.2173 100.794 81.8707C100.798 81.7697 100.719 81.6121 100.466 81.4587C100.221 81.3116 99.8407 81.2044 99.4159 81.2044C99.4122 81.2044 99.411 81.2044 99.4085 81.2044C98.9861 81.2044 98.6099 81.3116 98.3649 81.4587Z" fill="black"/>
<path d="M99.4165 97.6781C98.0896 97.6781 96.8243 97.2643 95.684 96.5248C95.564 96.4466 95.5301 96.2853 95.6077 96.1652C95.6865 96.0439 95.8478 96.0101 95.9679 96.0877C97.0374 96.781 98.198 97.1565 99.4171 97.1565C100.634 97.1565 101.792 96.7797 102.862 96.0877H102.863C102.983 96.0088 103.145 96.0439 103.223 96.164C103.302 96.2847 103.267 96.446 103.146 96.5242C102.006 97.2631 100.745 97.6781 99.4196 97.6781C99.4184 97.6781 99.4165 97.6781 99.4165 97.6781Z" fill="black"/>
<path fill-rule="evenodd" clip-rule="evenodd" d="M95.0991 87.871C94.0869 87.871 93.2649 88.693 93.2649 89.7052C93.2649 89.7902 93.196 89.8591 93.1109 89.8591C93.0259 89.8591 92.957 89.7902 92.957 89.7052C92.957 88.523 93.9169 87.5631 95.0991 87.5631C96.2814 87.5631 97.2406 88.5224 97.2406 89.7052C97.2406 89.7902 97.1717 89.8591 97.0866 89.8591C97.0016 89.8591 96.9327 89.7902 96.9327 89.7052C96.9327 88.6924 96.1113 87.871 95.0991 87.871Z" fill="black"/>
<path d="M96.0929 90.6991C96.0929 90.9737 95.9814 91.2218 95.8017 91.4022C95.6206 91.5814 95.3725 91.6929 95.0985 91.6929C94.8245 91.6929 94.5758 91.5814 94.396 91.4022C94.2156 91.2218 94.1047 90.9743 94.1047 90.6991C94.1047 90.4239 94.2156 90.1757 94.396 89.9959C94.5758 89.8162 94.8239 89.7047 95.0985 89.7047C95.3719 89.7047 95.6206 89.8162 95.8017 89.9959C95.9821 90.1763 96.0929 90.4245 96.0929 90.6991Z" fill="black"/>
<path fill-rule="evenodd" clip-rule="evenodd" d="M103.732 87.871C102.72 87.871 101.898 88.693 101.898 89.7052C101.898 89.7902 101.829 89.8591 101.744 89.8591C101.659 89.8591 101.59 89.7902 101.59 89.7052C101.59 88.523 102.55 87.5631 103.732 87.5631C104.915 87.5631 105.874 88.5224 105.874 89.7052C105.874 89.7902 105.805 89.8591 105.72 89.8591C105.635 89.8591 105.566 89.7902 105.566 89.7052C105.566 88.6924 104.745 87.871 103.732 87.871Z" fill="black"/>
<path d="M104.726 90.6991C104.726 90.9737 104.614 91.2218 104.435 91.4022C104.254 91.5814 104.006 91.6929 103.731 91.6929C103.457 91.6929 103.209 91.5814 103.029 91.4022C102.849 91.2218 102.738 90.9743 102.738 90.6991C102.738 90.4239 102.849 90.1757 103.029 89.9959C103.209 89.8162 103.457 89.7047 103.731 89.7047C104.006 89.7047 104.254 89.8162 104.435 89.9959C104.615 90.1763 104.726 90.4245 104.726 90.6991Z" fill="black"/>
<path d="M99.4159 120.191L95.0603 119.328L98.4203 120.388L99.4159 120.191Z" fill="black"/>
<path d="M99.4159 114.768L103.771 116.545L100.206 114.446L99.4159 114.768Z" fill="black"/>
<path d="M99.4153 110.025C99.635 110.025 99.813 109.847 99.813 109.627C99.813 109.408 99.635 109.23 99.4153 109.23C99.1956 109.23 99.0175 109.408 99.0175 109.627C99.0175 109.847 99.1956 110.025 99.4153 110.025Z" fill="black"/>
<path d="M118.168 105.391L109.87 98.9322C109.798 98.8768 109.725 98.8233 109.651 98.7709C111.323 96.8844 112.462 94.544 112.891 91.9925C113.73 91.2616 114.255 90.1884 114.255 89.0105C114.255 87.6375 113.552 86.4258 112.489 85.7134C110.76 80.0254 105.481 76.0361 99.4159 76.0361V78.6388C104.826 78.6388 109.328 82.5233 110.289 87.6547V87.6486C111.042 87.6486 111.653 88.2581 111.653 89.0112C111.653 89.7038 111.131 90.2703 110.462 90.3559C110.202 94.8463 107.266 98.6182 103.225 100.1C103.499 100.192 103.766 100.296 104.028 100.407H106.498L106.491 100.409C106.52 100.409 106.547 100.406 106.575 100.406C107.215 100.406 107.802 100.624 108.271 100.989L108.274 100.987L116.573 107.442L116.572 107.444C117.221 107.95 117.642 108.739 117.642 109.627C117.642 111.155 116.403 112.394 114.875 112.394C114.318 112.394 113.803 112.227 113.368 111.945C113.87 112.574 114.172 113.371 114.172 114.239C114.172 116.03 112.896 117.521 111.204 117.856V117.858L108.096 118.473C108.431 118.806 108.639 119.263 108.639 119.772C108.639 120.79 107.812 121.617 106.794 121.617C106.672 121.617 106.55 121.604 106.434 121.58L99.4171 120.191V122.844L105.928 124.135C106.213 124.19 106.505 124.219 106.794 124.219C108.993 124.219 110.825 122.615 111.18 120.516L111.71 120.41C114.507 119.856 116.574 117.472 116.761 114.655C118.794 113.891 120.244 111.925 120.244 109.627C120.243 107.961 119.487 106.416 118.168 105.391Z" fill="black"/>
<path d="M80.663 105.391L88.9616 98.9326C89.033 98.8771 89.1057 98.8236 89.1796 98.7712C87.5085 96.8847 86.3682 94.5443 85.9397 91.9928C85.1011 91.2619 84.5765 90.1887 84.5765 89.0109C84.5765 87.6378 85.2784 86.4261 86.3417 85.7137C88.0707 80.0257 93.3498 76.0361 99.4159 76.0361V78.6388C94.0056 78.6388 89.5028 82.5237 88.5423 87.6551V87.6489C87.7893 87.6489 87.1791 88.2585 87.1791 89.0115C87.1791 89.7042 87.7006 90.2706 88.3699 90.3562C88.6297 94.8467 91.5655 98.6185 95.6071 100.101C95.3331 100.192 95.0658 100.296 94.8029 100.407H92.3327L92.3407 100.41C92.3117 100.409 92.2847 100.406 92.2563 100.406C91.6166 100.406 91.0298 100.625 90.5606 100.989L90.5582 100.987L82.2589 107.442L82.2608 107.444C81.6106 107.95 81.19 108.74 81.19 109.628C81.19 111.155 82.4288 112.394 83.9571 112.394C84.5137 112.394 85.029 112.228 85.4637 111.945C84.9619 112.574 84.6602 113.371 84.6602 114.239C84.6602 116.03 85.936 117.522 87.6286 117.857V117.858L90.7355 118.473C90.4018 118.806 90.193 119.264 90.193 119.772C90.193 120.791 91.0193 121.617 92.0377 121.617C92.1603 121.617 92.2816 121.604 92.3979 121.581L99.4153 120.191V122.845L92.9034 124.135C92.6184 124.191 92.3271 124.219 92.0377 124.219C89.839 124.219 88.0066 122.616 87.652 120.516L87.1218 120.411C84.3246 119.856 82.2583 117.472 82.0711 114.656C80.038 113.891 78.5874 111.925 78.5874 109.628C78.5874 107.961 79.3435 106.417 80.663 105.391Z" fill="black"/>
</svg>
