<svg width="200" height="200" viewBox="0 0 200 200" fill="none" xmlns="http://www.w3.org/2000/svg">
<g clip-path="url(#clip0)">
<path d="M109.865 108.006L110.676 114.015L113.483 108.006H115.194L111.269 116.033H109.492L108.253 108.006H109.865Z" fill="black"/>
<path d="M115.196 110.21H116.731L115.81 116.032H114.275L115.196 110.21ZM115.415 108.379C115.437 108.214 115.547 108.105 115.722 108.105H116.873C117.038 108.105 117.103 108.226 117.082 108.379L116.928 109.354C116.906 109.519 116.796 109.606 116.643 109.606H115.491C115.337 109.606 115.251 109.507 115.272 109.354L115.415 108.379Z" fill="black"/>
<path d="M117.823 110.21H119.116L119.236 110.944C119.708 110.549 120.311 110.155 121.034 110.155C121.287 110.155 121.528 110.155 121.671 110.221L121.44 111.701C121.287 111.691 120.936 111.669 120.606 111.669C119.971 111.669 119.488 111.779 119.017 112.316L118.435 116.033H116.9L117.823 110.21Z" fill="black"/>
<path d="M124.349 110.1C125.183 110.056 126.509 110.243 127.069 110.78L126.302 116.021H125.117L124.888 115.419C124.603 115.781 123.823 116.099 123.122 116.099C121.992 116.099 121.136 115.178 121.597 112.776C122.058 110.375 123.319 110.155 124.349 110.1ZM123.681 114.793C124.317 114.793 124.668 114.585 125.019 114.245L125.435 111.437C125.096 111.317 124.591 111.262 124.273 111.34C123.78 111.437 123.32 111.591 123.089 113.061C122.924 114.157 123.001 114.793 123.681 114.793Z" fill="black"/>
<path d="M128.643 107.447H130.178L129.18 113.718C129.036 114.629 129.201 114.739 129.52 114.859C129.52 114.859 130.112 115.078 130.155 115.078L130.012 116.032H129.026C127.984 116.032 127.37 115.451 127.61 113.96L128.643 107.447Z" fill="black"/>
<path d="M135.43 108.006H137.524L138.007 113.489L140.188 108.006H142.349L141.833 116.033H140.308L140.693 110.671L138.522 116.033H136.778L136.285 110.671L134.992 116.033H133.446L135.43 108.006Z" fill="black"/>
<path d="M145.719 110.1C146.553 110.056 147.879 110.243 148.439 110.78L147.672 116.021H146.486L146.256 115.419C145.973 115.781 145.192 116.099 144.492 116.099C143.362 116.099 142.506 115.178 142.966 112.776C143.427 110.375 144.689 110.155 145.719 110.1ZM145.051 114.793C145.686 114.793 146.037 114.585 146.387 114.245L146.805 111.437C146.467 111.317 145.961 111.262 145.643 111.34C145.15 111.437 144.69 111.591 144.459 113.061C144.294 114.157 144.37 114.793 145.051 114.793Z" fill="black"/>
<path d="M149.628 110.21H150.923L151.042 110.944C151.513 110.549 152.116 110.155 152.84 110.155C153.094 110.155 153.333 110.155 153.477 110.221L153.246 111.701C153.094 111.691 152.741 111.669 152.411 111.669C151.776 111.669 151.292 111.779 150.823 112.316L150.24 116.033H148.707L149.628 110.21Z" fill="black"/>
<path d="M154.453 107.458H155.988L155.209 112.327C156.065 112.019 157.106 111.153 157.38 110.211H159.015C158.61 111.647 157.556 112.524 156.876 112.875L158.663 116.033H156.954L155.475 113.358L155.057 113.369L154.628 116.033H153.093L154.453 107.458Z" fill="black"/>
<path d="M162.149 110.101C163.399 110.089 164.517 110.441 164.428 111.778C164.253 114.432 161.041 113.917 160.634 113.752C160.482 114.64 160.701 114.871 161.48 114.882C162.127 114.904 163.179 114.805 163.858 114.696L163.671 115.793C162.796 116.056 161.851 116.188 160.633 116.11C159.241 116.045 158.792 114.871 159.187 112.745C159.527 110.956 160.009 110.112 162.149 110.101ZM162.851 111.986C162.948 111.449 162.652 111.329 162.038 111.34C160.997 111.351 160.898 112.019 160.755 112.743C160.755 112.744 162.663 113.062 162.851 111.986Z" fill="black"/>
<path d="M164.935 110.518L165.923 110.199L166.437 108.577H167.721L167.457 110.199H168.763L168.576 111.373H167.271L166.909 113.708C166.766 114.63 166.922 114.75 167.238 114.87C167.238 114.87 167.83 115.078 167.886 115.078L167.732 116.044H166.679C165.713 116.044 165.1 115.441 165.33 113.949L165.737 111.373H164.803L164.935 110.518Z" fill="black"/>
<path d="M169.381 110.21H170.915L169.995 116.032H168.459L169.381 110.21ZM169.601 108.379C169.621 108.214 169.732 108.105 169.908 108.105H171.058C171.222 108.105 171.29 108.226 171.267 108.379L171.113 109.354C171.092 109.519 170.98 109.606 170.828 109.606H169.676C169.524 109.606 169.436 109.507 169.457 109.354L169.601 108.379Z" fill="black"/>
<path d="M172.009 110.21H173.237L173.444 110.835C174.003 110.473 174.519 110.111 175.407 110.111C176.766 110.111 176.997 111.043 176.822 112.151L176.207 116.032H174.671L175.286 112.129C175.374 111.56 175.153 111.34 174.771 111.34C174.156 111.34 173.784 111.504 173.279 111.844L172.622 116.032H171.086L172.009 110.21Z" fill="black"/>
<path d="M177.042 117.732H179.509C180.057 117.732 180.495 117.393 180.606 116.691L180.77 115.627C180.288 115.924 179.751 116.044 179.258 116.044C177.548 116.044 177.251 114.728 177.558 112.786C177.865 110.824 178.809 110.111 180.113 110.111C181.274 110.111 182.613 110.286 183.151 110.441L182.131 116.866C181.89 118.368 181.023 119.18 179.488 119.015L176.878 118.752L177.042 117.732ZM179.675 114.838C180.167 114.838 180.43 114.793 180.935 114.597L181.461 111.285H180.288C179.411 111.285 179.191 112.37 179.093 112.952C178.938 113.982 178.808 114.838 179.675 114.838Z" fill="black"/>
<path d="M62.2841 91.0095C62.8273 87.611 65.2351 86.7607 67.3595 86.7607C67.3595 86.7607 71.8198 86.7607 74.5347 87.1389L73.9435 90.9851H68.1142C66.8866 90.9851 66.769 91.6695 66.6742 92.3074L66.5092 93.3447L72.3385 93.6045L71.7488 97.4056L65.8248 97.618L64.8096 104.037H60.2308L62.2841 91.0095Z" fill="black"/>
<path d="M78.9775 91.2686C80.9132 91.2686 83.7213 91.5749 84.9252 92.7314L83.2729 103.99H79.662L78.9538 102.809C78.387 103.848 76.9005 104.155 75.65 104.155C73.4072 104.155 71.6136 101.417 72.6288 96.6723C73.738 91.4336 76.5231 91.2686 78.9775 91.2686ZM77.8447 100.496C78.8362 100.496 79.3083 100.048 79.3793 99.2696L80.0164 94.7855C79.8277 94.6198 79.2373 94.5732 78.7659 94.6908C78.0815 94.8558 77.397 95.1858 77.1136 97.2399C76.8768 98.8922 76.6645 100.496 77.8447 100.496Z" fill="black"/>
<path d="M85.0314 100.591H90.4833C90.8843 100.591 90.9554 100.425 91.0027 100.19L91.0264 100.072C91.0738 99.7891 91.0027 99.647 90.6254 99.647H88.3826C86.1635 99.647 84.8419 98.0184 85.2193 95.5884L85.4087 94.5022C85.7151 92.5665 86.8013 91.387 89.232 91.387C92.6069 91.387 95.5815 91.316 96.1949 92.2357L95.7702 94.9261H90.507C90.2007 94.9261 89.9875 94.9261 89.9173 95.3516L89.8936 95.4937C89.8225 95.8711 90.083 95.8711 90.3657 95.8711H92.7261C95.3936 95.8711 96.0299 97.8771 95.7236 99.7417L95.5112 101.134C95.1102 103.706 93.3869 104.155 91.8766 104.155C88.5018 104.155 85.3156 104.249 84.6067 103.282L85.0314 100.591Z" fill="black"/>
<path d="M96.544 92.3782L98.4553 91.4806L99.6821 87.9873H103.6L103.034 91.4806H105.135L104.639 94.6439H102.539L101.901 98.6085C101.642 100.284 101.924 100.614 102.397 100.898C102.397 100.898 103.317 101.393 103.482 101.393L103.058 104.06H100.225C98.3369 104.06 96.6609 102.879 97.1804 99.5527L97.9595 94.6431H96.1896L96.544 92.3782Z" fill="black"/>
<path d="M112.053 86.7603H119.323C123.005 86.7603 124.232 89.026 123.76 91.9532C123.524 93.4168 122.391 94.927 120.668 95.0684C122.391 95.3518 123.335 97.1691 123.028 99.4119C122.391 103.896 120.338 104.038 116.703 104.038H109.316L112.053 86.7603ZM117.081 100.167C117.978 100.167 118.332 99.5532 118.497 98.5151C118.638 97.6412 118.52 96.8146 117.599 96.8146H115.027L114.508 100.167H117.081ZM117.954 93.18C118.662 93.18 119.11 92.6369 119.205 91.9769C119.37 90.9388 118.874 90.6309 118.355 90.6309H116.018L115.617 93.18H117.954Z" fill="black"/>
<path d="M130.038 91.2686C131.973 91.2686 134.782 91.5749 135.986 92.7314L134.333 103.99H130.722L130.013 102.809C129.448 103.848 127.96 104.155 126.709 104.155C124.467 104.155 122.674 101.417 123.689 96.6723C124.798 91.4336 127.584 91.2686 130.038 91.2686ZM128.906 100.496C129.896 100.496 130.369 100.048 130.44 99.2696L131.077 94.7855C130.888 94.6198 130.297 94.5732 129.826 94.6908C129.142 94.8558 128.456 95.1858 128.173 97.2399C127.938 98.8922 127.725 100.496 128.906 100.496Z" fill="black"/>
<path d="M137.35 91.5051H141.173L141.74 92.7319C142.637 92.0001 143.509 91.292 145.422 91.292C148.679 91.292 148.725 93.369 148.302 96.0129L147.027 104.038H142.449L143.723 95.9181C143.889 94.9266 143.676 94.6913 143.156 94.6913C142.283 94.6913 141.67 94.9274 141.291 95.5652L139.947 104.038H135.368L137.35 91.5051Z" fill="black"/>
<path d="M155.16 91.2686C157.095 91.2686 159.904 91.5749 161.107 92.7314L159.455 103.99H155.844L155.135 102.809C154.569 103.848 153.081 104.155 151.831 104.155C149.588 104.155 147.795 101.417 148.81 96.6723C149.92 91.4336 152.704 91.2686 155.16 91.2686ZM154.026 100.496C155.017 100.496 155.49 100.048 155.562 99.2696L156.197 94.7855C156.009 94.6198 155.42 94.5732 154.947 94.6908C154.263 94.8558 153.579 95.1858 153.295 97.2399C153.059 98.8922 152.846 100.496 154.026 100.496Z" fill="black"/>
<path d="M162.47 91.5051H166.294L166.861 92.7319C167.758 92.0001 168.63 91.292 170.542 91.292C173.8 91.292 173.846 93.369 173.422 96.0129L172.147 104.038H167.569L168.844 95.9181C169.009 94.9266 168.797 94.6913 168.278 94.6913C167.403 94.6913 166.79 94.9274 166.413 95.5652L165.067 104.038H160.49L162.47 91.5051Z" fill="black"/>
<path d="M180.282 91.2686C182.217 91.2686 185.025 91.5749 186.229 92.7314L184.577 103.99H180.965L180.258 102.809C179.691 103.848 178.204 104.155 176.953 104.155C174.71 104.155 172.917 101.417 173.932 96.6723C175.042 91.4336 177.826 91.2686 180.282 91.2686ZM179.148 100.496C180.14 100.496 180.611 100.048 180.682 99.2696L181.319 94.7855C181.131 94.6198 180.541 94.5732 180.068 94.6908C179.385 94.8558 178.699 95.1858 178.417 97.2399C178.181 98.8922 177.968 100.496 179.148 100.496Z" fill="black"/>
<path d="M65.3183 72.3955C64.9876 71.9036 64.5514 71.4154 64.0976 70.9052C63.6538 70.4109 63.2031 69.9274 62.9992 69.6936C62.6065 69.2628 62.2169 69.149 61.9434 69.0772C61.6608 69.0115 61.4347 69.0008 61.2124 69C60.2728 69.0115 59.2736 69.2452 58.2844 69.4881C57.3143 69.7333 56.4312 70.003 56.0569 70.1168C55.2823 70.3972 55.0707 70.799 54.8538 71.0778C54.5131 71.5965 54.3007 72.1129 54.0387 72.7041C54.0173 72.7538 53.9928 72.808 53.9715 72.8592L34.664 74.8117L51.5935 76.6191C51.4995 76.6779 51.4071 76.7298 51.3246 76.7566C49.9343 77.2661 47.415 78.1408 44.6894 80.1162C43.9667 80.6387 43.228 81.246 42.4878 81.9365L24.9786 83.6416L39.6034 85.1426C38.5416 86.5382 37.5149 88.1569 36.5684 90.0529C36.4111 90.3676 36.272 90.6877 36.1299 91.0078L17.8759 92.4729L35.0544 93.9121C34.4815 95.8257 34.1415 97.7904 34.0017 99.7643L13 101.303L33.936 102.899C33.9956 104.798 34.2194 106.685 34.5838 108.53L17.8759 110.133L35.4119 111.904C36.0138 113.934 36.7762 115.879 37.6593 117.694L24.9786 119.05L39.2871 120.67C40.9066 123.299 42.9462 125.302 45.0958 126.821L34.664 127.873L50.042 129.51C53.1556 130.791 56.0279 131.33 57.7963 131.588C58.1454 131.639 58.4784 131.664 58.8016 131.664C58.8214 131.664 58.842 131.665 58.8627 131.665C60.2866 131.665 61.534 131.084 62.2757 130.205C63.0358 129.319 63.3085 128.284 63.3116 127.368C63.2925 126.615 63.1733 125.909 62.6065 125.196C62.5813 125.159 62.5813 125.172 62.553 125.08C62.4308 124.822 62.5347 123.535 62.21 121.643C62.0519 120.814 61.7204 120.018 61.2888 119.097C59.9963 116.377 57.6916 112.631 55.7422 108.227C54.8652 106.246 54.5146 104.261 54.5146 102.296C54.51 98.9072 55.5848 95.5805 56.8338 92.7991C57.9934 90.2126 58.3356 88.0714 58.3333 86.4275C58.3371 84.9478 58.0491 83.8302 57.9727 83.3879C57.9238 83.1106 57.8956 82.8922 57.8971 82.7272C57.9047 82.485 57.9231 82.3735 58.0644 82.1405C58.2118 81.9121 58.5525 81.5431 59.3172 81.0978C60.7403 80.2636 62.0229 79.1292 63.0442 78.1117C63.553 77.603 63.9915 77.1232 64.3383 76.7222C64.6881 76.3128 64.9265 76.0156 65.1075 75.7482C65.1824 75.6337 65.2778 75.5237 65.4459 75.28C65.6033 75.0546 65.8699 74.5688 65.866 73.9783C65.8546 73.2793 65.5834 72.8103 65.3183 72.3955ZM62.4262 73.9615C62.4018 74.0012 62.1879 74.2831 61.8991 74.6169C61.023 75.6451 59.2584 77.4135 57.6954 78.3126C56.6382 78.9306 55.869 79.6051 55.361 80.3897C54.8484 81.1688 54.6689 82.0351 54.6765 82.7272C54.6781 83.213 54.7468 83.624 54.8018 83.9486C54.924 84.614 55.1097 85.3145 55.1135 86.4282C55.1104 87.6344 54.8797 89.2722 53.8935 91.4829C52.5468 94.4988 51.2971 98.2312 51.294 102.296C51.2925 104.645 51.721 107.105 52.7989 109.534C54.1662 112.618 55.6772 115.36 56.8773 117.582C57.4762 118.691 57.9987 119.671 58.3791 120.475C58.7611 121.274 58.9925 121.922 59.0407 122.218C59.2202 123.209 59.2202 123.933 59.266 124.696C59.2912 125.078 59.3256 125.481 59.4478 125.931C59.5578 126.345 59.7656 126.797 60.075 127.187C60.0826 127.226 60.0918 127.291 60.0902 127.367C60.0941 127.62 59.9948 127.928 59.8435 128.092C59.6861 128.249 59.5089 128.422 58.8038 128.439C58.6457 128.439 58.4647 128.427 58.2592 128.397C56.464 128.138 53.4558 127.562 50.3766 126.145C47.292 124.726 44.1699 122.496 41.9844 118.906C39.1359 114.239 37.1337 108.003 37.1406 101.921C37.1406 98.2824 37.8441 94.7073 39.4529 91.4952C41.6689 87.0691 44.244 84.4238 46.5831 82.7272C48.932 81.0306 51.0259 80.2988 52.436 79.7839C53.5383 79.3752 54.332 78.6159 54.9424 77.826C55.8544 76.6328 56.4312 75.2807 56.8888 74.2411C57.1004 73.7476 57.2875 73.3229 57.4189 73.0723C57.8429 72.9463 58.4479 72.7713 59.0758 72.6125C59.7618 72.4329 60.5241 72.2847 60.955 72.2374C61.1818 72.4872 61.4431 72.7698 61.7021 73.0586C61.9839 73.3679 62.2666 73.7002 62.4491 73.9294C62.44 73.9401 62.4331 73.95 62.4262 73.9615Z" fill="black"/>
</g>
<defs>
<clipPath id="clip0">
<rect width="173.229" height="62.6637" fill="white" transform="translate(13 69)"/>
</clipPath>
</defs>
</svg>
