<svg width="200" height="200" viewBox="0 0 200 200" fill="none" xmlns="http://www.w3.org/2000/svg">
<g clip-path="url(#clip0)">
<path d="M92.1403 73.561C92.1403 74.2659 92.1403 74.9717 92.1403 75.6765C91.1833 75.7798 90.2262 75.8822 89.2692 75.982C89.2692 78.4216 89.2692 80.8612 89.2692 83.3008C88.5144 83.3795 87.7595 83.4574 87.0047 83.5335C87.0047 81.0939 87.0047 78.6543 87.0047 76.2147C86.0612 76.3103 85.1177 76.4034 84.1742 76.494C84.1742 75.7891 84.1742 75.0834 84.1742 74.3785C86.8304 74.1238 89.4858 73.8479 92.1403 73.561Z" fill="black"/>
<path d="M104.093 72.2334C104.093 75.3779 104.093 78.5232 104.093 81.6677C103.338 81.7515 102.583 81.8352 101.828 81.9199C101.828 80.6979 101.828 79.4752 101.828 78.2533C100.651 78.3844 99.4743 78.5173 98.2973 78.6484C98.2973 79.8704 98.2973 81.0931 98.2973 82.315C97.5425 82.3997 96.7876 82.4834 96.0328 82.5672C96.0328 79.4227 96.0328 76.2774 96.0328 73.1329C96.7876 73.0491 97.5425 72.9645 98.2973 72.8807C98.2973 74.0984 98.2973 75.3153 98.2973 76.5329C99.4743 76.4009 100.651 76.2689 101.828 76.1378C101.828 74.9201 101.828 73.7024 101.828 72.4856C102.583 72.4009 103.338 72.3172 104.093 72.2334Z" fill="black"/>
<path d="M115.947 78.3098C115.947 79.0147 115.947 79.7205 115.947 80.4262C113.634 80.647 111.319 80.8848 109.005 81.1319C109.005 77.9866 109.005 74.8421 109.005 71.6976C111.292 71.4531 113.579 71.2187 115.865 70.9995C115.865 71.7044 115.865 72.4101 115.865 73.115C114.333 73.2614 112.801 73.4154 111.269 73.5745C111.269 74.0907 111.269 74.6077 111.269 75.1247C112.469 75.0003 113.669 74.8785 114.869 74.7617C114.869 75.4218 114.869 76.0826 114.869 76.7435C113.669 76.8603 112.469 76.9822 111.269 77.1065C111.269 77.6633 111.269 78.2201 111.269 78.7778C112.828 78.6153 114.388 78.4588 115.947 78.3098Z" fill="black"/>
<path d="M72.5711 122.451C72.3426 121.63 71.614 121.285 70.9413 121.323C70.2669 121.361 69.8768 121.719 69.8768 122.098C69.8768 122.716 70.8186 122.896 71.9644 123.244C73.3665 123.671 74.8355 124.361 74.8355 125.978C74.8355 127.703 73.3538 129.04 71.1562 129.168C69.188 129.283 67.7867 128.251 67.1681 126.511C67.8907 126.288 68.6134 126.061 69.3361 125.831C69.5789 126.532 70.2525 127.213 71.251 127.154C72.0591 127.106 72.4365 126.704 72.4365 126.246C72.4365 125.491 71.3314 125.373 69.9843 124.934C68.8512 124.564 67.5446 124.001 67.5446 122.343C67.5446 120.874 69.0272 119.479 71.0758 119.36C72.8816 119.255 74.3117 120.259 74.7551 121.711C74.0257 121.961 73.2988 122.208 72.5711 122.451Z" fill="black"/>
<path d="M86.2711 118.312C86.2711 119.017 86.2711 119.723 86.2711 120.428C85.314 120.524 84.3569 120.617 83.399 120.708C83.399 123.147 83.399 125.587 83.399 128.026C82.6442 128.097 81.8903 128.166 81.1355 128.233C81.1355 125.793 81.1355 123.354 81.1355 120.915C80.1911 121 79.2476 121.08 78.3032 121.157C78.3032 120.452 78.3032 119.746 78.3032 119.041C80.9594 118.824 83.6157 118.578 86.2711 118.312Z" fill="black"/>
<path d="M98.4022 117.008C98.4022 118.755 98.4022 120.503 98.4022 122.251C98.4022 125.081 96.7301 126.82 94.238 127.094C91.7299 127.37 90.0714 125.994 90.0714 123.163C90.0714 121.416 90.0714 119.667 90.0714 117.92C90.827 117.84 91.5818 117.759 92.3375 117.677C92.3375 119.407 92.3375 121.137 92.3375 122.867C92.3375 124.484 92.9975 125.114 94.238 124.977C95.4769 124.841 96.1378 124.067 96.1378 122.45C96.1378 120.72 96.1378 118.99 96.1378 117.26C96.8926 117.176 97.6474 117.092 98.4022 117.008Z" fill="black"/>
<path d="M107.307 116.019C110.004 115.725 112.187 117.43 112.187 120.262C112.187 123.092 110.004 125.161 107.307 125.454C105.933 125.603 104.557 125.755 103.183 125.909C103.183 122.763 103.183 119.619 103.183 116.474C104.557 116.32 105.933 116.168 107.307 116.019ZM107.307 123.338C108.656 123.191 109.828 122.124 109.828 120.506C109.828 118.889 108.656 117.988 107.307 118.135C106.687 118.202 106.068 118.27 105.449 118.338C105.449 120.072 105.449 121.806 105.449 123.54C106.068 123.473 106.687 123.406 107.307 123.338Z" fill="black"/>
<path d="M116.537 124.509C116.537 121.363 116.537 118.219 116.537 115.074C117.293 115.003 118.047 114.934 118.802 114.866C118.802 118.011 118.802 121.156 118.802 124.301C118.047 124.368 117.292 124.438 116.537 124.509Z" fill="black"/>
<path d="M128.048 113.977C130.757 113.811 132.954 115.788 132.954 118.631C132.954 121.475 130.757 123.623 128.048 123.79C125.338 123.955 123.156 122.067 123.156 119.223C123.156 116.379 125.338 114.141 128.048 113.977ZM128.048 121.551C129.585 121.458 130.595 120.318 130.595 118.74C130.595 117.15 129.586 116.121 128.048 116.214C126.524 116.307 125.514 117.458 125.514 119.048C125.514 120.626 126.525 121.644 128.048 121.551Z" fill="black"/>
<path d="M38.9634 89.6815C45.6636 90.5498 51.0903 95.4839 51.0903 102.533C51.0903 109.553 45.6636 113.999 38.9634 113.131C35.5472 112.688 32.1303 112.108 28.7142 111.365C28.7142 103.548 28.7142 95.7319 28.7142 87.9155C32.1303 88.6585 35.5464 89.239 38.9634 89.6815ZM38.9634 107.871C42.3135 108.308 45.2278 106.185 45.2278 102.167C45.2278 98.1461 42.3135 95.379 38.9634 94.9415C37.4224 94.7418 35.8815 94.5142 34.3414 94.2561C34.3414 98.5658 34.3414 102.876 34.3414 107.185C35.8815 107.443 37.4224 107.671 38.9634 107.871Z" fill="black"/>
<path d="M74.0706 110.047C70.9777 110.259 67.8848 110.423 64.792 110.521C64.3452 111.764 63.8984 113.005 63.4516 114.245C61.4309 114.297 59.4101 114.319 57.3894 114.308C60.5153 106.509 63.642 98.6292 66.7678 90.6859C68.5432 90.614 70.3185 90.5218 72.0938 90.4126C75.2206 98.036 78.3473 105.607 81.4731 113.142C79.4524 113.323 77.4308 113.49 75.4101 113.637C74.9642 112.442 74.5174 111.244 74.0706 110.047ZM72.2614 105.241C71.7029 103.757 71.1452 102.271 70.5868 100.784C70.085 99.472 69.4816 97.3929 69.4486 97.3946C69.4376 97.3946 69.4258 97.3954 69.4148 97.3963C69.3809 97.398 68.7793 99.5397 68.2766 100.904C67.7181 102.448 67.1596 103.991 66.602 105.532C68.4882 105.456 70.3752 105.358 72.2614 105.241Z" fill="black"/>
<path d="M111.287 86.5195C111.287 94.3359 111.287 102.152 111.287 109.969C109.523 110.151 107.758 110.342 105.993 110.535C104.396 108.533 102.8 106.533 101.202 104.534C99.0597 101.826 95.911 97.7232 95.8771 97.7266C95.8661 97.7275 95.8551 97.7292 95.8433 97.73C95.8111 97.7334 95.8771 101.344 95.8771 106.47C95.8771 108.2 95.8771 109.931 95.8771 111.663C94.0019 111.871 92.1259 112.076 90.2507 112.275C90.2507 104.459 90.2507 96.6426 90.2507 88.8263C92.0151 88.6393 93.7785 88.4463 95.5429 88.2509C97.2065 90.2995 98.871 92.3456 100.535 94.3926C102.041 96.2322 105.625 100.894 105.658 100.891C105.669 100.891 105.68 100.89 105.691 100.888C105.726 100.884 105.658 96.7366 105.658 92.4827C105.658 90.6964 105.658 88.9092 105.658 87.1229C107.534 86.9172 109.41 86.7142 111.287 86.5195Z" fill="black"/>
<path d="M138.46 91.9468C137.388 90.6225 135.379 89.8313 133.537 89.905C129.651 90.0598 127.24 93.0173 127.24 96.8633C127.24 100.92 129.887 103.247 133.537 103.104C135.782 103.015 137.926 101.834 138.897 100.214C140.795 100.68 142.692 101.172 144.591 101.696C142.649 105.813 138.461 108.534 133.538 108.731C126.805 108.997 121.378 104.372 121.378 97.2931C121.378 90.235 126.805 84.6103 133.538 84.3446C138.161 84.1601 142.113 86.6479 144.19 90.4347C142.279 90.9094 140.37 91.4146 138.46 91.9468Z" fill="black"/>
<path d="M171.408 105.833C171.408 107.586 171.408 109.34 171.408 111.093C165.658 109.831 159.907 109.03 154.158 108.578C154.158 100.762 154.158 92.9453 154.158 85.1289C159.841 85.5757 165.525 86.3635 171.208 87.5998C171.208 89.3531 171.208 91.1065 171.208 92.8598C167.4 92.0314 163.592 91.4043 159.784 90.9465C159.784 92.2311 159.784 93.5148 159.784 94.7984C162.765 95.1572 165.747 95.6193 168.728 96.2006C168.728 97.8414 168.728 99.483 168.728 101.124C165.747 100.542 162.765 100.08 159.784 99.7216C159.784 101.107 159.784 102.491 159.784 103.876C163.659 104.342 167.533 104.983 171.408 105.833Z" fill="black"/>
<path d="M56.423 97.707C56.753 98.725 57.0822 99.7421 57.4122 100.758C58.4776 100.764 59.5438 100.759 60.6092 100.747C59.7469 101.384 58.8846 102.014 58.0232 102.638C58.3524 103.652 58.6815 104.666 59.0107 105.679C58.1476 105.055 57.2853 104.426 56.423 103.79C55.5599 104.406 54.6968 105.017 53.8336 105.622C54.1637 104.616 54.4928 103.61 54.8229 102.603C53.9597 101.959 53.0974 101.309 52.2352 100.653C53.3014 100.691 54.3676 100.719 55.433 100.736C55.763 99.7278 56.093 98.7174 56.423 97.707Z" fill="black"/>
<path d="M83.6537 96.3477C83.9829 97.3309 84.3129 98.3134 84.6421 99.295C85.7083 99.1917 86.7745 99.0851 87.8399 98.976C86.9767 99.691 86.1145 100.403 85.2522 101.114C85.5822 102.096 85.9122 103.077 86.2414 104.058C85.3783 103.518 84.516 102.975 83.6529 102.43C82.7897 103.138 81.9266 103.844 81.0635 104.548C81.3927 103.505 81.7218 102.461 82.051 101.417C81.1887 100.87 80.3265 100.32 79.4642 99.7672C80.5304 99.6766 81.5974 99.5818 82.6637 99.4828C82.9954 98.4378 83.3245 97.3927 83.6537 96.3477Z" fill="black"/>
<path d="M116.331 92.874C116.661 93.8573 116.991 94.8406 117.321 95.8239C118.387 95.7249 119.452 95.6301 120.518 95.5404C119.655 96.2394 118.793 96.9417 117.93 97.6466C118.26 98.6307 118.588 99.6149 118.918 100.6C118.055 100.05 117.193 99.5023 116.33 98.9574C115.467 99.6656 114.604 100.376 113.74 101.089C114.07 100.042 114.4 98.9954 114.731 97.9495C113.867 97.408 113.005 96.8689 112.142 96.3308C113.208 96.2216 114.275 96.115 115.341 96.0126C115.671 94.965 116.001 93.9191 116.331 92.874Z" fill="black"/>
<path d="M148.558 91.6514C148.888 92.6787 149.217 93.7076 149.547 94.7375C150.614 94.7882 151.679 94.85 152.744 94.9228C151.882 95.4897 151.02 96.0643 150.158 96.6456C150.488 97.6763 150.816 98.7087 151.146 99.7419C150.283 99.0649 149.42 98.3956 148.557 97.7339C147.694 98.3245 146.831 98.9228 145.968 99.5278C146.298 98.5225 146.628 97.5181 146.958 96.5136C146.095 95.8604 145.233 95.2139 144.37 94.5741C145.436 94.5919 146.502 94.6181 147.567 94.6554C147.898 93.6535 148.228 92.6516 148.558 91.6514Z" fill="black"/>
<path d="M168.892 121.627C168.498 121.55 168.18 121.169 168.18 120.777C168.18 120.381 168.498 120.125 168.892 120.203C169.663 120.354 170.435 120.514 171.206 120.682C171.6 120.767 171.921 121.156 171.921 121.551C171.921 121.944 171.6 122.191 171.206 122.106C170.435 121.938 169.663 121.778 168.892 121.627ZM163.7 120.725C163.304 120.665 162.987 120.299 162.987 119.906C162.987 119.51 163.304 119.24 163.7 119.301C164.565 119.432 165.431 119.572 166.295 119.723C166.689 119.791 167.01 120.165 167.01 120.561C167.01 120.954 166.689 121.215 166.295 121.148C165.431 120.996 164.566 120.856 163.7 120.725ZM158.507 120.045C158.112 120.001 157.795 119.648 157.795 119.256C157.795 118.86 158.112 118.576 158.507 118.62C159.373 118.716 160.238 118.82 161.104 118.933C161.496 118.985 161.816 119.345 161.816 119.741C161.816 120.133 161.496 120.409 161.104 120.357C160.237 120.245 159.373 120.141 158.507 120.045ZM153.315 119.571C152.919 119.543 152.601 119.202 152.601 118.809C152.601 118.413 152.919 118.118 153.315 118.146C154.18 118.209 155.045 118.28 155.91 118.359C156.302 118.395 156.623 118.742 156.623 119.138C156.623 119.531 156.302 119.819 155.91 119.784C155.045 119.705 154.18 119.634 153.315 119.571ZM148.121 119.284C147.727 119.268 147.408 118.938 147.408 118.546C147.408 118.15 147.727 117.844 148.121 117.859C148.986 117.892 149.852 117.932 150.717 117.98C151.11 118.002 151.43 118.338 151.43 118.734C151.43 119.127 151.11 119.427 150.717 119.405C149.852 119.357 148.986 119.317 148.121 119.284ZM142.926 119.165C142.532 119.162 142.214 118.841 142.214 118.448C142.214 118.052 142.532 117.737 142.926 117.74C143.792 117.747 144.658 117.76 145.524 117.779C145.916 117.788 146.236 118.113 146.236 118.509C146.236 118.902 145.916 119.213 145.524 119.204C144.658 119.185 143.792 119.172 142.926 119.165ZM137.734 119.197C137.342 119.205 137.021 118.893 137.021 118.5C137.021 118.105 137.342 117.78 137.734 117.773C138.599 117.756 139.466 117.745 140.331 117.739C140.724 117.737 141.044 118.052 141.044 118.448C141.044 118.841 140.724 119.162 140.331 119.164C139.466 119.169 138.599 119.18 137.734 119.197Z" fill="black"/>
<path d="M59.873 125.362C59.4787 125.365 59.1588 125.046 59.1588 124.655C59.1588 124.26 59.4787 123.939 59.873 123.935C60.6439 123.929 61.4148 123.918 62.1848 123.903C62.5792 123.896 62.8999 124.209 62.8999 124.603C62.8999 124.995 62.58 125.322 62.1848 125.329C61.4148 125.346 60.6439 125.356 59.873 125.362ZM54.6807 125.329C54.2847 125.321 53.964 124.992 53.964 124.6C53.964 124.206 54.2847 123.894 54.6807 123.902C55.5447 123.92 56.4095 123.932 57.2743 123.938C57.6687 123.94 57.9894 124.261 57.9894 124.656C57.9894 125.047 57.6687 125.366 57.2743 125.364C56.4104 125.359 55.5455 125.348 54.6807 125.329ZM49.4876 125.138C49.0933 125.117 48.7726 124.778 48.7726 124.386C48.7726 123.992 49.0933 123.69 49.4876 123.711C50.3533 123.758 51.2181 123.796 52.0837 123.828C52.4747 123.842 52.7954 124.173 52.7954 124.567C52.7954 124.959 52.4747 125.269 52.0837 125.255C51.2181 125.222 50.3533 125.184 49.4876 125.138ZM44.2936 124.769C43.8993 124.733 43.5786 124.383 43.5786 123.992C43.5786 123.598 43.8993 123.308 44.2936 123.342C45.1593 123.419 46.0249 123.489 46.8906 123.55C47.2824 123.577 47.6031 123.919 47.6031 124.313C47.6031 124.705 47.2824 125.003 46.8906 124.975C46.0249 124.915 45.1593 124.846 44.2936 124.769ZM39.1013 124.205C38.7053 124.155 38.3888 123.792 38.3888 123.401C38.3888 123.006 38.7053 122.729 39.1013 122.779C39.9661 122.89 40.8318 122.993 41.6975 123.087C42.0893 123.129 42.4091 123.483 42.4091 123.877C42.4091 124.269 42.0893 124.556 41.6975 124.513C40.8327 124.419 39.967 124.317 39.1013 124.205ZM33.9073 123.429C33.513 123.362 33.1923 122.985 33.1923 122.593C33.1923 122.199 33.513 121.936 33.9073 122.004C34.7722 122.152 35.6378 122.29 36.5035 122.419C36.8953 122.477 37.216 122.844 37.216 123.238C37.216 123.63 36.8953 123.904 36.5035 123.845C35.6378 123.715 34.7722 123.577 33.9073 123.429ZM28.7142 122.422C28.3199 122.335 28.0017 121.944 28.0017 121.552C28.0017 121.158 28.319 120.909 28.7142 120.995C29.5799 121.183 30.4455 121.361 31.3112 121.529C31.703 121.605 32.0229 121.986 32.0229 122.379C32.0229 122.771 31.703 123.031 31.3112 122.955C30.4455 122.788 29.5799 122.609 28.7142 122.422Z" fill="black"/>
<path d="M77.0585 80.4329C76.6642 80.4634 76.3452 80.1672 76.3452 79.7746C76.3452 79.3794 76.6642 79.035 77.0585 79.0045C77.771 78.9487 78.4827 78.8911 79.1952 78.8311C79.5878 78.7981 79.9085 79.0917 79.9085 79.486C79.9085 79.8787 79.5878 80.2264 79.1952 80.2603C78.4827 80.3195 77.7702 80.3779 77.0585 80.4329ZM72.2225 80.7731C71.8281 80.7976 71.5108 80.4955 71.5108 80.1029C71.5108 79.7077 71.8281 79.3684 72.2225 79.3439C73.0289 79.2939 73.8353 79.2398 74.6417 79.1839C75.0344 79.156 75.3551 79.453 75.3551 79.8482C75.3551 80.2408 75.0344 80.5852 74.6417 80.6123C73.8353 80.6699 73.0289 80.7232 72.2225 80.7731ZM67.389 81.0286C66.9963 81.0464 66.6756 80.7384 66.6756 80.3449C66.6756 79.9497 66.9963 79.6172 67.389 79.5994C68.1954 79.5647 69.0018 79.5258 69.8074 79.4826C70.1992 79.4623 70.5208 79.7644 70.5208 80.1596C70.5208 80.5522 70.1992 80.8907 69.8074 80.9119C69.0018 80.955 68.1945 80.994 67.389 81.0286ZM62.5555 81.186C62.1611 81.1945 61.8421 80.8797 61.8421 80.4871C61.8421 80.0919 62.1611 79.7653 62.5555 79.7577C63.361 79.7407 64.1666 79.7187 64.9714 79.6925C65.364 79.6798 65.6847 79.9887 65.6847 80.3838C65.6847 80.7765 65.364 81.109 64.9714 81.1217C64.1666 81.1471 63.361 81.1691 62.5555 81.186ZM57.722 81.2292C57.3259 81.2284 57.0061 80.9043 57.0061 80.5116C57.0061 80.1164 57.3259 79.7983 57.722 79.8C58.5267 79.8033 59.3323 79.8008 60.137 79.7932C60.5297 79.7898 60.8504 80.1063 60.8504 80.5006C60.8504 80.8933 60.5297 81.2182 60.137 81.2216C59.3314 81.23 58.5267 81.2326 57.722 81.2292ZM52.8859 81.1446C52.4899 81.1319 52.1726 80.7993 52.1726 80.4067C52.1726 80.0115 52.4899 79.7027 52.8859 79.7153C53.6915 79.7407 54.4971 79.761 55.3018 79.7746C55.6962 79.7813 56.0177 80.1063 56.0177 80.5006C56.0177 80.8933 55.6962 81.2097 55.3018 81.203C54.4971 81.1894 53.6915 81.17 52.8859 81.1446ZM48.0507 80.9169C47.6564 80.8924 47.3374 80.5497 47.3374 80.1571C47.3374 79.7619 47.6564 79.4632 48.0507 79.4877C48.8563 79.5385 49.6619 79.5825 50.4666 79.6206C50.8627 79.6392 51.18 79.9734 51.18 80.3678C51.18 80.7604 50.8627 81.0676 50.4666 81.049C49.6619 81.0117 48.8555 80.9677 48.0507 80.9169ZM43.2147 80.5311C42.8204 80.493 42.5022 80.1393 42.5022 79.7475C42.5022 79.3523 42.8195 79.0646 43.2147 79.1027C44.0211 79.1814 44.8276 79.2525 45.634 79.3159C46.0266 79.3472 46.3473 79.6916 46.3473 80.0868C46.3473 80.4795 46.0275 80.7765 45.634 80.7452C44.8276 80.6809 44.022 80.6098 43.2147 80.5311ZM38.3812 79.9734C37.9877 79.921 37.6678 79.5546 37.6678 79.1628C37.6678 78.7676 37.9877 78.4926 38.3812 78.545C39.1876 78.6534 39.9941 78.7541 40.8005 78.8463C41.1923 78.8911 41.5121 79.2465 41.5121 79.6417C41.5121 80.0344 41.1923 80.3204 40.8005 80.2755C39.9932 80.1824 39.1876 80.0817 38.3812 79.9734ZM33.5485 79.2305C33.1534 79.1611 32.8343 78.7828 32.8343 78.3902C32.8343 77.995 33.1534 77.7327 33.5485 77.8012C34.3533 77.9417 35.1589 78.0737 35.9644 78.1973C36.3554 78.2573 36.6778 78.6254 36.6778 79.0206C36.6778 79.4132 36.3562 79.6866 35.9644 79.6265C35.1589 79.5021 34.3533 79.3701 33.5485 79.2305ZM28.7125 78.2836C28.3173 78.1981 28 77.8055 28 77.4137C28 77.0185 28.3173 76.7697 28.7125 76.8552C29.5181 77.0303 30.3237 77.1962 31.1284 77.3536C31.5219 77.4306 31.8426 77.8114 31.8426 78.2066C31.8426 78.5992 31.5227 78.859 31.1293 78.7828C30.3237 78.6254 29.5172 78.4587 28.7125 78.2836Z" fill="black"/>
<path d="M169.073 77.5239C168.678 77.446 168.358 77.0652 168.358 76.6726C168.358 76.2766 168.678 76.0202 169.073 76.0989C169.784 76.2402 170.495 76.3874 171.206 76.5423C171.6 76.6286 171.921 77.0178 171.921 77.413C171.921 77.8057 171.6 78.0527 171.206 77.9673C170.495 77.8124 169.784 77.6643 169.073 77.5239ZM164.237 76.6692C163.841 76.6074 163.523 76.2402 163.523 75.8475C163.523 75.4515 163.841 75.1816 164.237 75.2442C165.042 75.3694 165.847 75.504 166.653 75.6462C167.044 75.7155 167.369 76.0921 167.369 76.4881C167.369 76.8808 167.044 77.1405 166.653 77.0712C165.847 76.9281 165.042 76.7944 164.237 76.6692ZM159.402 76.0083C159.007 75.9618 158.689 75.6072 158.689 75.2146C158.689 74.8186 159.007 74.5368 159.402 74.5825C160.208 74.6773 161.013 74.7788 161.819 74.8888C162.212 74.9421 162.532 75.306 162.532 75.7012C162.532 76.0929 162.212 76.368 161.819 76.3138C161.013 76.2055 160.208 76.1031 159.402 76.0083ZM154.568 75.5294C154.172 75.4972 153.851 75.1528 153.851 74.7602C153.851 74.3642 154.172 74.0714 154.568 74.1035C155.374 74.1695 156.178 74.2423 156.984 74.3218C157.377 74.3608 157.698 74.7119 157.698 75.1071C157.698 75.4998 157.377 75.7858 156.984 75.7469C156.179 75.6682 155.374 75.5954 154.568 75.5294ZM149.731 75.2154C149.337 75.1968 149.019 74.8626 149.019 74.4699C149.019 74.0739 149.337 73.771 149.731 73.7896C150.537 73.8285 151.343 73.8751 152.149 73.9267C152.543 73.9521 152.864 74.2922 152.864 74.6874C152.864 75.08 152.543 75.3771 152.149 75.3517C151.344 75.3009 150.538 75.2544 149.731 75.2154ZM144.899 75.053C144.503 75.0454 144.186 74.7213 144.186 74.3286C144.186 73.9326 144.503 73.6195 144.899 73.6271C145.705 73.6423 146.51 73.6635 147.315 73.6906C147.711 73.7041 148.032 74.0333 148.032 74.4293C148.032 74.822 147.711 75.1291 147.315 75.1164C146.51 75.0894 145.705 75.0682 144.899 75.053ZM140.065 75.0267C139.669 75.0293 139.351 74.7136 139.351 74.321C139.351 73.925 139.669 73.6043 140.065 73.6009C140.871 73.595 141.675 73.5941 142.481 73.5983C142.873 73.6 143.194 73.9208 143.194 74.3168C143.194 74.7094 142.873 75.0259 142.481 75.0242C141.675 75.0191 140.871 75.02 140.065 75.0267ZM135.228 75.1224C134.835 75.135 134.514 74.8262 134.514 74.4335C134.514 74.0375 134.835 73.7092 135.228 73.6965C136.034 73.6711 136.84 73.6508 137.646 73.6347C138.04 73.6271 138.361 73.9394 138.361 74.3354C138.361 74.728 138.04 75.053 137.646 75.0606C136.84 75.0758 136.034 75.097 135.228 75.1224ZM130.394 75.3246C129.999 75.3449 129.681 75.0428 129.681 74.6502C129.681 74.2542 129.999 73.9199 130.394 73.8987C131.199 73.8573 132.006 73.8192 132.811 73.7854C133.205 73.7684 133.525 74.0739 133.525 74.4699C133.525 74.8626 133.205 75.1943 132.811 75.2112C132.006 75.2451 131.199 75.2831 130.394 75.3246ZM125.56 75.6191C125.165 75.647 124.847 75.35 124.847 74.9573C124.847 74.5613 125.165 74.2212 125.56 74.1941C126.366 74.1382 127.171 74.0858 127.976 74.0358C128.369 74.0121 128.689 74.3108 128.689 74.706C128.689 75.0987 128.369 75.4371 127.976 75.4608C127.171 75.5108 126.366 75.5632 125.56 75.6191ZM120.727 75.9914C120.33 76.0244 120.013 75.7325 120.013 75.3398C120.013 74.9438 120.33 74.5994 120.727 74.5656C121.532 74.4979 122.337 74.4327 123.143 74.3709C123.535 74.3405 123.856 74.6341 123.856 75.0301C123.856 75.4228 123.535 75.7663 123.143 75.7968C122.337 75.8586 121.532 75.9237 120.727 75.9914Z" fill="black"/>
</g>
<defs>
<clipPath id="clip0">
<rect width="143.921" height="58.1772" fill="white" transform="translate(28 71)"/>
</clipPath>
</defs>
</svg>
