<svg width="200" height="200" viewBox="0 0 200 200" fill="none" xmlns="http://www.w3.org/2000/svg">
<g clip-path="url(#clip0)">
<path d="M71.5959 89.6439C70.9313 88.7873 69.8484 88.3093 68.7709 88.3093C66.1474 88.3093 64.4172 90.4052 64.4172 93.0571C64.4172 95.5187 66.0493 97.6146 68.7709 97.6146C70.1077 97.6146 71.1336 97.0159 71.8245 96.0455L73.1621 97.0526C72.8136 97.5292 71.4116 99.0968 68.7379 99.0968C65.0272 99.0968 62.7357 95.9946 62.7357 93.0571C62.7357 89.4273 65.2265 86.8203 68.8211 86.8203C70.3565 86.8203 71.9721 87.4003 72.9133 88.6382L71.5959 89.6439Z" fill="black"/>
<path d="M76.5476 92.2649H78.6233C79.8754 92.2649 81.1313 91.9682 81.1313 90.3871C81.1313 88.8052 79.8754 88.5062 78.6233 88.5062H76.5476V92.2649ZM74.9597 87.1162H79.0676C82.0538 87.1162 82.8129 88.9146 82.8129 90.3871C82.8129 91.8716 81.7068 93.2721 79.9414 93.4722L83.258 98.8H81.2782L78.3086 93.6498H76.5476V98.8H74.9597V87.1162Z" fill="black"/>
<path d="M94.7529 92.9627C94.7529 90.4044 93.0257 88.3085 90.352 88.3085C87.6784 88.3085 85.9451 90.4044 85.9451 92.9627C85.9451 95.518 87.6784 97.6139 90.352 97.6139C93.0257 97.6139 94.7529 95.518 94.7529 92.9627ZM84.2621 92.9627C84.2621 89.494 86.7881 86.8203 90.352 86.8203C93.9144 86.8203 96.4375 89.494 96.4375 92.9627C96.4375 96.4224 93.9144 99.0968 90.352 99.0968C86.7881 99.0968 84.2621 96.4224 84.2621 92.9627Z" fill="black"/>
<path d="M98.7305 87.1162H106.075V88.6044H100.317V92.2649H105.679V93.7539H100.317V98.8H98.7305V87.1162Z" fill="black"/>
<path d="M111.014 88.6044H107.252V87.1162H116.36V88.6044H112.599V98.7992H111.014V88.6044Z" fill="black"/>
<path d="M119.389 91.1762H118.1V87.1162H119.389V91.1762Z" fill="black"/>
<path d="M121.754 96.361C122.309 97.2137 123.287 97.6146 124.226 97.6146C125.264 97.6146 126.554 96.9545 126.554 95.6641C126.554 92.9762 120.794 94.6427 120.794 90.092C120.794 88.7169 121.952 86.8203 124.753 86.8203C126.023 86.8203 127.247 87.0848 128.118 88.1609L126.831 89.3291C126.436 88.7169 125.659 88.3093 124.753 88.3093C123.006 88.3093 122.479 89.3673 122.479 90.092C122.479 93.0421 128.235 91.2782 128.235 95.485C128.235 97.7443 126.419 99.0968 124.175 99.0968C122.676 99.0968 121.241 98.5843 120.45 97.4812L121.754 96.361Z" fill="black"/>
<path d="M69.9616 108.929L67.784 103.572H67.7487L65.5374 108.929H69.9616ZM67.1238 101.526H68.558L73.5577 113.204H71.709L70.5408 110.319H64.9784L63.8237 113.204H61.975L67.1238 101.526Z" fill="black"/>
<path d="M82.7911 104.05C82.128 103.193 81.0406 102.712 79.9676 102.712C77.3464 102.712 75.6139 104.809 75.6139 107.466C75.6139 109.921 77.246 112.019 79.9676 112.019C81.3044 112.019 82.3273 111.426 83.0212 110.451L84.3587 111.457C84.0088 111.936 82.6083 113.499 79.9339 113.499C76.2224 113.499 73.9279 110.403 73.9279 107.466C73.9279 103.831 76.4217 101.23 80.0163 101.23C81.5547 101.23 83.1688 101.807 84.1085 103.045L82.7911 104.05Z" fill="black"/>
<path d="M94.0665 104.05C93.4033 103.193 92.316 102.712 91.2475 102.712C88.6218 102.712 86.8923 104.809 86.8923 107.466C86.8923 109.921 88.5221 112.019 91.2475 112.019C92.5828 112.019 93.6057 111.426 94.2996 110.451L95.6349 111.457C95.2872 111.936 93.8867 113.499 91.2093 113.499C87.4992 113.499 85.2032 110.403 85.2032 107.466C85.2032 103.831 87.7001 101.23 91.2932 101.23C92.8301 101.23 94.4487 101.807 95.3854 103.045L94.0665 104.05Z" fill="black"/>
<path d="M106.97 107.366C106.97 104.809 105.237 102.712 102.569 102.712C99.8942 102.712 98.1639 104.809 98.1639 107.366C98.1639 109.921 99.8942 112.019 102.569 112.019C105.237 112.019 106.97 109.921 106.97 107.366ZM96.4779 107.366C96.4779 103.902 99.0054 101.23 102.569 101.23C106.127 101.23 108.656 103.902 108.656 107.366C108.656 110.826 106.127 113.5 102.569 113.5C99.0054 113.5 96.4779 110.826 96.4779 107.366Z" fill="black"/>
<path d="M112.351 101.526V108.683C112.351 110.134 113.08 112.018 115.293 112.018C117.499 112.018 118.226 110.134 118.226 108.683V101.526H119.81V108.929C119.81 111.641 117.848 113.5 115.293 113.5C112.733 113.5 110.769 111.641 110.769 108.929V101.526H112.351Z" fill="black"/>
<path d="M122.645 101.526H124.723L131.158 111.128H131.191V101.526H132.772V113.204H130.764L124.264 103.605H124.232V113.204H122.645V101.526Z" fill="black"/>
<path d="M138.208 103.009H134.447V101.526H143.556V103.009H139.794V113.204H138.208V103.009Z" fill="black"/>
<path d="M150.681 108.929L148.507 103.572H148.468L146.255 108.929H150.681ZM147.843 101.526H149.278L154.277 113.204H152.432L151.26 110.319H145.701L144.543 113.204H142.698L147.843 101.526Z" fill="black"/>
<path d="M155.858 101.526H157.934L164.372 111.128H164.405V101.526H165.987V113.204H163.977L157.477 103.605H157.443V113.204H155.858V101.526Z" fill="black"/>
<path d="M171.419 103.009H167.66V101.526H176.767V103.009H173.006V113.204H171.419V103.009Z" fill="black"/>
<path d="M178.913 110.766C179.47 111.624 180.444 112.019 181.386 112.019C182.425 112.019 183.715 111.359 183.715 110.069C183.715 107.379 177.952 109.047 177.952 104.495C177.952 103.128 179.107 101.23 181.911 101.23C183.183 101.23 184.406 101.491 185.278 102.566L183.992 103.733C183.597 103.128 182.82 102.712 181.911 102.712C180.16 102.712 179.638 103.771 179.638 104.495C179.638 107.446 185.394 105.683 185.394 109.891C185.394 112.151 183.58 113.499 181.333 113.499C179.834 113.499 178.399 112.989 177.61 111.884L178.913 110.766Z" fill="black"/>
<path d="M44.5535 93.2279L32.5453 100.164L44.5535 107.098V116.279L24.5932 104.752V95.5726L44.5535 84.047V93.2279ZM36.1893 78.3242C24.1354 78.3242 14.3542 88.1024 14.3542 100.164C14.3542 112.227 24.1354 122 36.1893 122C48.2538 122 58.0328 112.227 58.0328 100.164C58.0328 88.1024 48.2538 78.3242 36.1893 78.3242Z" fill="black"/>
</g>
<defs>
<clipPath id="clip0">
<rect width="171.04" height="43.6756" fill="white" transform="translate(14.3542 78.3242)"/>
</clipPath>
</defs>
</svg>
