<svg width="48" height="48" viewBox="0 0 48 48" fill="none" xmlns="http://www.w3.org/2000/svg">
<path d="M29.3997 12.5995C29.0333 12.9733 28.828 13.476 28.828 13.9995C28.828 14.523 29.0333 15.0256 29.3997 15.3995L32.5997 18.5995C32.9736 18.9659 33.4762 19.1712 33.9997 19.1712C34.5232 19.1712 35.0259 18.9659 35.3997 18.5995L42.9397 11.0595C43.9454 13.2818 44.2499 15.7579 43.8126 18.1578C43.3754 20.5576 42.2171 22.7672 40.4923 24.492C38.7674 26.2169 36.5578 27.3751 34.158 27.8124C31.7582 28.2496 29.2821 27.9451 27.0597 26.9395L13.2397 40.7595C12.4441 41.5551 11.3649 42.0021 10.2397 42.0021C9.11449 42.0021 8.03536 41.5551 7.23971 40.7595C6.44406 39.9638 5.99707 38.8847 5.99707 37.7595C5.99707 36.6342 6.44406 35.5551 7.23971 34.7595L21.0597 20.9395C20.054 18.7171 19.7495 16.241 20.1868 13.8412C20.624 11.4414 21.7823 9.23178 23.5072 7.50691C25.232 5.78205 27.4416 4.62381 29.8414 4.18656C32.2412 3.7493 34.7173 4.0538 36.9397 5.05947L29.4197 12.5795L29.3997 12.5995Z" fill="#92A8DA"/>
<path d="M29.3997 12.5995C29.0333 12.9733 28.828 13.476 28.828 13.9995C28.828 14.523 29.0333 15.0256 29.3997 15.3995L32.5997 18.5995C32.9736 18.9659 33.4762 19.1712 33.9997 19.1712C34.5232 19.1712 35.0259 18.9659 35.3997 18.5995L42.9397 11.0595C43.9454 13.2818 44.2499 15.7579 43.8126 18.1578C43.3754 20.5576 42.2171 22.7672 40.4923 24.492C38.7674 26.2169 36.5578 27.3751 34.158 27.8124C31.7582 28.2496 29.2821 27.9451 27.0597 26.9395L13.2397 40.7595C12.4441 41.5551 11.3649 42.0021 10.2397 42.0021C9.11449 42.0021 8.03536 41.5551 7.23971 40.7595C6.44406 39.9638 5.99707 38.8847 5.99707 37.7595C5.99707 36.6342 6.44406 35.5551 7.23971 34.7595L21.0597 20.9395C20.054 18.7171 19.7495 16.241 20.1868 13.8412C20.624 11.4414 21.7823 9.23178 23.5072 7.50691C25.232 5.78205 27.4416 4.62381 29.8414 4.18656C32.2412 3.7493 34.7173 4.0538 36.9397 5.05947L29.4197 12.5795L29.3997 12.5995Z" fill="url(#paint0_linear)"/>
<path d="M29.3997 12.5995C29.0333 12.9733 28.828 13.476 28.828 13.9995C28.828 14.523 29.0333 15.0256 29.3997 15.3995L32.5997 18.5995C32.9736 18.9659 33.4762 19.1712 33.9997 19.1712C34.5232 19.1712 35.0259 18.9659 35.3997 18.5995L42.9397 11.0595C43.9454 13.2818 44.2499 15.7579 43.8126 18.1578C43.3754 20.5576 42.2171 22.7672 40.4923 24.492C38.7674 26.2169 36.5578 27.3751 34.158 27.8124C31.7582 28.2496 29.2821 27.9451 27.0597 26.9395L13.2397 40.7595C12.4441 41.5551 11.3649 42.0021 10.2397 42.0021C9.11449 42.0021 8.03536 41.5551 7.23971 40.7595C6.44406 39.9638 5.99707 38.8847 5.99707 37.7595C5.99707 36.6342 6.44406 35.5551 7.23971 34.7595L21.0597 20.9395C20.054 18.7171 19.7495 16.241 20.1868 13.8412C20.624 11.4414 21.7823 9.23178 23.5072 7.50691C25.232 5.78205 27.4416 4.62381 29.8414 4.18656C32.2412 3.7493 34.7173 4.0538 36.9397 5.05947L29.4197 12.5795L29.3997 12.5995Z" stroke="#0E092E" stroke-width="2" stroke-linecap="round" stroke-linejoin="round"/>
<defs>
<linearGradient id="paint0_linear" x1="44" y1="4" x2="6" y2="42" gradientUnits="userSpaceOnUse">
<stop stop-color="#49E4EE"/>
<stop offset="1" stop-color="#84A4ED"/>
</linearGradient>
</defs>
</svg>
