<svg id="Capa_1" enable-background="new 0 0 511 511" height="512" viewBox="0 0 511 511" width="512" xmlns="http://www.w3.org/2000/svg"><g><g><g><path d="m0 22.75h511v473h-511z" fill="#d7fff6"/></g><g><path d="m0 67.751h511v427.999h-511z" fill="#a4d7f5"/></g><g><path d="m0 112.752h511v382.998h-511z" fill="#6e91ef"/></g><g><path d="m191.325 322.81-10.324-33.393 13.999-17.667 70.213-19.777 12.722 44.893z" fill="#d7fff6"/></g><g><path d="m212.325 293.668-7.622-24.651-9.703 2.733-13.999 17.667 10.324 33.393 86.61-25.944-5.969-21.063z" fill="#a4d7f5"/></g><g><path d="m123.744 352.687h-20.741l-20.154-20.271v-19.563l20.154-19.919h20.741l18.859 19.919v19.563z" fill="#f7e0ba"/></g><g><path d="m115.507 331.178h-4.011l-23.412-23.499-5.235 5.174v19.563l20.154 20.271h20.741l18.859-20.271v-19.563l-4.899-5.174z" fill="#f0b582"/></g><g><path d="m175.601 384.248-72 75-21.599-18.997 109.323-117.441 93.675-28.06 60-119 27.501 13.501-79.505 163.436z" fill="#7bdaa9"/></g><g><path d="m350.471 178.436-72.816 149.686-117.395 31.561-72 75-.591-.52-5.667 6.088 21.599 18.997 72-75 117.395-31.561 79.505-163.436z" fill="#5fa6b0"/></g><g><path d="m345 175.75 36.999-75.998 57.051 28.769-1.717 4.23-64.832 56.5z" fill="#faef93"/></g><g><path d="m421.239 119.54-50.74 44.218-15.868-7.79-9.631 19.782 27.501 13.501 64.832-56.5 1.717-4.23z" fill="#e8ab4c"/></g><g><path d="m59.833 254.75h15v15h-15z" fill="#fff"/></g><g><path d="m135.103 149.759h15v15h-15z" fill="#fff"/></g><g><path d="m390 299.75h15v15h-15z" fill="#fff"/></g><g><path d="m450 434.75h15v15h-15z" fill="#fff"/></g></g><g><path d="m75 15.25h436v15h-436z"/><path d="m45 15.25h15v15h-15z"/><path d="m0 15.25h30v15h-30z"/><path d="m420 60.251h30v15h-30z"/><path d="m390 60.251h15v15h-15z"/><path d="m60 60.251h315v15h-315z"/><path d="m240 105.252h105v15h-105z"/><path d="m210 105.252h15v15h-15z"/><path d="m165 105.252h30v15h-30z"/><path d="m443.608 137.229 4.991-12.292-70.014-35.306-96.523 194.289-11.674-41.196-79.757 22.465-17.962 22.667 10.209 33.022-111.622 119.91 32.783 28.834 75.526-78.673 118.68-31.907 80.332-165.138zm-58.194-27.355 12.361 6.233-5.974 11.373 13.279 6.975 6.089-11.593 16.531 8.336-56.369 49.124-16.315-8.009zm-116.709 181.928-45.051 13.495-9.759-31.077 46.144-12.998zm-69.335-13.491.081-.023 9.833 31.313-12.989 3.891-6.961-22.515zm88.377 68.021-116.11 31.215-68.474 71.327-10.415-9.16 102.679-110.303 94.816-28.403 58.112-115.256 14.131 6.938z"/><path d="m89.97 368.72 9.225-9.226.689.693h27.126l23.092-24.822v-25.499l-23.131-24.433h-27.049l-24.573 24.288v25.789l13.27 13.347-9.256 9.256zm.379-52.734 15.735-15.552h14.432l14.586 15.407v13.626l-14.625 15.72h-14.355l-15.773-15.865z"/><path d="m90.5 179.759v15h-15v15h15v15h15v-15h15v-15h-15v-15z"/><path d="m465 224.75h-15v15h-15v15h15v15h15v-15h15v-15h-15z"/><path d="m405 359.75h-15v15h-15v15h15v15h15v-15h15v-15h-15z"/></g></g></svg>