<svg height="512pt" viewBox="0 0 512 512.00001" width="512pt" xmlns="http://www.w3.org/2000/svg"><path d="m424.78125 135.292969v69.808593l-116.539062 101.550782-51.777344 45.042968s-21.878906-18.351562-52.65625-44.402343c-33.824219-28.53125-78.226563-66.28125-116.21875-99.222657l.5625-.640624v-200.375h336.625v128.238281zm0 0" fill="#31e8bb"/><path d="m504.929688 503.980469h-496.929688l192.359375-192.359375 3.449219-4.328125c30.777344 26.050781 52.65625 44.402343 52.65625 44.402343l51.777344-45.042968 4.328124 4.96875zm0 0" fill="#fbb040"/><path d="m504.929688 135.292969-80.148438 69.808593v-69.808593zm0 0" fill="#fbb040"/><path d="m88.152344 135.292969v72.132812l-.5625.640625c-44.160156-38.148437-79.589844-69.726562-79.589844-72.773437zm0 0" fill="#fbb040"/><path d="m424.78125 205.101562 80.148438-69.808593v368.6875l-192.359376-192.359375-4.328124-4.96875zm0 0" fill="#ffe451"/><path d="m203.808594 307.292969-3.449219 4.328125-192.359375 192.359375v-368.6875c0 3.046875 35.429688 34.625 79.589844 72.777343 37.992187 32.941407 82.394531 70.691407 116.21875 99.222657zm0 0" fill="#ffe451"/><path d="m8 135.292969v368.6875l40.074219-40.074219v-290.324219c-23.960938-21.230469-40.074219-36.261719-40.074219-38.289062zm0 0" fill="#fbb040"/><path d="m175.753906 208.070312.5625-.644531v-200.371093h-88.164062v200.371093l-.5625.644531c37.992187 32.941407 82.394531 70.691407 116.21875 99.222657 30.777344 26.050781 52.65625 44.402343 52.65625 44.402343l43.382812-37.738281c-2.558594-2.167969-86.101562-72.945312-124.09375-105.886719zm0 0" fill="#1cb28b"/><path d="m111.730469 456.851562h184.34375v15.074219h-184.34375zm0 0" fill="#fff"/><path d="m344.164062 456.851562h16.03125v15.074219h-16.03125zm0 0" fill="#fff"/><path d="m245.296875 106.402344-61.429687-61.433594-61.4375 61.433594 10.660156 10.65625 43.238281-43.238282v102.03125h15.074219v-102.03125l43.238281 43.238282zm0 0" fill="#fff"/><path d="m176.328125 223.941406h15.074219v16.027344h-15.074219zm0 0" fill="#fff"/><path d="m247.984375 160.300781h128.238281v15.070313h-128.238281zm0 0" fill="#fff"/><path d="m288.058594 96.179688h88.164062v15.074218h-88.164062zm0 0" fill="#fff"/><g fill="#231f20"><path d="m431.851562 128.238281v-128.238281h-119.746093v15.070312h104.671875v187.089844l-160.863282 140.105469c-8.148437-6.847656-115.996093-97.964844-160.691406-136.667969v-190.527344h192.835938v-15.070312h-207.910156v128.238281h-80.148438v135.777344h15.070312v-109.234375c3.039063 2.855469 154.902344 134.679688 177.621094 153.867188l-177.621094 177.621093v-198.210937h-15.070312v223.941406h191.878906v-15.070312h-166.148437l178.515625-178.515626c27.410156 23.179688 51.84375 43.675782 51.84375 43.675782l50.984375-44.355469 47.789062 47.789063 10.660157-10.660157-47.050782-47.050781 178.457032-155.480469v333.9375l-115.375-115.375-10.660157 10.660157 115.375 115.375h-270.34375v15.070312h296.074219v-383.761719zm-406.996093 15.074219h55.296875v49.230469c-29.839844-25.910157-46.273438-40.742188-55.296875-49.230469zm459.480469 0-52.484376 45.714844v-45.714844zm0 0"/><path d="m312.105469 456.851562h16.027343v15.074219h-16.027343zm0 0"/><path d="m376.222656 456.851562h16.03125v15.074219h-16.03125zm0 0"/><path d="m464.867188 215.925781h15.074218v184.34375h-15.074218zm0 0"/><path d="m176.328125 191.878906h15.074219v16.03125h-15.074219zm0 0"/><path d="m247.984375 192.359375h128.238281v15.070313h-128.238281zm0 0"/><path d="m247.984375 128.238281h128.238281v15.074219h-128.238281zm0 0"/><path d="m247.984375 64.121094h128.238281v15.070312h-128.238281zm0 0"/><path d="m360.195312 32.058594h16.027344v15.074218h-16.027344zm0 0"/><path d="m328.132812 32.058594h16.03125v15.074218h-16.03125zm0 0"/></g><path d="m296.074219 32.058594h16.03125v15.074218h-16.03125zm0 0" fill="#fff"/></svg>