<svg width="200" height="200" viewBox="0 0 200 200" fill="none" xmlns="http://www.w3.org/2000/svg">
<g clip-path="url(#clip0)">
<path d="M31.0112 114.955H31.818V120.717H31.0112V118.057H28.1936V120.717H27.3867V114.955H28.1936V117.358H31.0112V114.955Z" fill="black"/>
<path d="M32.9023 121.523C32.9636 121.551 33.0424 121.578 33.1403 121.602C33.2367 121.628 33.3325 121.639 33.4268 121.639C33.7317 121.639 33.9704 121.571 34.1422 121.435C34.3139 121.3 34.4688 121.08 34.6082 120.775C34.2583 120.11 33.9338 119.405 33.631 118.659C33.329 117.913 33.0783 117.158 32.8784 116.394H33.7099C33.7711 116.643 33.845 116.912 33.9302 117.2C34.0161 117.488 34.1112 117.785 34.2168 118.09C34.3224 118.394 34.4358 118.699 34.5576 119.005C34.6794 119.31 34.8075 119.603 34.9399 119.886C35.1504 119.303 35.3334 118.727 35.489 118.156C35.6439 117.586 35.7911 116.998 35.9291 116.394H36.7275C36.5282 117.209 36.3064 117.992 36.0621 118.742C35.8185 119.494 35.5552 120.195 35.2722 120.85C35.1616 121.099 35.0462 121.315 34.9272 121.495C34.8082 121.675 34.6765 121.823 34.5315 121.939C34.3879 122.056 34.2252 122.142 34.0457 122.197C33.8655 122.253 33.662 122.281 33.4339 122.281C33.3733 122.281 33.3093 122.277 33.2431 122.268C33.1769 122.26 33.1114 122.248 33.0488 122.235C32.9847 122.221 32.927 122.206 32.8727 122.189C32.8206 122.173 32.7826 122.159 32.7608 122.148L32.9023 121.523Z" fill="black"/>
<path d="M40.3765 120.285C40.3097 120.328 40.1808 120.386 39.99 120.455C39.7985 120.525 39.5753 120.559 39.3198 120.559C39.06 120.559 38.8142 120.517 38.5847 120.435C38.3538 120.351 38.1531 120.222 37.9813 120.047C37.8103 119.873 37.6737 119.656 37.5744 119.395C37.4744 119.135 37.4244 118.824 37.4244 118.464C37.4244 118.149 37.4716 117.859 37.566 117.596C37.6603 117.333 37.7976 117.105 37.9771 116.914C38.1574 116.723 38.377 116.573 38.6382 116.464C38.898 116.357 39.1923 116.303 39.519 116.303C39.8795 116.303 40.1935 116.329 40.4624 116.381C40.7314 116.435 40.9574 116.483 41.1404 116.527V120.385C41.1404 121.051 40.9687 121.532 40.6251 121.831C40.2815 122.131 39.7605 122.281 39.0621 122.281C38.7903 122.281 38.534 122.259 38.2932 122.214C38.0518 122.17 37.8426 122.117 37.6652 122.057L37.8067 121.383C37.9616 121.444 38.1517 121.498 38.3763 121.544C38.6009 121.592 38.8347 121.615 39.079 121.615C39.5387 121.615 39.8696 121.524 40.0724 121.341C40.2745 121.158 40.3758 120.868 40.3758 120.468V120.285H40.3765ZM40.3688 117.076C40.2906 117.053 40.1872 117.032 40.0562 117.013C39.9267 116.993 39.7499 116.984 39.5289 116.984C39.1128 116.984 38.7931 117.12 38.5685 117.391C38.3439 117.662 38.232 118.023 38.232 118.472C38.232 118.722 38.2637 118.935 38.327 119.112C38.3911 119.289 38.477 119.436 38.5854 119.552C38.6931 119.669 38.8185 119.755 38.9586 119.81C39.1008 119.865 39.2458 119.893 39.3951 119.893C39.6 119.893 39.7887 119.864 39.9604 119.806C40.1322 119.747 40.2681 119.68 40.3681 119.602V117.076H40.3688Z" fill="black"/>
<path d="M43.0231 115.612C42.8844 115.612 42.7668 115.567 42.6703 115.475C42.5739 115.384 42.5246 115.26 42.5246 115.105C42.5246 114.95 42.5732 114.827 42.6703 114.735C42.7675 114.644 42.8851 114.599 43.0231 114.599C43.1611 114.599 43.2793 114.644 43.3765 114.735C43.4737 114.827 43.5222 114.951 43.5222 115.105C43.5222 115.26 43.4737 115.384 43.3765 115.475C43.2793 115.566 43.1611 115.612 43.0231 115.612ZM43.4138 120.717H42.6401V116.394H43.4138V120.717Z" fill="black"/>
<path d="M44.6713 118.563C44.6713 118.181 44.7269 117.846 44.8374 117.562C44.948 117.276 45.0951 117.039 45.2782 116.851C45.4612 116.662 45.6717 116.521 45.9097 116.426C46.1477 116.332 46.392 116.285 46.6412 116.285C47.2235 116.285 47.6691 116.467 47.9796 116.83C48.2901 117.193 48.4457 117.746 48.4457 118.488C48.4457 118.521 48.4457 118.564 48.4457 118.616C48.4457 118.669 48.4422 118.718 48.4373 118.762H45.4774C45.5105 119.211 45.6407 119.552 45.8682 119.785C46.0956 120.018 46.4504 120.134 46.9327 120.134C47.2045 120.134 47.4326 120.111 47.6184 120.063C47.8043 120.016 47.9437 119.971 48.0388 119.926L48.1472 120.574C48.0528 120.624 47.8881 120.678 47.6522 120.733C47.4164 120.788 47.1488 120.816 46.8496 120.816C46.4722 120.816 46.147 120.759 45.8724 120.646C45.5978 120.532 45.3725 120.375 45.1951 120.175C45.0177 119.976 44.886 119.739 44.7994 119.465C44.7142 119.191 44.6713 118.89 44.6713 118.563ZM47.6396 118.139C47.6445 117.79 47.5579 117.503 47.3777 117.279C47.1974 117.055 46.9489 116.942 46.6328 116.942C46.456 116.942 46.299 116.977 46.1639 117.046C46.028 117.115 45.9125 117.206 45.8189 117.317C45.7245 117.427 45.6513 117.554 45.5985 117.698C45.5464 117.843 45.5112 117.99 45.495 118.138H47.6396V118.139Z" fill="black"/>
<path d="M49.7194 116.518C49.8968 116.473 50.1326 116.426 50.4262 116.376C50.7198 116.326 51.0578 116.302 51.4408 116.302C51.7844 116.302 52.0695 116.35 52.2976 116.447C52.5243 116.544 52.706 116.68 52.8418 116.855C52.9784 117.03 53.0728 117.238 53.1291 117.482C53.184 117.727 53.2122 117.995 53.2122 118.289V120.717H52.4391V118.455C52.4391 118.19 52.4208 117.962 52.3849 117.774C52.3483 117.586 52.2892 117.433 52.2061 117.317C52.123 117.201 52.0118 117.115 51.8731 117.063C51.7337 117.011 51.5626 116.984 51.3577 116.984C51.2739 116.984 51.1887 116.987 51.1 116.992C51.0113 116.998 50.9268 117.005 50.8466 117.013C50.7663 117.021 50.6938 117.031 50.6304 117.042C50.567 117.053 50.5206 117.062 50.4938 117.068V120.717H49.7194V116.518Z" fill="black"/>
<path d="M54.4323 118.563C54.4323 118.181 54.4872 117.846 54.5985 117.562C54.709 117.276 54.8562 117.039 55.0385 116.851C55.2216 116.662 55.4321 116.521 55.67 116.426C55.9087 116.332 56.153 116.285 56.4016 116.285C56.9838 116.285 57.4302 116.467 57.7407 116.83C58.0512 117.193 58.206 117.746 58.206 118.488C58.206 118.521 58.206 118.564 58.206 118.616C58.206 118.669 58.2032 118.718 58.1983 118.762H55.2392C55.2715 119.211 55.4018 119.552 55.6299 119.785C55.8566 120.018 56.2115 120.134 56.6944 120.134C56.9655 120.134 57.1943 120.111 57.3802 120.063C57.5654 120.016 57.7055 119.971 57.8005 119.926L57.9082 120.574C57.8132 120.624 57.6491 120.678 57.4133 120.733C57.1774 120.788 56.9099 120.816 56.6107 120.816C56.234 120.816 55.9087 120.759 55.6334 120.646C55.3596 120.532 55.1336 120.375 54.9561 120.175C54.7787 119.976 54.647 119.739 54.5612 119.465C54.4753 119.191 54.4323 118.89 54.4323 118.563ZM57.4006 118.139C57.4055 117.79 57.3182 117.503 57.138 117.279C56.9578 117.055 56.7092 116.942 56.3938 116.942C56.2171 116.942 56.0601 116.977 55.9242 117.046C55.789 117.115 55.6729 117.206 55.5792 117.317C55.4849 117.427 55.4117 117.554 55.3596 117.698C55.3067 117.843 55.2715 117.99 55.2561 118.138H57.4006V118.139Z" fill="black"/>
<path d="M62.6304 120.143C63.4724 120.143 63.8934 119.855 63.8934 119.278C63.8934 119.101 63.8568 118.95 63.7815 118.824C63.7061 118.699 63.6055 118.591 63.4773 118.5C63.3499 118.409 63.2042 118.331 63.0408 118.264C62.8782 118.197 62.7043 118.131 62.5212 118.064C62.3107 117.992 62.1115 117.91 61.9228 117.819C61.7334 117.727 61.57 117.62 61.432 117.495C61.2933 117.37 61.1835 117.223 61.1033 117.05C61.023 116.879 60.9829 116.671 60.9829 116.427C60.9829 115.922 61.1546 115.529 61.4982 115.246C61.8411 114.964 62.3156 114.822 62.9197 114.822C63.2689 114.822 63.5865 114.859 63.8723 114.935C64.1574 115.009 64.3673 115.091 64.4996 115.18L64.2426 115.836C64.1265 115.765 63.9526 115.693 63.723 115.624C63.4928 115.555 63.2253 115.52 62.9204 115.52C62.7648 115.52 62.6212 115.537 62.4881 115.571C62.3558 115.604 62.2389 115.654 62.1396 115.72C62.0396 115.787 61.9608 115.872 61.9017 115.974C61.8439 116.076 61.8144 116.198 61.8144 116.335C61.8144 116.491 61.8446 116.621 61.9059 116.726C61.9664 116.832 62.053 116.925 62.1636 117.005C62.2741 117.085 62.4029 117.159 62.5501 117.225C62.6965 117.292 62.8585 117.358 63.0366 117.425C63.2858 117.525 63.5153 117.625 63.7223 117.725C63.93 117.825 64.1096 117.944 64.2631 118.082C64.4158 118.221 64.5334 118.386 64.6165 118.577C64.6996 118.768 64.7418 119 64.7418 119.271C64.7418 119.775 64.5573 120.163 64.1884 120.435C63.8195 120.706 63.2999 120.842 62.6296 120.842C62.4022 120.842 62.1931 120.827 62.0009 120.796C61.8101 120.766 61.6397 120.73 61.4898 120.688C61.3398 120.646 61.211 120.602 61.1033 120.556C60.9948 120.508 60.911 120.468 60.8498 120.435L61.0913 119.769C61.2187 119.842 61.413 119.922 61.6728 120.011C61.934 120.099 62.253 120.143 62.6304 120.143Z" fill="black"/>
<path d="M65.7035 118.563C65.7035 118.181 65.7584 117.846 65.8696 117.562C65.9802 117.276 66.1273 117.039 66.3097 116.851C66.492 116.663 66.7032 116.521 66.9419 116.426C67.1799 116.332 67.4242 116.285 67.6734 116.285C68.2557 116.285 68.7014 116.467 69.0118 116.83C69.3223 117.193 69.4779 117.746 69.4779 118.488C69.4779 118.521 69.4779 118.564 69.4779 118.616C69.4779 118.669 69.4744 118.718 69.4695 118.762H66.5096C66.5427 119.211 66.6723 119.552 66.9004 119.785C67.1271 120.018 67.4819 120.134 67.9649 120.134C68.236 120.134 68.4648 120.111 68.6507 120.063C68.8365 120.016 68.9759 119.971 69.071 119.926L69.1787 120.574C69.0844 120.624 68.9196 120.678 68.6845 120.733C68.4486 120.788 68.1811 120.816 67.8818 120.816C67.5052 120.816 67.1792 120.759 66.9046 120.646C66.6307 120.532 66.4047 120.375 66.2273 120.175C66.0499 119.976 65.9182 119.739 65.8323 119.465C65.7464 119.191 65.7035 118.89 65.7035 118.563ZM68.6718 118.139C68.6767 117.79 68.5901 117.503 68.4099 117.279C68.2289 117.055 67.9818 116.942 67.665 116.942C67.4883 116.942 67.3313 116.977 67.1954 117.046C67.0602 117.115 66.944 117.206 66.8511 117.317C66.7561 117.427 66.6828 117.554 66.6307 117.698C66.5779 117.843 66.5434 117.99 66.5265 118.138H68.6718V118.139Z" fill="black"/>
<path d="M72.3484 116.302C72.4146 116.302 72.4913 116.306 72.5765 116.315C72.6624 116.323 72.7476 116.334 72.83 116.348C72.9131 116.362 72.9898 116.376 73.0581 116.39C73.1271 116.404 73.1785 116.416 73.2123 116.427L73.0792 117.101C73.0187 117.079 72.918 117.052 72.7758 117.021C72.6336 116.99 72.4533 116.976 72.2308 116.976C72.0865 116.976 71.9443 116.991 71.8028 117.021C71.6613 117.051 71.5683 117.073 71.5247 117.084V120.717H70.7509V116.577C70.934 116.51 71.1607 116.448 71.4331 116.39C71.7056 116.331 72.0105 116.302 72.3484 116.302Z" fill="black"/>
<path d="M77.8091 116.394C77.5922 117.203 77.3387 117.978 77.048 118.722C76.7565 119.465 76.4756 120.13 76.2038 120.716H75.5054C75.2336 120.13 74.9527 119.465 74.6619 118.722C74.3705 117.978 74.1177 117.203 73.9016 116.394H74.7323C74.7985 116.665 74.8781 116.955 74.9696 117.262C75.0611 117.569 75.1583 117.874 75.2604 118.177C75.3632 118.479 75.4667 118.77 75.5716 119.053C75.6772 119.337 75.7772 119.588 75.8708 119.81C75.9651 119.589 76.0644 119.337 76.1707 119.053C76.2756 118.77 76.3798 118.479 76.4819 118.177C76.5847 117.874 76.6819 117.569 76.7734 117.262C76.8649 116.955 76.9438 116.665 77.01 116.394H77.8091Z" fill="black"/>
<path d="M79.1946 115.612C79.0559 115.612 78.9383 115.567 78.8412 115.475C78.744 115.384 78.6954 115.26 78.6954 115.105C78.6954 114.95 78.7433 114.827 78.8412 114.735C78.9383 114.644 79.0559 114.599 79.1946 114.599C79.3326 114.599 79.4509 114.644 79.548 114.735C79.6452 114.827 79.6931 114.951 79.6931 115.105C79.6931 115.26 79.6452 115.384 79.548 115.475C79.4502 115.566 79.3326 115.612 79.1946 115.612ZM79.5854 120.717H78.8116V116.394H79.5854V120.717Z" fill="black"/>
<path d="M82.9586 120.817C82.6094 120.817 82.3031 120.761 82.0398 120.651C81.7765 120.54 81.5547 120.384 81.3744 120.185C81.1949 119.985 81.0604 119.749 80.9717 119.475C80.883 119.2 80.8394 118.897 80.8394 118.564C80.8394 118.232 80.8872 117.927 80.9844 117.65C81.0816 117.372 81.2188 117.133 81.3963 116.93C81.573 116.728 81.7912 116.57 82.0482 116.457C82.3066 116.344 82.5932 116.286 82.9086 116.286C83.1029 116.286 83.2965 116.303 83.4915 116.336C83.6852 116.37 83.871 116.423 84.0484 116.495L83.8745 117.151C83.757 117.096 83.6239 117.051 83.4704 117.018C83.3183 116.985 83.1564 116.968 82.9846 116.968C82.5523 116.968 82.2214 117.105 81.9905 117.376C81.761 117.647 81.6455 118.044 81.6455 118.564C81.6455 118.797 81.6723 119.011 81.7251 119.205C81.7772 119.399 81.8602 119.566 81.9743 119.704C82.0876 119.842 82.2334 119.949 82.4101 120.023C82.5875 120.099 82.8044 120.136 83.0585 120.136C83.2634 120.136 83.4493 120.116 83.6154 120.077C83.7823 120.039 83.9119 119.997 84.0069 119.953L84.1153 120.601C84.071 120.629 84.0069 120.655 83.9238 120.681C83.8407 120.706 83.7471 120.727 83.6415 120.747C83.5366 120.766 83.4239 120.783 83.305 120.797C83.1846 120.809 83.0698 120.817 82.9586 120.817Z" fill="black"/>
<path d="M84.8327 118.563C84.8327 118.181 84.8876 117.846 84.9989 117.562C85.1094 117.276 85.2565 117.039 85.4396 116.851C85.6219 116.662 85.8332 116.521 86.0718 116.426C86.3098 116.332 86.5541 116.285 86.8034 116.285C87.3856 116.285 87.8313 116.467 88.1418 116.83C88.4522 117.193 88.6078 117.746 88.6078 118.488C88.6078 118.521 88.6078 118.564 88.6078 118.616C88.6078 118.669 88.605 118.718 88.5994 118.762H85.6395C85.6726 119.211 85.8022 119.552 86.0303 119.785C86.257 120.018 86.6118 120.134 87.0948 120.134C87.3659 120.134 87.5947 120.111 87.7806 120.063C87.9664 120.016 88.1059 119.971 88.2009 119.926L88.3086 120.574C88.2136 120.624 88.0495 120.678 87.8137 120.733C87.5778 120.788 87.3103 120.816 87.0111 120.816C86.6344 120.816 86.3091 120.759 86.0338 120.646C85.7599 120.532 85.5339 120.375 85.3565 120.175C85.1791 119.976 85.0474 119.739 84.9615 119.465C84.8756 119.191 84.8327 118.89 84.8327 118.563ZM87.801 118.139C87.8059 117.79 87.7193 117.503 87.5391 117.279C87.3581 117.055 87.1103 116.942 86.7942 116.942C86.6175 116.942 86.4605 116.977 86.3246 117.046C86.1887 117.115 86.0732 117.206 85.9796 117.317C85.8846 117.427 85.8113 117.554 85.7592 117.698C85.7064 117.843 85.6719 117.99 85.6557 118.138H87.801V118.139Z" fill="black"/>
<path d="M90.8855 120.159C91.2009 120.159 91.4346 120.118 91.5874 120.035C91.7402 119.952 91.8162 119.819 91.8162 119.636C91.8162 119.448 91.7416 119.298 91.5916 119.187C91.4417 119.076 91.1953 118.951 90.8517 118.812C90.6855 118.746 90.5257 118.678 90.3736 118.608C90.2208 118.539 90.0892 118.458 89.9779 118.363C89.8667 118.27 89.778 118.156 89.7118 118.023C89.6456 117.89 89.6125 117.727 89.6125 117.533C89.6125 117.15 89.7541 116.847 90.0364 116.622C90.3194 116.398 90.7038 116.286 91.1917 116.286C91.3135 116.286 91.436 116.293 91.5578 116.307C91.6796 116.321 91.793 116.337 91.8986 116.357C92.0028 116.376 92.0964 116.397 92.1774 116.419C92.257 116.441 92.3196 116.461 92.3647 116.477L92.2225 117.142C92.1394 117.098 92.0091 117.052 91.8317 117.005C91.6543 116.958 91.441 116.934 91.191 116.934C90.9749 116.934 90.7862 116.977 90.6257 117.064C90.4651 117.15 90.3842 117.284 90.3842 117.467C90.3842 117.561 90.4032 117.644 90.4391 117.716C90.475 117.788 90.5306 117.853 90.6053 117.911C90.6799 117.97 90.7728 118.024 90.8841 118.073C90.9939 118.123 91.1277 118.176 91.2826 118.232C91.4874 118.308 91.6705 118.385 91.831 118.46C91.9922 118.534 92.1288 118.622 92.2429 118.722C92.3562 118.822 92.4435 118.942 92.5048 119.084C92.5653 119.224 92.5963 119.398 92.5963 119.603C92.5963 120.002 92.4478 120.304 92.1521 120.509C91.8542 120.715 91.4325 120.817 90.8841 120.817C90.5018 120.817 90.2018 120.785 89.9857 120.721C89.7702 120.658 89.6224 120.609 89.5457 120.575L89.6865 119.911C89.7752 119.945 89.9174 119.994 90.111 120.06C90.306 120.127 90.5644 120.159 90.8855 120.159Z" fill="black"/>
<path d="M32.3439 110.336C31.2477 110.336 30.2487 110.157 29.3482 109.795C28.447 109.435 27.6732 108.91 27.0283 108.218C26.3827 107.528 25.8828 106.676 25.5301 105.661C25.1767 104.649 24.9999 103.488 24.9999 102.182C24.9999 100.876 25.1992 99.7161 25.597 98.7023C25.9948 97.6884 26.532 96.8365 27.2079 96.1451C27.8837 95.4552 28.6723 94.9292 29.5735 94.5688C30.4747 94.2083 31.4357 94.0273 32.4566 94.0273C33.1022 94.0273 33.6838 94.0724 34.2019 94.1625C34.7201 94.2526 35.17 94.3582 35.5537 94.4779C35.936 94.5983 36.2479 94.718 36.4887 94.8384C36.7288 94.9588 36.8942 95.0489 36.9844 95.1088L36.3535 96.9105C36.2184 96.821 36.0226 96.7232 35.7678 96.6176C35.5122 96.5127 35.2235 96.407 34.9004 96.3021C34.5779 96.1972 34.2252 96.1113 33.8415 96.0431C33.4592 95.9755 33.0719 95.9417 32.6819 95.9417C31.8553 95.9417 31.1125 96.0846 30.4514 96.3697C29.791 96.6549 29.2278 97.0682 28.7617 97.6089C28.2963 98.1496 27.9401 98.8058 27.6915 99.5795C27.4437 100.353 27.3205 101.22 27.3205 102.181C27.3205 103.112 27.4289 103.961 27.6465 104.726C27.864 105.492 28.1907 106.149 28.6265 106.698C29.0623 107.246 29.6066 107.67 30.2599 107.97C30.9133 108.271 31.6751 108.42 32.5467 108.42C33.5528 108.42 34.3857 108.316 35.0468 108.106C35.7072 107.896 36.2036 107.708 36.5338 107.542L37.097 109.344C36.9921 109.419 36.8041 109.513 36.5338 109.626C36.2634 109.739 35.9255 109.847 35.5199 109.952C35.1144 110.057 34.6413 110.147 34.1006 110.223C33.5598 110.299 32.9741 110.336 32.3439 110.336Z" fill="black"/>
<path d="M38.315 109.999V92.879L40.4103 92.5186V98.5101C40.8003 98.3601 41.2171 98.2432 41.66 98.1609C42.1028 98.0785 42.5421 98.0369 42.978 98.0369C43.9087 98.0369 44.6818 98.1679 45.2978 98.4312C45.9139 98.6938 46.4053 99.062 46.7735 99.5345C47.1403 100.008 47.4001 100.574 47.5508 101.235C47.7008 101.897 47.7754 102.625 47.7754 103.421V109.999H45.6801V103.871C45.6801 103.15 45.6315 102.535 45.5337 102.024C45.4358 101.514 45.2746 101.1 45.0493 100.786C44.824 100.47 44.5234 100.241 44.1481 100.098C43.7721 99.9548 43.3068 99.8837 42.752 99.8837C42.5267 99.8837 42.2929 99.8992 42.0528 99.9294C41.8127 99.959 41.5832 99.9935 41.3657 100.03C41.1474 100.068 40.9524 100.109 40.7799 100.155C40.6074 100.2 40.4835 100.237 40.4089 100.267V109.999H38.315V109.999Z" fill="black"/>
<path d="M49.3778 104.164C49.3778 103.128 49.5271 102.223 49.8277 101.45C50.1283 100.677 50.5261 100.035 51.0218 99.524C51.5174 99.0136 52.0877 98.6305 52.734 98.3757C53.3797 98.1201 54.0408 97.9927 54.716 97.9927C56.293 97.9927 57.5019 98.4848 58.3432 99.4677C59.1839 100.451 59.6049 101.949 59.6049 103.962C59.6049 104.052 59.6049 104.169 59.6049 104.312C59.6049 104.454 59.5972 104.586 59.5824 104.706H51.5632C51.6526 105.922 52.006 106.846 52.6221 107.477C53.2374 108.108 54.1985 108.423 55.5052 108.423C56.2409 108.423 56.8605 108.359 57.3639 108.232C57.8666 108.104 58.2454 107.98 58.501 107.86L58.7938 109.617C58.5383 109.753 58.0919 109.895 57.4533 110.045C56.8154 110.195 56.091 110.271 55.2799 110.271C54.2583 110.271 53.3761 110.117 52.6334 109.809C51.8899 109.501 51.2781 109.077 50.7979 108.536C50.317 107.994 49.9608 107.353 49.7277 106.61C49.494 105.865 49.3778 105.051 49.3778 104.164ZM57.4195 103.015C57.4343 102.069 57.1977 101.292 56.7098 100.684C56.2219 100.076 55.5496 99.7711 54.6934 99.7711C54.2126 99.7711 53.7887 99.8648 53.4205 100.053C53.053 100.241 52.7411 100.485 52.4862 100.786C52.2306 101.086 52.0314 101.431 51.8892 101.821C51.7463 102.212 51.6526 102.61 51.6076 103.015H57.4195Z" fill="black"/>
<path d="M64.0961 108.489C64.9523 108.489 65.5866 108.377 65.9999 108.151C66.4125 107.926 66.6195 107.566 66.6195 107.071C66.6195 106.56 66.4167 106.155 66.0112 105.854C65.6049 105.554 64.9375 105.216 64.006 104.84C63.5547 104.661 63.1238 104.476 62.7106 104.288C62.298 104.1 61.941 103.879 61.6411 103.624C61.3405 103.369 61.0997 103.06 60.9201 102.7C60.7399 102.34 60.6498 101.897 60.6498 101.371C60.6498 100.335 61.0321 99.5127 61.7981 98.9044C62.5641 98.2968 63.6075 97.9927 64.929 97.9927C65.2592 97.9927 65.5894 98.0117 65.9203 98.049C66.2505 98.087 66.5589 98.1321 66.8441 98.1842C67.1292 98.237 67.3805 98.294 67.5988 98.3532C67.8164 98.413 67.9853 98.4658 68.1057 98.5109L67.7227 100.313C67.4981 100.194 67.1447 100.07 66.6638 99.9422C66.1829 99.8141 65.6049 99.75 64.9297 99.75C64.344 99.75 63.8335 99.8669 63.3984 100.099C62.9626 100.333 62.745 100.696 62.745 101.192C62.745 101.447 62.7936 101.673 62.8915 101.867C62.9894 102.062 63.1393 102.239 63.3428 102.397C63.5456 102.555 63.7962 102.701 64.0968 102.837C64.3975 102.972 64.7572 103.114 65.1783 103.264C65.7338 103.474 66.2287 103.681 66.6645 103.884C67.1003 104.086 67.4714 104.323 67.7797 104.593C68.0874 104.864 68.3233 105.19 68.4894 105.573C68.6542 105.956 68.7373 106.425 68.7373 106.981C68.7373 108.062 68.3352 108.882 67.5319 109.436C66.7286 109.992 65.5838 110.27 64.0968 110.27C63.0605 110.27 62.2494 110.183 61.6636 110.011C61.0778 109.838 60.6801 109.707 60.4695 109.616L60.8525 107.814C61.0926 107.904 61.4756 108.04 62.0016 108.22C62.5268 108.399 63.2245 108.489 64.0961 108.489Z" fill="black"/>
<path d="M70.2186 109.999V92.879L72.3138 92.5186V98.5101C72.7039 98.3601 73.1207 98.2432 73.5635 98.1609C74.0064 98.0785 74.4457 98.0369 74.8815 98.0369C75.8123 98.0369 76.5853 98.1679 77.2014 98.4312C77.8174 98.6938 78.3089 99.062 78.6771 99.5345C79.0439 100.008 79.3037 100.574 79.4544 101.235C79.6043 101.897 79.679 102.625 79.679 103.421V109.999H77.5837V103.871C77.5837 103.15 77.5351 102.535 77.4372 102.024C77.3394 101.514 77.1782 101.1 76.9529 100.786C76.7276 100.47 76.4269 100.241 76.0517 100.098C75.6757 99.9548 75.2103 99.8837 74.6555 99.8837C74.4302 99.8837 74.1972 99.8992 73.9564 99.9294C73.7163 99.959 73.4868 99.9935 73.2692 100.03C73.051 100.068 72.856 100.109 72.6835 100.155C72.511 100.2 72.3871 100.237 72.3124 100.267V109.999H70.2186V109.999Z" fill="black"/>
<path d="M82.9029 96.1674C82.5269 96.1674 82.208 96.0434 81.9454 95.7956C81.682 95.5478 81.5511 95.2134 81.5511 94.7937C81.5511 94.3727 81.682 94.039 81.9454 93.7912C82.208 93.5426 82.5269 93.4194 82.9029 93.4194C83.2781 93.4194 83.5971 93.5433 83.8604 93.7912C84.123 94.039 84.2547 94.3727 84.2547 94.7937C84.2547 95.2141 84.123 95.5485 83.8604 95.7956C83.5978 96.0434 83.2781 96.1674 82.9029 96.1674ZM83.9618 109.999H81.8665V98.2852H83.9618V109.999Z" fill="black"/>
<path d="M90.6496 98.0376C90.8298 98.0376 91.0361 98.0482 91.2691 98.0707C91.5022 98.0932 91.731 98.1235 91.957 98.1608C92.1816 98.1981 92.3886 98.2354 92.5759 98.2735C92.7631 98.3115 92.9025 98.3453 92.9927 98.3748L92.6322 100.2C92.4667 100.14 92.1929 100.068 91.8106 99.9857C91.4275 99.9033 90.9347 99.8618 90.3349 99.8618C89.9434 99.8618 89.5576 99.9033 89.1746 99.9857C88.7916 100.069 88.5402 100.125 88.4205 100.155V109.998H86.3253V98.7804C86.8209 98.6008 87.437 98.4312 88.1727 98.2735C88.9084 98.1157 89.7336 98.0376 90.6496 98.0376Z" fill="black"/>
<path d="M93.0236 104.164C93.0236 103.128 93.1736 102.223 93.4742 101.45C93.7741 100.677 94.1726 100.035 94.6676 99.524C95.1632 99.0136 95.7335 98.6305 96.3799 98.3757C97.0255 98.1201 97.6866 97.9927 98.3618 97.9927C99.9389 97.9927 101.148 98.4848 101.988 99.4677C102.83 100.451 103.25 101.949 103.25 103.962C103.25 104.052 103.25 104.169 103.25 104.312C103.25 104.454 103.242 104.586 103.227 104.706H95.2083C95.2977 105.922 95.6512 106.846 96.2672 107.477C96.8825 108.108 97.8436 108.423 99.1503 108.423C99.886 108.423 100.505 108.359 101.009 108.232C101.512 108.104 101.89 107.98 102.146 107.86L102.439 109.617C102.183 109.753 101.736 109.895 101.098 110.045C100.461 110.195 99.7361 110.271 98.925 110.271C97.9034 110.271 97.0212 110.117 96.2785 109.809C95.5343 109.501 94.9225 109.077 94.4423 108.536C93.9614 107.994 93.6052 107.353 93.3721 106.61C93.1398 105.865 93.0236 105.051 93.0236 104.164ZM101.066 103.015C101.08 102.069 100.844 101.292 100.356 100.684C99.8677 100.076 99.1954 99.7711 98.3392 99.7711C97.8584 99.7711 97.4345 99.8648 97.0663 100.053C96.6988 100.241 96.3869 100.485 96.132 100.786C95.8765 101.086 95.6772 101.431 95.5343 101.821C95.3914 102.212 95.2977 102.61 95.2527 103.015H101.066Z" fill="black"/>
<path d="M116.067 110.336C114.971 110.336 113.973 110.157 113.072 109.796C112.171 109.435 111.397 108.91 110.751 108.218C110.105 107.529 109.606 106.676 109.254 105.661C108.9 104.648 108.724 103.488 108.724 102.182C108.724 100.875 108.923 99.7156 109.321 98.7018C109.718 97.6879 110.256 96.836 110.931 96.1447C111.608 95.4547 112.396 94.9288 113.297 94.5683C114.197 94.2078 115.159 94.0269 116.18 94.0269C116.826 94.0269 117.408 94.0719 117.926 94.162C118.444 94.2522 118.894 94.3578 119.277 94.4775C119.66 94.5978 119.971 94.7175 120.212 94.8379C120.452 94.9583 120.617 95.0484 120.708 95.1083L120.077 96.91C119.942 96.8205 119.746 96.7227 119.491 96.6171C119.236 96.5122 118.947 96.4066 118.624 96.3017C118.301 96.1968 117.949 96.1109 117.566 96.0426C117.183 95.975 116.796 95.9412 116.406 95.9412C115.579 95.9412 114.837 96.0841 114.176 96.3692C113.515 96.6544 112.952 97.0677 112.487 97.6084C112.021 98.1491 111.665 98.8053 111.416 99.579C111.168 100.352 111.045 101.219 111.045 102.181C111.045 103.111 111.153 103.96 111.372 104.726C111.59 105.492 111.916 106.149 112.351 106.697C112.787 107.245 113.332 107.669 113.985 107.97C114.637 108.271 115.4 108.42 116.272 108.42C117.277 108.42 118.111 108.316 118.772 108.105C119.432 107.895 119.928 107.707 120.258 107.542L120.822 109.344C120.716 109.419 120.528 109.513 120.258 109.625C119.988 109.739 119.65 109.847 119.245 109.952C118.839 110.056 118.366 110.147 117.825 110.222C117.284 110.299 116.698 110.336 116.067 110.336Z" fill="black"/>
<path d="M132.128 104.142C132.128 105.073 131.993 105.915 131.723 106.665C131.452 107.415 131.073 108.061 130.585 108.602C130.097 109.143 129.515 109.559 128.84 109.852C128.163 110.145 127.427 110.291 126.632 110.291C125.835 110.291 125.1 110.145 124.424 109.852C123.748 109.559 123.166 109.142 122.678 108.602C122.191 108.061 121.811 107.415 121.541 106.665C121.27 105.914 121.136 105.073 121.136 104.142C121.136 103.227 121.27 102.389 121.541 101.631C121.811 100.872 122.191 100.222 122.678 99.6817C123.166 99.141 123.749 98.7249 124.424 98.432C125.099 98.1391 125.835 97.9927 126.632 97.9927C127.427 97.9927 128.163 98.1391 128.84 98.432C129.515 98.7249 130.096 99.1417 130.585 99.6817C131.073 100.223 131.452 100.872 131.723 101.631C131.993 102.389 132.128 103.227 132.128 104.142ZM129.944 104.142C129.944 102.82 129.646 101.773 129.053 101C128.459 100.226 127.653 99.8394 126.632 99.8394C125.611 99.8394 124.803 100.226 124.21 101C123.617 101.773 123.321 102.82 123.321 104.142C123.321 105.463 123.617 106.511 124.21 107.284C124.804 108.058 125.611 108.444 126.632 108.444C127.653 108.444 128.46 108.058 129.053 107.284C129.646 106.511 129.944 105.463 129.944 104.142Z" fill="black"/>
<path d="M143.193 109.661C142.711 109.781 142.078 109.909 141.29 110.043C140.501 110.179 139.589 110.246 138.552 110.246C137.652 110.246 136.893 110.114 136.277 109.852C135.661 109.589 135.166 109.218 134.791 108.737C134.416 108.257 134.145 107.69 133.981 107.036C133.815 106.383 133.732 105.659 133.732 104.863V98.2856H135.828V104.412C135.828 105.839 136.052 106.86 136.503 107.476C136.955 108.092 137.712 108.4 138.779 108.4C139.003 108.4 139.235 108.393 139.476 108.378C139.717 108.363 139.941 108.344 140.152 108.321C140.363 108.299 140.554 108.275 140.727 108.254C140.899 108.231 141.022 108.205 141.098 108.175V98.2856H143.193V109.661Z" fill="black"/>
<path d="M145.555 98.6227C146.035 98.503 146.673 98.3748 147.471 98.2404C148.265 98.1052 149.183 98.0376 150.218 98.0376C151.149 98.0376 151.922 98.1686 152.539 98.4319C153.154 98.6945 153.646 99.0627 154.015 99.5351C154.382 100.008 154.642 100.575 154.792 101.236C154.942 101.897 155.016 102.625 155.016 103.422V109.999H152.921V103.872C152.921 103.151 152.873 102.536 152.775 102.025C152.677 101.514 152.516 101.101 152.291 100.786C152.065 100.471 151.764 100.242 151.39 100.098C151.014 99.9554 150.548 99.8843 149.994 99.8843C149.769 99.8843 149.535 99.8928 149.295 99.9069C149.054 99.9224 148.826 99.9414 148.608 99.9632C148.39 99.9857 148.195 100.012 148.022 100.042C147.85 100.072 147.724 100.095 147.65 100.11V109.999H145.555V98.6227Z" fill="black"/>
<path d="M159.235 98.2855H163.673V100.043H159.235V105.449C159.235 106.034 159.28 106.519 159.372 106.902C159.46 107.284 159.596 107.585 159.775 107.803C159.956 108.021 160.182 108.175 160.452 108.265C160.723 108.354 161.038 108.4 161.398 108.4C162.029 108.4 162.536 108.328 162.918 108.186C163.302 108.043 163.568 107.942 163.718 107.881L164.124 109.615C163.913 109.721 163.545 109.852 163.021 110.01C162.494 110.168 161.894 110.246 161.218 110.246C160.421 110.246 159.765 110.145 159.246 109.942C158.729 109.739 158.312 109.435 157.997 109.03C157.682 108.624 157.459 108.125 157.333 107.532C157.206 106.938 157.141 106.252 157.141 105.47V95.0187L159.236 94.6582V98.2855H159.235Z" fill="black"/>
<path d="M164.32 112.184C164.485 112.258 164.699 112.33 164.963 112.398C165.223 112.465 165.484 112.5 165.739 112.5C166.565 112.5 167.211 112.315 167.676 111.947C168.141 111.579 168.562 110.982 168.938 110.157C167.991 108.354 167.109 106.444 166.291 104.424C165.472 102.404 164.792 100.358 164.252 98.2856H166.504C166.67 98.9608 166.869 99.6902 167.102 100.471C167.335 101.252 167.594 102.055 167.879 102.881C168.165 103.707 168.473 104.533 168.803 105.359C169.133 106.185 169.48 106.981 169.84 107.747C170.411 106.17 170.906 104.608 171.326 103.061C171.745 101.514 172.144 99.9226 172.52 98.2856H174.681C174.141 100.494 173.54 102.615 172.88 104.65C172.219 106.685 171.505 108.588 170.739 110.359C170.439 111.035 170.128 111.617 169.805 112.105C169.481 112.593 169.124 112.995 168.734 113.31C168.343 113.626 167.906 113.858 167.418 114.009C166.93 114.159 166.377 114.234 165.762 114.234C165.596 114.234 165.424 114.223 165.244 114.2C165.063 114.178 164.887 114.147 164.714 114.111C164.542 114.073 164.383 114.032 164.24 113.986C164.097 113.942 163.997 113.904 163.936 113.873L164.32 112.184Z" fill="black"/>
<path d="M161.849 66.7455C161.846 66.7272 161.846 66.7167 161.834 66.673C161.792 66.6251 161.89 66.6709 161.684 66.4315L161.688 66.428C161.677 66.4167 161.665 66.4048 161.651 66.3928C161.628 66.3646 161.57 66.3287 161.492 66.3006C161.422 66.271 161.344 66.252 161.271 66.2562C161.256 66.2576 161.245 66.2597 161.231 66.2611C161.199 66.2626 161.168 66.2675 161.135 66.2752C160.934 66.309 160.932 66.3449 160.704 66.4167C159.266 66.9539 153.836 69.09 146.677 70.4812C144.389 67.0947 142.648 63.918 141.45 61.5397C140.809 60.2633 140.321 59.2171 139.99 58.4856C139.823 58.1209 139.695 57.8371 139.605 57.6372C139.56 57.5358 139.522 57.459 139.491 57.395C139.476 57.3619 139.462 57.3337 139.435 57.2964C139.423 57.2753 139.412 57.2535 139.376 57.2119C139.317 57.188 139.339 57.0563 138.933 57C138.51 57.0563 138.531 57.188 138.475 57.2119C138.321 57.426 138.334 57.4633 138.213 57.7055C137.566 59.1277 135.238 64.4595 131.174 70.4812C127.214 69.7117 123.772 68.7127 121.253 67.8847C119.898 67.4383 118.81 67.0405 118.044 66.7561C117.662 66.6125 117.361 66.497 117.145 66.4174C116.906 66.3428 116.914 66.3048 116.686 66.271L116.686 66.2696C116.663 66.2661 116.63 66.2604 116.589 66.259C116.585 66.2583 116.581 66.2583 116.577 66.2576C116.509 66.2506 116.435 66.2682 116.364 66.2978C116.345 66.3055 116.324 66.3132 116.305 66.3231C116.248 66.3548 116.202 66.3907 116.163 66.4273C116.113 66.4738 116.075 66.5231 116.057 66.5681C115.996 66.6808 115.99 66.7821 115.991 66.8054C115.989 66.8427 115.991 66.8427 115.989 66.8455C116.03 67.1863 116.065 67.1419 116.15 67.4123C116.709 68.9105 119.007 74.7359 120.388 82.3439C121.453 86.6449 123.28 90.551 127.023 92.2218C128.229 92.7956 129.648 93.099 131.126 93.099C133.783 93.099 136.649 92.1105 138.927 89.9843C141.193 92.107 144.061 93.0983 146.723 93.0983C148.203 93.0983 149.617 92.797 150.841 92.2168C154.569 90.5539 156.398 86.6449 157.455 82.3812C158.249 77.9999 159.339 74.2296 160.232 71.5225C160.678 70.1679 161.073 69.0795 161.361 68.3149C161.501 67.9319 161.616 67.6305 161.699 67.4116C161.766 67.1905 161.803 67.182 161.837 66.9969C161.851 66.949 161.858 66.8983 161.858 66.8469C161.858 66.8462 161.858 66.8462 161.858 66.8455V66.842C161.858 66.842 161.858 66.842 161.858 66.8413C161.858 66.8019 161.856 66.7751 161.849 66.7455ZM146.23 71.8985C147.816 74.5282 148.913 77.2057 148.908 79.6945C148.908 80.6534 148.749 81.587 148.397 82.4995C147.389 85.3812 144.255 88.077 140.297 88.536C142.023 86.3844 142.831 83.8013 142.831 81.3941C142.831 79.9142 142.529 78.4962 141.946 77.2733C141.441 76.1411 140.711 75.2019 139.843 74.3881C141.511 73.2066 143.633 72.3808 145.981 71.7985V71.7992C146.035 71.7887 146.088 71.7781 146.142 71.7683C146.171 71.8119 146.201 71.8549 146.23 71.8985ZM131.706 71.7676C131.752 71.776 131.797 71.7852 131.844 71.7936C134.205 72.3773 136.337 73.2045 138.009 74.3895C137.139 75.2062 136.404 76.1496 135.895 77.2895C135.319 78.4983 135.017 79.9142 135.017 81.3934C135.017 83.8006 135.823 86.3781 137.555 88.5367C133.594 88.0784 130.46 85.384 129.458 82.5164C129.099 81.5877 128.94 80.6541 128.94 79.6973C128.935 77.1986 130.039 74.5113 131.635 71.8739C131.659 71.8373 131.681 71.8028 131.706 71.7676ZM140.89 77.7598C141.399 78.8208 141.668 80.0719 141.668 81.3941C141.668 83.7464 140.797 86.2993 138.925 88.3375C137.045 86.2915 136.179 83.7435 136.179 81.3927C136.179 80.0733 136.453 78.8222 136.95 77.7753C137.404 76.7424 138.09 75.8764 138.927 75.1224C139.757 75.8729 140.441 76.7347 140.89 77.7598ZM138.918 58.9671C138.921 58.9622 138.923 58.9573 138.925 58.9523C139.846 60.9772 142.026 65.6043 145.446 70.741C143.024 71.3655 140.741 72.2562 138.927 73.6115C137.114 72.2576 134.828 71.3669 132.4 70.7417C134.585 67.4623 136.267 64.3869 137.437 62.0622C138.088 60.7688 138.582 59.7064 138.918 58.9671ZM127.509 91.1657C124.287 89.7519 122.55 86.2549 121.524 82.1017C120.731 77.7225 119.628 73.903 118.722 71.1586C118.268 69.7856 117.866 68.6803 117.577 67.9065C117.564 67.8734 117.553 67.8403 117.541 67.8087C119.619 68.5887 124.438 70.3214 130.489 71.5345C128.915 74.2029 127.781 76.9571 127.776 79.6966C127.776 80.783 127.96 81.8672 128.366 82.9177C129.553 86.2472 133.051 89.2028 137.488 89.6942C135.552 91.2241 133.257 91.9352 131.126 91.9352C129.804 91.9345 128.553 91.6642 127.509 91.1657ZM156.318 82.1362C155.303 86.2542 153.561 89.7512 150.356 91.1572C149.293 91.6635 148.042 91.9359 146.723 91.9359C144.587 91.9359 142.289 91.222 140.359 89.6935C144.795 89.2042 148.298 86.2486 149.489 82.9029C149.888 81.8637 150.071 80.7802 150.071 79.6938C150.066 76.9431 148.926 74.1832 147.36 71.5324C151.188 70.7636 154.504 69.7955 156.958 68.9879C158.332 68.5345 159.437 68.1318 160.21 67.8432C160.244 67.8305 160.277 67.8185 160.31 67.8065C159.47 70.0398 157.529 75.4399 156.318 82.1362Z" fill="black"/>
</g>
<defs>
<clipPath id="clip0">
<rect width="149.681" height="65.28" fill="white" transform="translate(25 57)"/>
</clipPath>
</defs>
</svg>
