<svg width="200" height="200" viewBox="0 0 200 200" fill="none" xmlns="http://www.w3.org/2000/svg">
<g clip-path="url(#clip0)">
<path d="M46.5957 96.9916V92.4502H48.3099C48.6621 92.4502 48.9378 92.4624 49.2442 92.6618C49.5482 92.868 49.7224 93.1851 49.7224 93.5556C49.7224 94.072 49.4183 94.4562 48.9195 94.5738V94.5884C49.4817 94.7068 49.8583 95.1582 49.8583 95.7403C49.8583 96.1269 49.7285 96.4622 49.4237 96.7013C49.0776 96.974 48.7209 96.9924 48.303 96.9924L46.5957 96.9916ZM48.0464 94.3966C48.3305 94.3966 48.6414 94.4035 48.8744 94.224C49.0608 94.0895 49.1578 93.8474 49.1578 93.6297C49.1578 93.3569 49.0532 93.1652 48.8194 93.0254C48.6216 92.9139 48.4184 92.9139 48.193 92.9139H47.1648V94.3959L48.0464 94.3966ZM48.2786 96.5088C48.5284 96.5088 48.8087 96.4828 49.0073 96.3232C49.1983 96.1796 49.29 95.9603 49.29 95.7143C49.29 95.4424 49.1716 95.172 48.9607 95.0054C48.743 94.8328 48.4573 94.8328 48.1984 94.8328H47.1648V96.508L48.2786 96.5088Z" fill="black"/>
<path d="M55.6495 95.3243C55.6495 95.7742 55.6227 96.1913 55.3157 96.5557C55.0124 96.9201 54.5548 97.0591 54.0919 97.0591C53.6488 97.0591 53.1767 96.9644 52.8727 96.6221C52.5404 96.2524 52.5152 95.7941 52.5152 95.3243V92.4505H53.0843V95.3243C53.0843 95.5955 53.0919 95.9667 53.2562 96.2035C53.4426 96.4762 53.8276 96.5557 54.137 96.5557C54.428 96.5557 54.7595 96.4625 54.9513 96.231C55.1713 95.9721 55.1713 95.6344 55.1713 95.3235V92.4497H55.648V95.3243H55.6495Z" fill="black"/>
<path d="M58.563 96.9916V92.4502H59.1321V96.9916H58.563Z" fill="black"/>
<path d="M64.736 96.9916H62.0532V92.4502H62.6239V96.4882H64.736V96.9916Z" fill="black"/>
<path d="M67.1996 92.4502H68.6373C69.2836 92.4502 69.7694 92.5816 70.1972 93.0919C70.5914 93.5487 70.7495 94.1178 70.7495 94.7068C70.7495 95.2636 70.6028 95.8129 70.2805 96.2697C69.9146 96.78 69.444 96.9916 68.8214 96.9916H67.1996V92.4502ZM68.6022 96.5088C69.127 96.5088 69.5425 96.3904 69.8389 95.9328C70.0673 95.5891 70.172 95.12 70.172 94.7075C70.172 94.2454 70.0528 93.7618 69.7549 93.3898C69.444 92.9994 69.0796 92.9269 68.6022 92.9269H67.7665V96.5088H68.6022Z" fill="black"/>
<path d="M73.4102 96.9916V92.4502H73.9793V96.9916H73.4102Z" fill="black"/>
<path d="M80.2181 96.9916H79.6612L77.3496 93.0308V96.9916H76.8752V92.4502H77.588L79.7383 96.1521V92.4502H80.2181V96.9916V96.9916Z" fill="black"/>
<path d="M86.534 97.0255H86.1842L86.0306 96.4625C85.7472 96.8789 85.2698 97.0591 84.7755 97.0591C84.1629 97.0591 83.716 96.843 83.3562 96.3571C83.0124 95.8873 82.881 95.3434 82.881 94.7674C82.881 93.5758 83.5021 92.3833 84.8458 92.3833C85.7136 92.3833 86.2758 92.8745 86.4874 93.688L85.9519 93.8202C85.8381 93.2511 85.3996 92.86 84.8068 92.86C83.7794 92.86 83.4945 93.9058 83.4945 94.7415C83.4945 95.1318 83.567 95.5955 83.7527 95.9454C83.9574 96.3296 84.363 96.5955 84.8122 96.5955C85.5142 96.5955 85.9519 96.118 85.9519 95.4297V95.1784H84.8206V94.7017H86.534V97.0255V97.0255Z" fill="black"/>
<path d="M96.0263 95.5756C95.8154 96.4366 95.3036 97.0591 94.3449 97.0591C93.0356 97.0591 92.4963 95.7941 92.4963 94.675C92.4963 93.5039 93.0753 92.3833 94.39 92.3833C95.3036 92.3833 95.8406 92.9998 96.027 93.8317L95.4931 93.9325C95.3334 93.3557 95.0469 92.8592 94.3717 92.8592C93.3847 92.8592 93.1204 93.9325 93.1204 94.7216C93.1204 95.0783 93.1807 95.5206 93.332 95.8522C93.5169 96.2578 93.8705 96.5802 94.3449 96.5802C95.0416 96.5802 95.3647 96.0569 95.5114 95.4626L96.0263 95.5756Z" fill="black"/>
<path d="M98.4463 94.7537C98.4463 93.6208 99.0032 92.3833 100.312 92.3833C101.591 92.3833 102.181 93.5483 102.181 94.6681C102.181 95.7811 101.611 97.0591 100.319 97.0591C99.0169 97.0591 98.4463 95.8934 98.4463 94.7537ZM101.585 94.7017C101.585 94.2976 101.518 93.8263 101.315 93.4635C101.108 93.1052 100.758 92.8523 100.332 92.8523C99.3194 92.8523 99.0406 93.9462 99.0406 94.7598C99.0406 95.542 99.3591 96.5947 100.32 96.5947C101.294 96.5955 101.585 95.4824 101.585 94.7017Z" fill="black"/>
<path d="M108.19 96.9916H107.633L105.322 93.0308V96.9916H104.845V92.4502H105.56L107.713 96.1521V92.4502H108.191L108.19 96.9916Z" fill="black"/>
<path d="M112.491 96.9916H111.919V92.9444H110.63V92.4502H113.781V92.9444H112.491V96.9916H112.491Z" fill="black"/>
<path d="M118.902 96.9916L118.061 95.0261H116.802V96.9916H116.232V92.4502H117.936C118.305 92.4502 118.664 92.496 118.968 92.726C119.274 92.9597 119.451 93.3371 119.451 93.7213C119.451 94.2561 119.134 94.7411 118.603 94.8848L119.497 96.9916H118.902ZM117.868 94.5631C118.171 94.5631 118.425 94.5433 118.648 94.3103C118.808 94.1514 118.88 93.9337 118.88 93.7152C118.88 93.4501 118.783 93.2309 118.563 93.0865C118.365 92.9452 118.171 92.9399 117.937 92.9399H116.803V94.5639L117.868 94.5631Z" fill="black"/>
<path d="M125.41 96.9916H124.829L124.369 95.6678H122.689L122.285 96.9916H121.808L123.278 92.4502H123.932L125.41 96.9916ZM123.549 93.059L122.85 95.2384H124.246L123.549 93.059Z" fill="black"/>
<path d="M130.999 95.5756C130.787 96.4366 130.277 97.0591 129.317 97.0591C128.006 97.0591 127.471 95.7941 127.471 94.675C127.471 93.5039 128.047 92.3833 129.364 92.3833C130.277 92.3833 130.813 92.9998 131.001 93.8317L130.465 93.9325C130.305 93.3557 130.018 92.8592 129.343 92.8592C128.36 92.8592 128.093 93.9325 128.093 94.7216C128.093 95.0783 128.154 95.5206 128.304 95.8522C128.489 96.2578 128.841 96.5802 129.317 96.5802C130.012 96.5802 130.338 96.0569 130.482 95.4626L130.999 95.5756Z" fill="black"/>
<path d="M135.032 96.9916H134.46V92.9444H133.171V92.4502H136.324V92.9444H135.034V96.9916H135.032Z" fill="black"/>
<path d="M138.421 94.7537C138.421 93.6208 138.979 92.3833 140.289 92.3833C141.568 92.3833 142.155 93.5483 142.155 94.6681C142.155 95.7811 141.585 97.0591 140.295 97.0591C138.99 97.0591 138.421 95.8934 138.421 94.7537ZM141.562 94.7017C141.562 94.2976 141.494 93.8263 141.29 93.4635C141.086 93.1052 140.735 92.8523 140.31 92.8523C139.299 92.8523 139.02 93.9462 139.02 94.7598C139.02 95.542 139.339 96.5947 140.299 96.5947C141.27 96.5955 141.562 95.4824 141.562 94.7017Z" fill="black"/>
<path d="M147.503 96.9916L146.661 95.0261H145.403V96.9916H144.834V92.4502H146.535C146.905 92.4502 147.263 92.496 147.568 92.726C147.873 92.9597 148.052 93.3371 148.052 93.7213C148.052 94.2561 147.734 94.7411 147.206 94.8848L148.101 96.9916H147.503ZM146.47 94.5631C146.772 94.5631 147.026 94.5433 147.25 94.3103C147.409 94.1514 147.482 93.9337 147.482 93.7152C147.482 93.4501 147.382 93.2309 147.164 93.0865C146.966 92.9452 146.771 92.9399 146.535 92.9399H145.403V94.5639L146.47 94.5631Z" fill="black"/>
<path d="M150.929 95.6549C151.113 96.2851 151.636 96.5761 152.272 96.5761C152.544 96.5761 152.874 96.5166 153.087 96.3508C153.261 96.2179 153.366 95.9849 153.366 95.7664C153.366 95.3096 152.987 95.1247 152.589 95.0262L151.835 94.839C151.531 94.7672 151.253 94.6954 151.016 94.4754C150.776 94.2646 150.644 93.9521 150.644 93.6351C150.644 92.7597 151.398 92.3823 152.187 92.3823C152.948 92.3823 153.559 92.7597 153.805 93.4938L153.286 93.6351C153.189 93.1378 152.658 92.8338 152.175 92.8338C151.744 92.8338 151.202 93.0584 151.202 93.5549C151.202 94.0644 151.599 94.1767 152.023 94.2768L152.705 94.4418C153.003 94.5075 153.301 94.5938 153.531 94.7924C153.816 95.0254 153.956 95.3363 153.956 95.6938C153.956 96.1041 153.778 96.4753 153.446 96.7274C153.115 96.9795 152.67 97.0589 152.263 97.0589C151.333 97.0589 150.725 96.648 150.421 95.7664L150.929 95.6549Z" fill="black"/>
<path d="M44 83.8937C44.6356 83.9953 44.7738 83.9953 45.1741 83.9953C46.7485 83.9953 47.022 83.3903 47.022 81.11V64.3691H50.3748V80.9756C50.3748 82.8197 50.3748 86.9126 45.8104 86.9126C45.5423 86.9126 44.7379 86.9126 44 86.6774V83.8937V83.8937Z" fill="black"/>
<path d="M58.6692 86.7453L57.8977 80.5723H55.2141L54.5113 86.7453H51.5229L54.9788 64.3691H58.2659L61.8219 86.7453H58.6692ZM57.596 77.8574L57.0926 73.8629C56.9581 72.7904 56.4906 68.3957 56.4211 67.7578C56.3859 68.3957 56.3546 68.9648 56.253 70.0044C56.0506 72.1525 56.0185 72.3871 55.8841 73.8965L55.4486 77.8574H57.596Z" fill="black"/>
<path d="M73.0932 86.7453V78.292C73.0932 77.1507 73.1581 73.4619 73.194 70.1389C73.1261 70.5422 72.4202 75.9766 72.0887 78.292L70.7786 86.7453H68.2959L66.9209 78.0903C66.1478 73.2258 66.1478 73.1922 65.8476 70.1389C65.9477 74.5344 66.0149 77.1171 66.0149 78.1919V86.7453H63.3978V64.3691H67.021L68.8658 76.1095C69.1347 77.6198 69.334 79.8672 69.5693 82.4507C69.6702 80.2384 69.8718 78.7603 70.3073 76.1095L72.0887 64.3691H75.8112V86.7453H73.0932V86.7453Z" fill="black"/>
<path d="M78.4925 86.7453V64.3691H86.1078V67.22H81.846V73.5948H84.9337V76.4449H81.846V83.8929H86.4096V86.7446L78.4925 86.7453Z" fill="black"/>
<path d="M90.6713 81.2792C90.708 82.6871 90.7714 84.2294 92.0807 84.2294C93.054 84.2294 93.5222 83.2906 93.5222 81.0432C93.5222 78.4933 92.7171 77.7882 90.6057 76.0106C89.7684 75.3047 87.8212 73.3591 87.8212 69.9047C87.8212 66.7849 88.9946 64.1006 92.148 64.1006C95.3678 64.1006 96.3089 66.7506 96.4747 68.9987L93.3549 69.4013C93.1197 66.9186 92.6506 66.9186 92.1823 66.9186C91.3749 66.9186 91.1411 67.9598 91.1411 69.6022C91.1411 71.214 91.5101 71.9848 93.3549 73.5279C95.3334 75.239 96.8429 76.8845 96.8429 80.4404C96.8429 83.2249 96.241 87.0138 92.1144 87.0138C88.22 87.0138 87.5516 83.7596 87.5516 81.6123L90.6713 81.2792Z" fill="black"/>
<path d="M115.82 81.2792C115.85 82.6871 115.919 84.2294 117.228 84.2294C118.2 84.2294 118.671 83.2906 118.671 81.0432C118.671 78.4933 117.865 77.7882 115.755 76.0106C114.912 75.3047 112.969 73.3591 112.969 69.9047C112.969 66.7849 114.14 64.1006 117.294 64.1006C120.517 64.1006 121.457 66.7506 121.624 68.9987L118.5 69.4013C118.264 66.9186 117.799 66.9186 117.326 66.9186C116.523 66.9186 116.288 67.9598 116.288 69.6022C116.288 71.214 116.658 71.9848 118.5 73.5279C120.48 75.239 121.988 76.8845 121.988 80.4404C121.988 83.2249 121.386 87.0138 117.26 87.0138C113.368 87.0138 112.699 83.7596 112.699 81.6123L115.82 81.2792Z" fill="black"/>
<path d="M128.531 64.1011C132.089 64.1011 133.631 66.9183 133.631 75.5749C133.631 84.2299 132.089 87.0143 128.531 87.0143C124.003 87.0143 123.465 82.1498 123.465 75.5749C123.465 69.2353 123.903 64.1011 128.531 64.1011ZM127.324 82.8892C127.457 83.5263 127.692 84.2299 128.531 84.2299C129.371 84.2299 129.605 83.5577 129.741 82.8892C130.044 81.3782 130.044 76.5481 130.044 76.1455C130.044 72.9585 130.008 71.5476 129.874 69.1665C129.805 67.5234 129.404 66.8855 128.531 66.8855C127.692 66.8855 127.457 67.5234 127.324 68.2277C127.054 69.6355 127.054 75.4389 127.054 75.5749C127.054 77.3204 127.054 81.3782 127.324 82.8892Z" fill="black"/>
<path d="M142.736 86.7453L139.749 76.849C139.649 76.5136 138.943 74.2663 138.309 71.2137C138.411 73.7628 138.576 78.1232 138.576 79.5318V86.7453H135.823V64.3691H138.643L141.494 74.4343C142.266 77.1507 142.535 78.1583 143.038 80.3057C142.87 77.6542 142.735 74.7704 142.735 72.3206V64.3691H145.453V86.7453H142.736V86.7453Z" fill="black"/>
<path d="M150.378 81.2792C150.411 82.6871 150.479 84.2294 151.787 84.2294C152.757 84.2294 153.229 83.2906 153.229 81.0432C153.229 78.4933 152.424 77.7882 150.31 76.0106C149.473 75.3047 147.525 73.3591 147.525 69.9047C147.525 66.7849 148.699 64.1006 151.853 64.1006C155.073 64.1006 156.013 66.7506 156.179 68.9987L153.061 69.4005C152.826 66.9179 152.356 66.9179 151.887 66.9179C151.081 66.9179 150.845 67.9591 150.845 69.6014C150.845 71.2133 151.218 71.9841 153.061 73.5271C155.042 75.2383 156.55 76.8837 156.55 80.4397C156.55 83.2241 155.944 87.0131 151.82 87.0131C147.928 87.0131 147.258 83.7588 147.258 81.6115L150.378 81.2792Z" fill="black"/>
<path d="M109.343 82.2371C109.074 82.3723 108.86 82.4273 108.485 82.4273C107.569 82.4273 107.084 81.888 106.625 81.2425C106.223 81.6993 105.526 82.4525 104.043 82.4525C101.166 82.4525 100.196 79.898 100.196 77.5032C100.196 74.8143 101.247 73.3606 102.405 71.7472C101.544 70.0521 100.977 68.9765 100.977 67.6046C100.976 65.937 101.973 64.0005 103.99 64.0005C105.713 64.0005 107.057 65.29 107.057 67.5786C107.057 68.8696 106.627 70.2148 104.934 72.0971L106.869 76.3749C107.057 75.514 107.164 73.712 107.164 73.4171L109.131 73.6562C108.994 75.7562 108.699 77.1816 108.027 78.8217C108.296 79.4955 108.647 80.06 109.131 80.06C109.239 80.06 109.288 80.0325 109.343 80.005V82.2371V82.2371ZM103.399 73.9534C102.697 75.433 102.697 76.9929 102.697 77.3963C102.697 78.6605 103.024 80.2464 104.259 80.2464C104.473 80.2464 105.283 80.1944 105.792 79.3351L103.399 73.9534ZM104.044 70.1881C104.394 69.7298 105.04 68.8963 105.04 67.5526C105.04 66.503 104.611 66.0722 104.155 66.0722C103.668 66.0722 103.264 66.5832 103.264 67.5526C103.263 68.6542 103.855 69.8092 104.044 70.1881Z" fill="black"/>
<path d="M109.343 83.894H100.197V86.7457H109.343V83.894Z" fill="black"/>
<path d="M70.9787 122.426L46.5682 108.332V102.695L70.9787 116.79V122.426Z" fill="black"/>
<path d="M70.9788 122.426L95.3923 108.332V102.695L70.9788 116.79V122.426Z" fill="black"/>
<path d="M70.9787 133.703L46.5682 119.608V113.972L70.9787 128.066V133.703Z" fill="black"/>
<path d="M70.9788 133.703L80.7445 128.065L75.8631 125.246L70.9788 128.066V133.703Z" fill="black"/>
<path d="M100.276 139.34L75.8631 125.246V119.608L100.276 133.703V139.34Z" fill="black"/>
<path d="M100.276 139.34L124.686 125.246V119.607L100.276 133.703V139.34Z" fill="black"/>
<path d="M129.569 122.426L105.158 108.332V102.695L129.569 116.79V122.426Z" fill="black"/>
<path d="M129.569 122.426L153.981 108.332V102.695L129.569 116.79V122.426Z" fill="black"/>
<path d="M100.276 150.616L75.8631 136.524V130.885L100.276 144.978V150.616Z" fill="black"/>
<path d="M100.276 150.616L124.686 136.523V130.885L100.276 144.977V150.616Z" fill="black"/>
<path d="M129.569 133.703L124.671 130.875L124.686 125.246L129.569 128.066V133.703Z" fill="black"/>
<path d="M129.569 133.703L153.981 119.608V113.972L129.569 128.066V133.703Z" fill="black"/>
</g>
<defs>
<clipPath id="clip0">
<rect width="112.55" height="86.615" fill="white" transform="translate(44 64)"/>
</clipPath>
</defs>
</svg>
