<svg width="200" height="200" viewBox="0 0 200 200" fill="none" xmlns="http://www.w3.org/2000/svg">
<g clip-path="url(#clip0)">
<path d="M122.922 72.5526C136.534 73.2182 150.121 74.4659 163.649 76.3103C169.236 77.0705 173.749 82.3694 173.75 88.0074V112.035C173.75 117.673 169.239 122.972 163.651 123.733C150.124 125.577 136.534 126.825 122.922 127.489L120.454 125.022C134.794 124.39 149.138 123.12 163.301 121.19C167.594 120.594 171.173 116.433 171.182 112.037L171.184 88.0073C171.173 83.6097 167.594 79.4463 163.301 78.8529C149.138 76.9236 134.795 75.6526 120.453 75.0215L122.922 72.5526Z" fill="black"/>
<path d="M120.755 90.9555H120.93C121.361 90.9555 121.515 90.6171 121.515 90.0903C121.515 89.9251 121.499 89.6043 121.331 89.3694C121.208 89.2042 121.07 89.2042 120.93 89.2042H120.755V90.9555Z" fill="black"/>
<path d="M120.755 93.4502H120.884C121.315 93.4502 121.605 93.3171 121.605 92.4366C121.605 92.3821 121.605 92.014 121.498 91.771C121.352 91.4326 121.146 91.4246 120.961 91.4246H120.754L120.755 93.4502Z" fill="black"/>
<path d="M126.256 93.4502H126.018L126.017 89.2034H126.201C126.37 89.2034 126.585 89.2034 126.776 89.6195C126.976 90.0518 127.006 90.8833 127.006 91.3236C127.006 91.5818 127 92.6427 126.784 93.0981C126.754 93.1663 126.616 93.4502 126.256 93.4502Z" fill="black"/>
<path d="M156.199 93.4502H156.437C156.797 93.4502 156.935 93.1663 156.965 93.0981C157.18 92.6427 157.187 91.5818 157.187 91.3236C157.187 90.8833 157.157 90.0518 156.958 89.6195C156.766 89.2034 156.552 89.2034 156.383 89.2034H156.199V93.4502Z" fill="black"/>
<path d="M161.735 91.3146C161.735 91.7477 161.741 92.6346 161.842 93.0347C161.903 93.2937 162.009 93.5054 162.279 93.5054C162.509 93.5054 162.616 93.3723 162.693 93.0499C162.778 92.6658 162.799 91.8102 162.799 91.2994C162.799 89.4711 162.632 89.18 162.265 89.18C162.096 89.18 161.98 89.2746 161.919 89.3925C161.735 89.7919 161.735 90.8287 161.735 91.3074V91.3146Z" fill="black"/>
<path d="M102.819 97.8211H101.114V92.2969H102.819C104.626 92.2969 105.344 93.5237 105.344 95.1949C105.344 96.1499 105.275 97.8211 102.819 97.8211Z" fill="black"/>
<path d="M102.957 107.611H101.114V101.472H102.785C104.116 101.472 104.764 101.539 105.275 102.393C105.753 103.245 105.753 104.337 105.753 104.542C105.753 107.065 104.662 107.611 102.957 107.611Z" fill="black"/>
<path d="M129.64 103.751C129.64 101.846 129.684 100.213 129.951 99.4631C130.195 98.7823 130.549 98.5105 131.014 98.5105C131.589 98.5105 131.922 98.7374 132.165 99.4864C132.455 100.394 132.455 102.526 132.455 103.457C132.455 103.661 132.455 106.315 132.276 107.359C132.145 108.153 131.899 108.698 131.081 108.698C130.326 108.698 130.061 108.199 129.906 107.585C129.64 106.52 129.64 105.044 129.64 103.751Z" fill="black"/>
<path d="M139.713 102.73H140.554C141.727 102.73 142.194 101.937 142.194 100.507C142.194 98.9412 141.528 98.4192 140.554 98.4192H139.713V102.73Z" fill="black"/>
<path fill-rule="evenodd" clip-rule="evenodd" d="M120.251 75.2239L112.106 83.3693L115.547 83.3709V86.3507L107.016 86.3499L107.014 77.8186L109.996 77.8202V81.2611L118.876 72.3826C97.6809 71.5286 76.4445 72.1044 55.3075 74.1083L62.4603 81.2619V77.821L65.4417 77.8194L65.4409 86.3507L56.9096 86.3515V83.3717L60.3506 83.3701L54.267 77.2854C48.3272 77.8643 42.4036 78.5435 36.5136 79.3461C32.4977 79.8842 29.0544 83.88 29.064 88.0073V112.035C29.0536 116.163 32.4985 120.158 36.5152 120.697C42.4059 121.5 48.3286 122.178 54.2674 122.757L53.8119 123.212C48.0031 122.642 42.211 121.974 36.4486 121.189C32.1569 120.594 28.5757 116.432 28.566 112.035L28.5685 88.0073C28.5765 83.6129 32.1545 79.4479 36.4478 78.8529C42.2098 78.0687 48.0022 77.4008 53.8115 76.8299L51.4592 74.4772C46.3319 75.0048 41.2118 75.6142 36.0998 76.3103C30.513 77.0721 26 82.3702 26 88.009V112.036C26 117.676 30.5138 122.973 36.1014 123.734C41.2127 124.431 46.3327 125.039 51.4584 125.566L60.3514 116.673L56.9104 116.672V113.692L65.4417 113.693L65.4426 122.224L62.4611 122.222V118.782L58.1266 123.117C72.0173 124.355 85.9874 124.994 99.8749 124.994C105.218 124.994 110.572 124.9 115.93 124.715L116.293 125.078L109.996 118.782V122.222L107.014 122.224L107.016 113.693L115.547 113.692V116.672L112.106 116.673L119.977 124.545C134.454 123.921 148.938 122.646 163.235 120.698C167.252 120.159 170.695 116.163 170.685 112.036V88.0065C170.695 83.8792 167.252 79.8833 163.235 79.3469C148.937 77.3983 134.453 76.1217 119.977 75.4986L120.251 75.2239ZM57.669 76.4689L58.1253 76.9244C72.0172 75.6863 85.9886 75.0472 99.8749 75.0472C105.217 75.0472 110.574 75.141 115.931 75.3262L116.407 74.8483C110.89 74.6534 105.376 74.5508 99.8749 74.5508C85.8362 74.5508 71.7109 75.2035 57.669 76.4689ZM114.804 93.9441L114.42 91.3861C114.369 91.0446 114.324 90.6282 114.27 90.1387L114.237 89.8401C114.199 90.3252 114.128 90.9146 114.069 91.3388L113.701 93.9441H113.242L112.575 88.7094H113.127L113.403 91.3701L113.41 91.4443C113.473 92.0612 113.495 92.2729 113.517 92.8848L113.521 92.8254C113.545 92.4513 113.582 91.864 113.639 91.4094L113.993 88.7094H114.489L114.859 91.3781C114.906 91.7194 114.945 92.1691 114.978 92.5592L114.978 92.5615L114.991 92.7194C114.996 92.7739 115 92.8265 115.005 92.8768C115.019 92.4214 115.043 91.9274 115.096 91.3701L115.373 88.7094H115.863L115.272 93.9441H114.804ZM117.171 88.7165V93.944H118.893V93.45H117.707V91.4637H118.573V90.9545H117.707V89.2112H118.832V88.7165H117.171ZM120.226 88.7094H120.778C121.207 88.7094 122.004 88.7094 122.004 90.0117C122.004 90.4126 121.935 90.7342 121.772 90.9555C121.667 91.0958 121.536 91.1431 121.459 91.1672C122.042 91.3155 122.147 92.0613 122.147 92.4606C122.147 92.6812 122.118 93.2706 121.827 93.5833C121.52 93.9129 121.236 93.9441 120.732 93.9441H120.226V88.7094ZM126.148 88.7094H125.482L125.482 93.9449H126.218C126.409 93.9449 126.913 93.9449 127.197 93.459C127.527 92.8856 127.565 91.8103 127.565 91.3396C127.565 90.4134 127.458 89.9018 127.305 89.4945C127.012 88.7094 126.463 88.7094 126.148 88.7094ZM128.991 93.944V88.7165H130.654V89.2112H129.528V90.9545H130.392V91.4637H129.528V93.45H130.714V93.944H128.991ZM132.85 93.5132C132.481 93.5132 132.323 93.0898 132.313 92.6656L131.808 92.7442C131.839 93.4034 132.099 94.016 132.835 94.016C133.027 94.016 133.44 93.9687 133.678 93.5758C133.898 93.2077 133.944 92.7442 133.944 92.478C133.944 92.0217 133.814 91.7242 133.723 91.551C133.549 91.2259 133.382 91.1004 132.94 90.7671L132.918 90.7507C132.603 90.515 132.445 90.1694 132.445 89.7692C132.445 89.3218 132.628 89.1566 132.865 89.1566C133.254 89.1566 133.315 89.5952 133.355 89.8791L133.861 89.7917C133.821 89.353 133.637 88.6546 132.888 88.6546C132.267 88.6546 131.906 89.1494 131.906 89.8943C131.906 90.7783 132.423 91.1564 132.83 91.4534L132.834 91.4564C133.018 91.5896 133.386 91.8563 133.386 92.5718C133.386 92.8773 133.331 93.5132 132.85 93.5132ZM135.256 93.9441V88.7094H135.801V93.9441H135.256ZM138.973 93.5285L139.075 93.9687L139.403 93.9679V91.3137H138.391V91.8084H138.889V92.405C138.889 92.9078 138.812 93.4643 138.383 93.4643C138.017 93.4643 137.937 93.0909 137.896 92.905L137.893 92.891C137.809 92.4435 137.809 91.6352 137.809 91.2672C137.809 91.1092 137.809 90.1678 137.886 89.7372C137.925 89.5239 138.008 89.171 138.353 89.171C138.645 89.171 138.76 89.4068 138.829 90.0194L139.325 89.9176C139.312 89.6185 139.243 89.3907 139.197 89.2737C139.074 88.9513 138.851 88.6538 138.353 88.6538C137.419 88.6538 137.25 89.5792 137.25 91.3618C137.25 92.9648 137.39 93.984 138.3 93.984C138.776 93.984 138.914 93.6792 138.973 93.5285ZM142.418 93.9441L141.62 91.237C141.566 91.0646 141.39 90.4431 141.313 90.0822C141.321 90.2635 141.353 91.0798 141.353 91.245V93.9441H140.884V88.7094H141.345L142.126 91.4968C142.141 91.5541 142.164 91.6351 142.191 91.7317C142.261 91.9782 142.359 92.3266 142.427 92.6427C142.401 91.8969 142.394 91.6531 142.394 91.512V88.7102H142.863V93.9449L142.418 93.9441ZM147.068 93.5132C146.7 93.5132 146.54 93.0898 146.53 92.6656L146.027 92.7442C146.058 93.4034 146.318 94.016 147.054 94.016C147.245 94.016 147.657 93.9687 147.895 93.5758C148.117 93.2077 148.165 92.7442 148.165 92.478C148.165 92.0217 148.035 91.7242 147.943 91.551C147.767 91.2232 147.6 91.0983 147.148 90.7588L147.137 90.7507C146.824 90.515 146.663 90.1694 146.663 89.7692C146.663 89.3218 146.846 89.1566 147.084 89.1566C147.471 89.1566 147.534 89.5902 147.575 89.8742L147.575 89.8791L148.08 89.7917C148.04 89.353 147.859 88.6546 147.107 88.6546C146.486 88.6546 146.126 89.1494 146.126 89.8943C146.126 90.7794 146.644 91.1574 147.051 91.4546L147.053 91.4564C147.237 91.5896 147.605 91.8563 147.605 92.5718C147.605 92.8773 147.552 93.5132 147.068 93.5132ZM149.81 93.9441V89.2034H149.166V88.7094H150.999V89.2034H150.346V93.9441H149.81ZM152.753 92.7998V88.7094H152.216V92.7598C152.216 93.2858 152.216 93.9842 153.202 93.9842C154.137 93.9842 154.137 93.2152 154.137 92.7598V88.7094H153.602V92.7998C153.602 93.1519 153.602 93.4823 153.173 93.4823C152.753 93.4823 152.753 93.1439 152.753 92.7998ZM155.663 88.7094H156.329C156.644 88.7094 157.195 88.7094 157.486 89.4945C157.639 89.9018 157.746 90.4134 157.746 91.3396C157.746 91.8103 157.708 92.8856 157.379 93.459C157.095 93.9449 156.589 93.9449 156.397 93.9449H155.662L155.663 88.7094ZM159.179 88.7094V93.9441H159.726V88.7094H159.179ZM162.255 88.6468C163.097 88.6468 163.357 89.3997 163.357 91.2689C163.357 92.9649 163.235 94.009 162.269 94.009C161.482 94.009 161.175 93.4268 161.175 91.3395C161.175 89.7766 161.288 88.6468 162.255 88.6468ZM66.2877 88.6466H61.3417L65.5035 111.397H69.5963L71.5417 100.242C71.7117 99.2524 72.0188 96.7297 72.1552 95.1251C72.2221 97.4715 72.5539 99.3899 72.694 100.2L72.7013 100.242L74.6458 111.397H78.7387L82.8652 88.645H78.806L77.4757 98.7761C77.2031 100.686 76.9986 104.506 76.9641 105.36C76.8968 104.558 76.841 103.875 76.7928 103.283L76.7927 103.282C76.6212 101.183 76.5447 100.246 76.3851 99.2877L74.5761 88.6458H70.3814L68.7094 98.7769C68.5715 99.7311 68.1634 102.939 67.9926 105.36C67.9739 105.042 67.9564 104.719 67.9385 104.389C67.8589 102.92 67.7725 101.326 67.5491 99.4593L66.2877 88.6466ZM88.2756 97.9245H93.7669V101.71H88.2756V107.407H95.4388V111.399H83.6021V88.6467H95.4388V92.6377H88.2756V97.9245ZM102.819 88.6467H96.6112V111.398H103.639C104.968 111.398 107.425 111.363 108.756 109.965C109.472 109.249 110.529 107.781 110.529 105.258C110.529 100.777 107.968 99.8568 107.083 99.5386L107.049 99.5267C108.107 99.0833 109.88 98.3006 109.88 94.5478C109.88 92.3297 109.199 91.0676 108.448 90.2152C107.118 88.6467 105.582 88.6467 102.819 88.6467ZM112.575 96.0376H115.788L116.606 103.23C116.752 104.48 116.808 105.545 116.86 106.528C116.871 106.741 116.882 106.95 116.894 107.156C117.005 105.545 117.272 103.412 117.36 102.777L118.445 96.0384H121.17L122.345 103.117C122.448 103.762 122.499 104.391 122.613 105.818C122.643 106.201 122.679 106.642 122.721 107.156C122.744 106.588 122.876 104.047 123.053 102.777L123.917 96.0384H126.553L123.873 111.172H121.214L119.951 103.748C119.862 103.224 119.641 101.934 119.598 100.349C119.511 101.415 119.31 103.094 119.199 103.752L117.937 111.172H115.279L112.575 96.0376ZM131.014 111.398C134.67 111.398 135.666 108.175 135.666 103.706C135.666 99.1223 134.648 95.8097 131.081 95.8105C127.603 95.8105 126.428 98.8056 126.428 103.434C126.428 105.862 126.716 108.087 127.668 109.674L127.67 109.678C127.854 109.979 128.719 111.398 131.014 111.398ZM136.743 96.0376H140.554C142.148 96.0376 143.057 96.1282 143.832 96.8547C145.206 98.1714 145.206 99.9629 145.206 100.53C145.206 103.389 143.965 104.184 143.278 104.615L145.516 111.172H142.325L140.664 105.227H139.713V111.172H136.743V96.0376ZM149.255 96.0376H146.22L146.219 111.172H149.254V106.36L150.117 104.341L152.201 111.172H155.324L151.891 101.642L154.882 96.0376H151.913L149.698 101.052C149.476 101.528 149.231 102.435 149.144 102.776C149.19 102.186 149.255 101.166 149.255 100.984V96.0376ZM161.099 100.303C160.744 98.8272 160.058 98.5321 159.414 98.5321C158.196 98.5321 158.131 99.7582 158.131 100.008C158.131 101.12 158.594 101.347 160.765 102.368L160.806 102.388C161.729 102.849 163.578 103.771 163.578 106.61C163.578 109.423 161.961 111.398 159.105 111.398C155.738 111.398 155.028 108.789 154.763 107.314L157.179 106.452C157.531 108.063 158.042 108.674 159.105 108.674C160.477 108.674 160.612 107.45 160.612 107.087C160.612 106.066 159.946 105.634 159.371 105.363L159.137 105.243C157.432 104.372 156.573 103.933 155.957 102.934C155.559 102.299 155.294 101.369 155.294 100.417C155.294 98.1256 156.714 95.8105 159.325 95.8105C162.361 95.8105 163.113 98.4199 163.357 99.2819L161.099 100.303ZM38.3996 111.399H41.1982V100.078H43.4868V97.4414H36.172V100.078H38.3996V111.399ZM48.8723 102.945V97.4409H51.6709V111.399H48.8723V105.393H46.809V111.399H44.0104V97.4409H46.8098V102.945H48.8723ZM59.1782 103.133H55.8888V99.8891H60.1789V97.4409H53.0902V111.399H60.1789V108.95H55.8888V105.455H59.1782V103.133Z" fill="black"/>
<path d="M116.407 125.192C110.889 125.388 105.375 125.492 99.8749 125.492C85.8359 125.491 71.7118 124.837 57.6712 123.572L55.3075 125.936C76.4437 127.939 97.6809 128.515 118.876 127.661L116.407 125.192Z" fill="black"/>
</g>
<defs>
<clipPath id="clip0">
<rect width="147.749" height="56.0433" fill="white" transform="translate(26 72)"/>
</clipPath>
</defs>
</svg>
