<svg width="200" height="200" viewBox="0 0 200 200" fill="none" xmlns="http://www.w3.org/2000/svg">
<g clip-path="url(#clip0)">
<path d="M29.3211 83.819C29.3211 82.9523 29.1387 82.6764 29.1387 82.3577C29.1387 81.8987 29.6889 81.5791 30.3272 81.5791C31.8376 81.5791 32.8889 82.4941 32.8889 83.5914V100.558C32.8889 104.946 34.3533 106.684 37.0498 106.684C39.6115 106.684 41.5326 104.673 41.5326 102.02C41.5326 97.9048 38.3778 96.671 35.4966 96.671C34.6736 96.671 33.895 93.2396 35.2659 93.2396C37.4176 93.2396 42.6751 91.8235 42.6751 85.1929C42.6751 81.7163 40.4353 78.1516 34.81 78.1516C27.4468 78.1516 24.4751 82.9983 24.4751 88.576C24.4751 92.5998 26.1211 94.0189 26.2131 94.1553C26.7173 94.0182 26.8997 94.3377 26.8997 94.796C26.8997 95.6197 25.6659 98.6373 24.338 97.6312C23.607 96.9446 21.0001 94.2006 21.0001 88.8519C21.0001 80.3002 26.6253 74.7217 34.764 74.7217C41.669 74.7217 46.1962 78.6083 46.1962 85.1025C46.1962 90.0864 43.6345 93.15 40.2981 94.9331C42.9487 95.7117 45.0996 97.9967 45.0996 101.929C45.0996 106.502 41.6238 109.84 37.0958 109.84C31.1065 109.84 29.3219 106.044 29.3219 100.419V83.819H29.3211Z" fill="black"/>
<path d="M50.5777 103.208C51.2191 104.764 52.4528 106.044 54.8321 106.044C58.3969 106.044 59.8612 103.071 60.4114 100.281C60.8222 98.2237 63.3838 99.1386 63.1992 100.74C62.8796 103.53 61.0497 109.06 54.3287 109.06C50.1678 109.06 46.2352 105.724 46.2352 100.008C46.2352 94.2007 49.7111 89.8574 53.2306 89.8574C55.7931 89.8574 57.3455 91.7325 57.3455 94.4735C57.3455 97.8589 55.0145 101.883 50.5777 103.208ZM50.0306 100.695C52.3157 99.6436 53.7808 97.2635 53.7808 94.5195C53.7808 93.5141 53.4138 92.921 52.8207 92.921C50.5777 92.921 49.8942 97.9501 49.9854 99.8704C49.9854 100.145 50.0306 100.418 50.0306 100.695Z" fill="black"/>
<path d="M76.4176 101.105C76.5999 100.145 77.0589 99.7348 77.5149 99.7348C78.2474 99.7348 79.1164 100.74 79.1164 101.609C79.1164 101.655 79.1164 101.746 79.0704 101.929C78.2926 104.946 76.4635 109.061 72.531 109.061C70.9294 109.061 69.6957 108.286 69.0091 107.187C68.0965 108.238 66.8145 109.061 65.0766 109.061C61.5111 109.061 59.636 106.044 59.636 102.157C59.636 94.5195 64.9394 89.8574 70.5187 89.8574C71.7524 89.8574 72.6214 90.5869 72.6214 91.7785C72.6214 92.554 72.4842 92.8298 72.0283 92.8298C71.616 92.8298 71.1593 92.7386 70.7011 92.7386C67.2275 92.7386 63.1555 95.711 63.1555 102.294C63.1555 104.673 64.1609 106.044 65.7624 106.044C66.9961 106.044 67.8206 104.946 68.3241 103.667V96.626C68.3241 95.757 68.1417 95.4812 68.1417 95.1616C68.1417 94.7049 68.6896 94.3831 69.3302 94.3831C70.8383 94.3831 71.7992 95.298 71.7992 96.3953V103.941C71.7992 104.946 72.2574 106.044 73.354 106.044C75.1831 106.044 76.0068 103.117 76.4176 101.105Z" fill="black"/>
<path d="M85.4306 105.815C84.3325 107.735 82.8681 109.106 80.8566 109.106C77.793 109.106 76.0099 106.501 76.0099 102.524C76.0099 97.6762 77.6559 92.2333 77.6559 92.2333C77.9754 91.4555 77.6559 90.5406 80.0788 90.5406C82.3187 90.5406 80.993 92.3705 80.8106 93.057C79.9877 96.4394 79.4857 98.4509 79.4857 102.293C79.4857 104.764 80.2612 106.088 81.5884 106.088C83.4183 106.088 84.7892 103.116 85.3394 99.9153V92.5528C85.3394 91.2279 84.8804 91.136 84.8804 90.8164C84.8804 90.4946 85.7033 90.313 86.3447 90.313C87.8528 90.313 88.8129 91.2272 88.8129 92.3245V103.939C88.8129 104.35 88.8129 106.042 90.0014 106.042C91.8313 106.042 92.6543 103.116 93.0673 101.104C93.2497 100.144 93.7056 99.7337 94.1646 99.7337C94.8941 99.7337 95.7639 100.739 95.7639 101.608C95.7639 101.654 95.7639 101.745 95.7179 101.928C94.8941 104.945 93.1133 109.06 89.1807 109.06C87.1202 109.061 85.7493 107.644 85.4306 105.815Z" fill="black"/>
<path d="M93.2543 86.4263V78.6991C93.2543 77.3742 92.7953 77.2822 92.7953 76.9604C92.7953 76.6409 93.619 76.4585 94.2596 76.4585C95.7677 76.4585 96.7278 77.3734 96.7278 78.4708V86.4723C99.5178 86.4723 102.719 86.4263 105.829 86.2899C107.109 84.919 106.696 89.3075 105.508 89.3527C101.849 89.4439 99.1531 89.4439 96.7278 89.4439V103.94C96.7278 105.404 97.3232 106.043 98.2834 106.043C100.113 106.043 100.936 103.117 101.348 101.104C101.53 100.144 101.988 99.7343 102.445 99.7343C103.177 99.7343 104.047 100.74 104.047 101.609C104.047 101.655 104.047 101.746 104.001 101.928C103.222 104.946 101.394 109.061 97.4604 109.061C94.9899 109.061 93.2543 107.599 93.2543 103.986V89.4439C91.2428 89.4439 90.0972 89.3527 90.0972 89.3527C88.6351 89.3527 87.8121 86.2899 89.137 86.2899C89.1363 86.2899 90.7838 86.3811 93.2543 86.4263Z" fill="black"/>
<path d="M118.86 99.7346C119.593 99.7346 120.462 100.74 120.462 101.609C120.462 101.655 120.462 101.883 120.416 102.066C118.86 107.371 116.211 110.067 113.739 112.218V120.128C113.739 124.93 111.317 126.62 108.984 126.62C106.424 126.62 104.594 124.289 104.594 121.363C104.594 116.745 107.248 114.413 110.265 111.76V105.953C109.165 107.782 107.749 109.107 105.783 109.107C102.719 109.107 100.935 106.502 100.935 102.525C100.935 97.6772 102.582 92.2343 102.582 92.2343C102.902 91.4565 102.582 90.5416 105.004 90.5416C107.247 90.5416 105.919 92.3714 105.737 93.058C104.913 96.4404 104.412 98.4519 104.412 102.294C104.412 104.765 105.188 106.089 106.515 106.089C108.345 106.089 109.716 103.117 110.265 99.9162V92.5538C110.265 91.6841 110.08 91.4113 110.08 91.0917C110.08 90.6327 110.63 90.314 111.271 90.314C112.779 90.314 113.739 91.2281 113.739 92.3255V108.377C115.386 106.547 116.849 104.26 117.763 101.105C118.04 100.145 118.404 99.7346 118.86 99.7346ZM110.266 120.128V115.236C108.801 116.744 107.795 118.481 107.795 121.225C107.795 122.642 108.254 123.738 108.984 123.738C110.448 123.739 110.266 120.997 110.266 120.128Z" fill="black"/>
<path d="M124.411 83.819C124.411 82.9523 124.229 82.6764 124.229 82.3577C124.229 81.8987 124.779 81.5791 125.417 81.5791C126.928 81.5791 127.979 82.4941 127.979 83.5914V100.558C127.979 104.946 129.443 106.684 132.14 106.684C134.702 106.684 136.623 104.673 136.623 102.02C136.623 97.9048 133.468 96.671 130.587 96.671C129.764 96.671 128.985 93.2396 130.356 93.2396C132.508 93.2396 137.765 91.8235 137.765 85.1929C137.765 81.7163 135.525 78.1516 129.9 78.1516C122.537 78.1516 119.565 82.9983 119.565 88.576C119.565 92.5998 121.211 94.0189 121.303 94.1553C121.807 94.0182 121.99 94.3377 121.99 94.796C121.99 95.6197 120.756 98.6373 119.428 97.6312C118.698 96.9446 116.091 94.2006 116.091 88.8519C116.091 80.3002 121.716 74.7217 129.855 74.7217C136.76 74.7217 141.287 78.6083 141.287 85.1025C141.287 90.0864 138.725 93.15 135.389 94.9331C138.04 95.7117 140.191 97.9967 140.191 101.929C140.191 106.502 136.715 109.84 132.187 109.84C126.197 109.84 124.413 106.044 124.413 100.419V83.819H124.411Z" fill="black"/>
<path d="M161.261 101.563C160.714 104.031 158.839 106.088 155.729 106.088C154.906 106.088 154.174 105.997 153.489 105.769C152.345 107.734 150.608 109.06 148.001 109.06C143.383 109.06 141.325 105.128 141.325 100.557C141.325 93.8349 144.984 89.7651 145.99 89.7651C147.178 89.7651 148.092 92.1874 146.904 92.9659C146.172 94.0632 144.801 95.7559 144.801 100.281C144.801 104.122 146.309 106.043 148.092 106.043C149.372 106.043 150.196 105.358 150.791 104.305C148.642 102.477 147.497 99.4578 147.497 96.1659C147.497 93.2847 148.733 90.8172 151.201 90.8172C153.35 90.8172 155.088 94.0632 155.088 98.4969C155.088 100.19 154.905 101.882 154.446 103.438C154.768 103.529 155.042 103.529 155.361 103.529C157.327 103.529 158.381 102.019 158.655 100.235C158.839 99.1843 161.856 99.0019 161.261 101.563ZM151.661 101.333C151.751 100.603 151.797 99.9161 151.797 99.2302C151.797 96.1207 151.661 93.8356 150.7 93.8356C150.197 93.8356 149.922 94.5651 149.922 95.9843C149.922 98.0417 150.609 99.962 151.661 101.333Z" fill="black"/>
<path d="M158.522 100.877C158.981 99.1847 159.713 94.3824 159.713 92.0514C159.713 90.4506 160.491 89.8575 162.41 89.8575C163.141 89.8575 164.239 90.1311 164.834 91.0912C165.931 92.8751 166.846 94.6583 167.988 97.0805C169.544 94.7035 170.778 92.5073 171.556 91.0452C171.966 90.2223 172.334 89.8115 172.836 89.8115C173.75 89.8115 174.756 91.1364 174.756 92.1885C174.756 92.4621 174.71 92.6927 174.574 92.8751L169.407 100.235C171.144 103.939 172.38 106.225 174.07 106.225C175.899 106.225 176.677 103.116 177.09 101.103C177.272 100.143 177.728 99.7333 178.187 99.7333C178.917 99.7333 179.786 100.739 179.786 101.608C179.786 101.654 179.786 101.745 179.74 101.927C178.962 104.945 177.363 109.06 173.659 109.06C170.915 109.06 169.222 107.507 167.256 103.344L164.193 107.69C163.554 108.695 162.959 109.06 162.135 109.06C161.084 109.06 159.758 108.421 159.758 107.552C159.758 106.957 160.259 107.231 161.724 105.54C163.141 103.893 164.559 102.064 165.839 100.234C164.879 98.0406 163.827 95.9824 162.594 93.8797C162.502 95.8912 161.77 99.9609 161.083 102.156C160.49 104.077 158.112 102.433 158.522 100.877Z" fill="black"/>
<path d="M87.0359 74.8764C87.0359 74.8764 85.5999 72.0412 80.4413 73.34C76.6168 74.3025 71.4474 77.1025 69.7026 78.0841C69.6835 77.9906 69.6038 77.9186 69.5057 77.9186H66.4298C66.3287 77.9186 66.2497 77.9906 66.2329 78.0841C64.485 77.1025 59.3164 74.3025 55.4942 73.3408C50.3325 72.042 48.8965 74.8772 48.8965 74.8772C47.5985 77.3715 48.5226 78.8435 49.3073 79.6619C50.0919 80.4826 51.905 82.3622 56.7233 82.3622H63.7509L57.3072 86.5232C57.2115 86.5829 57.1846 86.7101 57.2475 86.8036L58.7624 89.0603C58.8275 89.1538 58.9547 89.1776 59.0482 89.1155L65.5777 84.7339L66.2237 82.3615V84.9569C66.2237 85.0718 66.3149 85.1638 66.4306 85.1638H69.5057C69.6176 85.1638 69.7095 85.0726 69.7095 84.9569V82.3615L70.3586 84.7339L76.888 89.1155C76.9815 89.1776 77.1087 89.1538 77.1708 89.0603L78.6865 86.8036C78.7486 86.7101 78.7225 86.5829 78.629 86.5232L72.1831 82.3622H79.2099C84.0282 82.3622 85.8405 80.4826 86.6259 79.6619C87.4129 78.8427 88.3347 77.3707 87.0359 74.8764ZM52.2467 79.3201C50.9149 79.3201 50.0927 78.7393 50.0927 78.7393C50.0927 78.7393 49.3019 78.3063 49.1218 77.3944C49.1647 77.5416 49.3647 78.091 50.0766 78.4772C50.0575 77.9561 50.0927 76.7462 50.744 75.7308C50.744 75.7308 51.6322 74.0573 54.1601 74.0573C55.7325 74.0573 61.2137 77.7308 62.9731 78.9377L65.3379 79.3193H52.2467V79.3201ZM67.9685 82.8036C67.6566 82.1699 65.8107 81.599 65.8107 80.2373C65.8107 79.5262 66.3869 78.9477 67.098 78.9477C67.4321 78.9477 67.7386 79.0772 67.9693 79.291C68.1976 79.0772 68.5049 78.9477 68.839 78.9477C69.5494 78.9477 70.1256 79.5262 70.1256 80.2373C70.1248 81.599 68.2789 82.1699 67.9685 82.8036ZM85.8405 78.7393C85.8405 78.7393 85.0198 79.3201 83.6865 79.3201H70.5953L72.9601 78.9385C74.7202 77.7316 80.203 74.0581 81.7738 74.0581C84.3018 74.0581 85.1899 75.7316 85.1899 75.7316C85.8405 76.7469 85.8765 77.9569 85.8574 78.478C86.5685 78.0918 86.7685 77.5423 86.8114 77.3952C86.6313 78.3063 85.8405 78.7393 85.8405 78.7393Z" fill="black"/>
</g>
<defs>
<clipPath id="clip0">
<rect width="158.785" height="53.6205" fill="white" transform="translate(21 73)"/>
</clipPath>
</defs>
</svg>
