<svg width="200" height="200" viewBox="0 0 200 200" fill="none" xmlns="http://www.w3.org/2000/svg">
<g clip-path="url(#clip0)">
<path d="M37.8957 98.6383C37.8957 99.6364 37.0878 100.447 36.089 100.447C35.0901 100.447 34.2806 99.6364 34.2806 98.6383V94.994H26.8066L25.251 105.504H45.3705V94.9932H37.8957V98.6383ZM173.444 94.9932H165.97V98.6375C165.97 99.6364 165.162 100.446 164.163 100.446C163.164 100.446 162.355 99.6372 162.355 98.6375V94.9932H154.881V105.504H175L173.444 94.9932Z" fill="black"/>
<path d="M173.444 82.166H165.97V85.8112C165.97 86.81 165.162 87.6195 164.163 87.6195C163.164 87.6195 162.355 86.81 162.355 85.8112V82.166H37.8957V85.8112C37.8957 86.8092 37.0878 87.6195 36.089 87.6195C35.0901 87.6195 34.2806 86.8092 34.2806 85.8112V82.166H26.8066L25.251 92.6772H175L173.444 82.166Z" fill="black"/>
<path d="M173.444 107.819H165.97V111.465C165.97 112.464 165.162 113.272 164.163 113.272C163.164 113.272 162.355 112.464 162.355 111.465V107.819H37.8957V111.465C37.8957 112.462 37.0878 113.272 36.089 113.272C35.0901 113.272 34.2806 112.462 34.2806 111.465V107.819H26.8066L25.251 118.33H175L173.444 107.819Z" fill="black"/>
<path d="M49.574 95.7898C50.7281 95.6687 51.7855 95.6069 52.7445 95.6069C53.6719 95.6069 54.4667 95.672 55.1299 95.802C55.7931 95.932 56.3369 96.1328 56.7644 96.405C57.191 96.6781 57.5064 97.03 57.7096 97.4608C57.9128 97.8916 58.0144 98.4036 58.0144 98.9977C58.0144 100.136 57.5795 100.991 56.7099 101.565C55.8395 102.138 54.5342 102.425 52.7949 102.425H52.4406V104.754H49.5748V95.7898H49.574ZM53.3061 100.241C53.6564 100.241 53.9466 100.223 54.1782 100.187C54.4098 100.15 54.5935 100.084 54.7276 99.986C54.8617 99.8885 54.9568 99.7601 55.0145 99.6016C55.0706 99.4431 55.099 99.2415 55.099 98.9977C55.099 98.762 55.0771 98.5645 55.0324 98.406C54.9869 98.2475 54.904 98.1208 54.7821 98.0273C54.6602 97.9346 54.4935 97.8688 54.2822 97.8322C54.0701 97.7957 53.7938 97.7778 53.4524 97.7778C53.298 97.7778 53.1184 97.7818 52.916 97.7908C52.712 97.7989 52.5543 97.8103 52.4397 97.8274V100.169C52.7161 100.218 53.0046 100.241 53.3061 100.241Z" fill="black"/>
<path d="M58.9181 95.729H66.4311V97.8763H61.7839V99.1694H65.9427V101.317H61.7839V102.61H66.5531V104.756H58.9173V95.729H58.9181Z" fill="black"/>
<path d="M69.817 97.8758H67.2195V95.7285H75.2941V97.8758H72.6828V104.755H69.817V97.8758Z" fill="black"/>
<path d="M76.1898 95.729H83.7028V97.8763H79.0555V99.1694H83.2143V101.317H79.0555V102.61H83.8247V104.756H76.189V95.729H76.1898Z" fill="black"/>
<path d="M87.4422 95.729C87.4503 95.8111 87.4617 95.9062 87.4788 96.0167C87.495 96.1264 87.5032 96.2378 87.5032 96.3516C87.5032 96.5962 87.4788 96.8579 87.4292 97.1383C87.3804 97.4195 87.3057 97.7056 87.2041 97.999C87.1025 98.2924 86.9765 98.5866 86.8262 98.8833C86.675 99.1799 86.4986 99.4628 86.2954 99.731H84.6976C84.8682 99.4457 84.9983 99.0718 85.0877 98.6086C85.1763 98.1453 85.2218 97.6698 85.2218 97.1814C85.2218 96.8969 85.2047 96.645 85.1722 96.4247C85.1397 96.2053 85.0666 95.9736 84.9528 95.7298H87.4422V95.729Z" fill="black"/>
<path d="M92.1017 104.902C91.8335 104.902 91.5368 104.893 91.2109 104.877C90.8858 104.86 90.5518 104.837 90.2112 104.804C89.8707 104.772 89.5318 104.733 89.1994 104.688C88.8653 104.643 88.5565 104.596 88.272 104.547V102.279C89.0523 102.433 89.7293 102.543 90.3023 102.608C90.8761 102.673 91.41 102.706 91.9066 102.706C92.4187 102.706 92.7746 102.671 92.9738 102.602C93.1729 102.533 93.272 102.405 93.272 102.217C93.272 102.006 93.1688 101.845 92.9608 101.735C92.7535 101.626 92.3983 101.539 91.8944 101.473C90.6664 101.335 89.7699 101.023 89.2043 100.541C88.6394 100.056 88.3566 99.3597 88.3566 98.4486C88.3566 98.0016 88.45 97.6009 88.6378 97.2474C88.8239 96.893 89.0945 96.5947 89.4489 96.3501C89.8024 96.1063 90.2332 95.9193 90.7412 95.7893C91.2499 95.6601 91.8254 95.5942 92.4674 95.5942C92.6877 95.5942 92.9047 95.6007 93.1201 95.6121C93.3354 95.6251 93.5719 95.6454 93.8271 95.6731C94.0832 95.7015 94.3684 95.7405 94.6813 95.7893C94.9942 95.8389 95.3583 95.8998 95.7728 95.973V98.2292C95.3177 98.091 94.8219 97.9829 94.2855 97.9057C93.7491 97.8285 93.2566 97.7903 92.8096 97.7903C91.8587 97.7903 91.3824 97.9805 91.3824 98.3633C91.3824 98.599 91.4946 98.7802 91.7181 98.9062C91.9416 99.0321 92.3301 99.1354 92.8827 99.2166C94.0864 99.4036 94.9569 99.7108 95.4933 100.138C96.0297 100.566 96.2979 101.165 96.2979 101.937C96.2979 102.946 95.9541 103.692 95.2673 104.175C94.5797 104.66 93.5248 104.902 92.1017 104.902Z" fill="black"/>
<path d="M104.445 104.877C103.688 104.877 102.957 104.862 102.25 104.834C101.542 104.805 100.781 104.758 99.9682 104.693V95.7903C100.66 95.7253 101.322 95.6789 101.956 95.6505C102.59 95.6221 103.228 95.6074 103.87 95.6074C105.366 95.6074 106.464 95.8171 107.164 96.2349C107.863 96.6542 108.213 97.3101 108.213 98.205C108.213 99.1648 107.664 99.7906 106.567 100.084V100.133C107.201 100.247 107.684 100.487 108.018 100.853C108.351 101.219 108.517 101.686 108.517 102.256C108.517 103.166 108.191 103.831 107.536 104.25C106.882 104.668 105.852 104.877 104.445 104.877ZM103.994 99.303C104.515 99.303 104.878 99.238 105.085 99.1079C105.293 98.9779 105.397 98.7462 105.397 98.413C105.397 98.0887 105.293 97.8603 105.085 97.7303C104.878 97.6003 104.515 97.5353 103.994 97.5353C103.741 97.5353 103.505 97.5409 103.287 97.5531C103.066 97.5653 102.875 97.5832 102.714 97.6076V99.303H103.994ZM104.25 102.938C104.754 102.938 105.119 102.859 105.348 102.7C105.576 102.542 105.689 102.291 105.689 101.95C105.689 101.625 105.581 101.395 105.366 101.261C105.15 101.126 104.779 101.059 104.251 101.059H102.714V102.901C102.77 102.91 102.827 102.916 102.884 102.919C102.94 102.924 103.023 102.928 103.128 102.932C103.234 102.936 103.374 102.938 103.549 102.938C103.724 102.938 103.957 102.938 104.25 102.938Z" fill="black"/>
<path d="M109.68 95.729H112.545V102.62H116.583V104.755H109.68V95.729Z" fill="black"/>
<path d="M117.438 95.729H120.304V104.755H117.438V95.729Z" fill="black"/>
<path d="M121.879 95.729H124.099L127.623 99.7301L128.44 100.755H128.562V95.729H131.051V104.755H128.831L125.477 100.949L124.489 99.7293H124.368V104.755H121.879V95.729V95.729Z" fill="black"/>
<path d="M135.649 104.877C135.364 104.877 135.08 104.873 134.795 104.864C134.51 104.855 134.234 104.847 133.965 104.834C133.697 104.821 133.448 104.805 133.222 104.785C132.994 104.764 132.798 104.742 132.636 104.717V95.7527C133.49 95.704 134.211 95.6682 134.801 95.643C135.39 95.6186 135.904 95.6064 136.343 95.6064C137.294 95.6064 138.114 95.6975 138.8 95.8812C139.488 96.064 140.054 96.3436 140.502 96.7223C140.949 97.1003 141.281 97.5822 141.496 98.1674C141.712 98.7534 141.819 99.4475 141.819 100.253C141.819 101.083 141.705 101.79 141.478 102.375C141.25 102.96 140.89 103.438 140.398 103.808C139.906 104.178 139.268 104.448 138.484 104.619C137.7 104.791 136.755 104.877 135.649 104.877ZM136.845 102.645C137.242 102.645 137.572 102.608 137.832 102.534C138.092 102.461 138.302 102.334 138.461 102.15C138.619 101.967 138.73 101.722 138.795 101.413C138.86 101.103 138.893 100.718 138.893 100.254C138.893 99.8059 138.856 99.428 138.783 99.1191C138.71 98.8095 138.592 98.5616 138.429 98.3747C138.266 98.1885 138.049 98.0536 137.776 97.9723C137.504 97.8911 137.168 97.8504 136.77 97.8504C136.624 97.8504 136.455 97.8553 136.265 97.8634C136.074 97.8716 135.819 97.887 135.502 97.9122V102.547C135.681 102.58 135.891 102.604 136.13 102.62C136.371 102.637 136.608 102.645 136.845 102.645Z" fill="black"/>
<path d="M146.482 104.902C146.214 104.902 145.918 104.893 145.592 104.877C145.267 104.86 144.933 104.837 144.592 104.804C144.251 104.772 143.913 104.733 143.58 104.688C143.246 104.643 142.937 104.596 142.653 104.547V102.279C143.433 102.433 144.11 102.543 144.683 102.608C145.257 102.673 145.791 102.706 146.287 102.706C146.799 102.706 147.155 102.671 147.354 102.602C147.554 102.533 147.653 102.405 147.653 102.217C147.653 102.006 147.55 101.845 147.341 101.735C147.134 101.626 146.779 101.539 146.275 101.473C145.047 101.335 144.151 101.023 143.585 100.541C143.02 100.056 142.737 99.3597 142.737 98.4486C142.737 98.0016 142.831 97.6009 143.019 97.2474C143.205 96.893 143.475 96.5947 143.83 96.3501C144.183 96.1063 144.614 95.9193 145.122 95.7893C145.631 95.6601 146.206 95.5942 146.848 95.5942C147.068 95.5942 147.285 95.6007 147.501 95.6121C147.716 95.6251 147.953 95.6454 148.208 95.6731C148.464 95.7015 148.749 95.7405 149.062 95.7893C149.375 95.8389 149.739 95.8998 150.154 95.973V98.2292C149.698 98.091 149.203 97.9829 148.666 97.9057C148.13 97.8285 147.637 97.7903 147.19 97.7903C146.239 97.7903 145.763 97.9805 145.763 98.3633C145.763 98.599 145.875 98.7802 146.099 98.9062C146.322 99.0321 146.711 99.1354 147.263 99.2166C148.467 99.4036 149.338 99.7108 149.874 100.138C150.41 100.566 150.679 101.165 150.679 101.937C150.679 102.946 150.335 103.692 149.648 104.175C148.96 104.66 147.906 104.902 146.482 104.902Z" fill="black"/>
</g>
<defs>
<clipPath id="clip0">
<rect width="149.749" height="36.1639" fill="white" transform="translate(25.251 82.166)"/>
</clipPath>
</defs>
</svg>
