<svg width="200" height="200" viewBox="0 0 200 200" fill="none" xmlns="http://www.w3.org/2000/svg">
<g clip-path="url(#clip0)">
<path d="M39.1683 87.6126C39.1683 95.3638 41.0086 97.8425 44.0174 97.8425C47.0256 97.8425 48.8659 95.3638 48.8659 87.6126C48.8659 79.8613 47.0256 77.3834 44.0174 77.3834C41.0086 77.3834 39.1683 79.8613 39.1683 87.6126ZM54.991 117.983C54.991 116.036 54.1057 114.975 50.8137 114.975H38.3528C36.6548 116.604 35.8755 119.151 35.8755 120.71C35.8755 124.851 39.4508 126.975 44.0174 126.975C49.8579 126.975 54.991 123.683 54.991 117.983ZM50.3881 76.7806C55.9468 78.1975 59.6281 81.6661 59.6281 87.6126C59.6281 95.5773 52.9372 99.1519 44.0174 99.1519C41.7516 99.1519 39.628 98.9398 37.7521 98.4438C35.3104 99.8949 33.611 101.063 33.611 102.904C33.611 104.568 34.6365 105.312 36.5843 105.312H53.256C58.53 105.312 63.0618 107.188 63.0618 113.099C63.0618 120.072 56.4783 128.213 42.0704 128.213C31.1331 128.213 26 125.416 26 121.948C26 117.347 33.115 117.63 36.9736 114.975H35.2742C32.5137 114.975 27.1692 114.02 27.1692 108.25C27.1692 104.143 29.5042 101.312 36.4078 98.0553C31.5572 96.4626 28.4424 93.0638 28.4424 87.6126C28.4424 79.6123 35.097 76.0732 44.0174 76.0732C45.9282 76.0732 47.7699 76.2497 49.4338 76.5692L50.3881 76.7806Z" fill="black"/>
<path d="M62.0188 59.0005C62.0188 59.0005 63.022 65.2979 59.7627 69.829C56.5013 74.3621 50.2123 75.4134 50.2123 75.4134C50.2123 75.4134 49.2077 69.1174 52.4677 64.5842C55.7284 60.0518 62.0188 59.0005 62.0188 59.0005Z" fill="black"/>
<path d="M63.7496 75.254C63.7496 75.254 61.3142 76.8941 58.1422 77.2011C54.9694 77.5066 52.264 76.3639 52.264 76.3639C52.264 76.3639 54.6994 74.7238 57.8715 74.4162C61.0436 74.1106 63.7496 75.254 63.7496 75.254Z" fill="black"/>
<path d="M48.7829 75.0084C48.7829 75.0084 46.1682 73.676 44.3586 71.0515C42.551 68.4271 42.2385 65.5068 42.2385 65.5068C42.2385 65.5068 44.8546 66.8407 46.6628 69.4644C48.4697 72.0882 48.7829 75.0084 48.7829 75.0084Z" fill="black"/>
<path d="M68.4286 125.178H69.4101C70.7684 125.178 71.8204 124.522 71.8204 123.057C71.8204 121.591 70.7684 120.934 69.4101 120.934H68.4286V125.178ZM67.9521 120.502H69.5329C72.1894 120.502 72.2976 122.681 72.2976 123.057C72.2976 123.431 72.1894 125.611 69.5329 125.611H67.9521V120.502Z" fill="black"/>
<path d="M74.1798 120.501H74.6562V125.611H74.1798V120.501Z" fill="black"/>
<path d="M77.3044 122.753H78.3139C79.317 122.753 79.5124 122.198 79.5124 121.844C79.5124 121.489 79.317 120.935 78.3139 120.935H77.3044V122.753ZM76.8272 120.501H78.1695C78.5741 120.501 79.9888 120.501 79.9888 121.844C79.9888 122.818 79.2452 123.085 78.6822 123.157L80.1688 125.612H79.6275L78.1918 123.186H77.3044V125.612H76.8272V120.501Z" fill="black"/>
<path d="M81.8927 120.501H85.0173V120.935H82.3691V122.753H84.8513V123.187H82.3691V125.178H85.1331V125.611H81.8927V120.501Z" fill="black"/>
<path d="M91.1033 124.81C90.6206 125.473 89.9557 125.741 89.2058 125.741C87.6466 125.741 86.5639 124.615 86.5639 123.056C86.5639 121.498 87.6466 120.371 89.2058 120.371C89.8985 120.371 90.5194 120.603 90.9666 121.172L90.5766 121.498C90.2592 121.021 89.7185 120.804 89.2058 120.804C87.8705 120.804 87.0404 121.785 87.0404 123.056C87.0404 124.327 87.8705 125.308 89.2058 125.308C89.7185 125.308 90.3534 125.063 90.7141 124.514L91.1033 124.81Z" fill="black"/>
<path d="M94.0557 120.934H92.3095V120.502H96.279V120.934H94.5321V125.611H94.0557V120.934Z" fill="black"/>
<path d="M100.8 125.178H101.78C103.138 125.178 104.191 124.522 104.191 123.057C104.191 121.591 103.138 120.934 101.78 120.934H100.8V125.178ZM100.323 120.502H101.904C104.56 120.502 104.669 122.681 104.669 123.057C104.669 123.431 104.56 125.611 101.904 125.611H100.323V120.502Z" fill="black"/>
<path d="M106.541 120.501H109.666V120.935H107.018V122.753H109.5V123.187H107.018V125.178H109.782V125.611H106.541V120.501Z" fill="black"/>
<path d="M111.523 120.501H112V125.178H114.382V125.611H111.523V120.501Z" fill="black"/>
<path d="M115.969 120.501H116.446V125.611H115.969V120.501Z" fill="black"/>
<path d="M117.992 120.501H118.503L120.149 124.983L121.809 120.501H122.314L120.373 125.611H119.896L117.992 120.501Z" fill="black"/>
<path d="M123.868 120.501H126.992V120.935H124.344V122.753H126.826V123.187H124.344V125.178H127.108V125.611H123.868V120.501Z" fill="black"/>
<path d="M129.327 122.753H130.337C131.34 122.753 131.535 122.198 131.535 121.844C131.535 121.489 131.34 120.935 130.337 120.935H129.327V122.753ZM128.849 120.501H130.192C130.596 120.501 132.011 120.501 132.011 121.844C132.011 122.818 131.267 123.085 130.704 123.157L132.191 125.612H131.65L130.213 123.186H129.327V125.612H128.849V120.501Z" fill="black"/>
<path d="M135.042 123.409L133.166 120.501H133.736L135.281 122.926L136.861 120.501H137.395L135.519 123.409V125.611H135.042V123.409Z" fill="black"/>
<path d="M141.513 124.666C141.765 125.09 142.176 125.308 142.682 125.308C143.324 125.308 143.829 124.918 143.829 124.304C143.829 122.876 141.195 123.713 141.195 121.772C141.195 120.862 141.974 120.371 142.835 120.371C143.389 120.371 143.88 120.559 144.226 121.014L143.815 121.309C143.577 120.978 143.259 120.804 142.819 120.804C142.205 120.804 141.672 121.122 141.672 121.772C141.672 123.309 144.306 122.385 144.306 124.304C144.306 125.229 143.548 125.741 142.719 125.741C142.047 125.741 141.455 125.524 141.058 124.968L141.513 124.666Z" fill="black"/>
<path d="M146.138 120.501H149.263V120.935H146.615V122.753H149.097V123.187H146.615V125.178H149.378V125.611H146.138V120.501Z" fill="black"/>
<path d="M151.598 122.753H152.608C153.611 122.753 153.805 122.198 153.805 121.844C153.805 121.489 153.611 120.935 152.608 120.935H151.598V122.753ZM151.121 120.501H152.463C152.868 120.501 154.283 120.501 154.283 121.844C154.283 122.818 153.538 123.085 152.976 123.157L154.462 125.612H153.921L152.485 123.186H151.598V125.612H151.121V120.501Z" fill="black"/>
<path d="M155.524 120.501H156.035L157.682 124.983L159.342 120.501H159.847L157.905 125.611H157.427L155.524 120.501Z" fill="black"/>
<path d="M161.4 120.501H161.875V125.611H161.4V120.501Z" fill="black"/>
<path d="M168.286 124.81C167.802 125.473 167.139 125.741 166.388 125.741C164.828 125.741 163.746 124.615 163.746 123.056C163.746 121.498 164.828 120.371 166.388 120.371C167.08 120.371 167.702 120.603 168.147 121.172L167.759 121.498C167.441 121.021 166.901 120.804 166.388 120.804C165.053 120.804 164.223 121.785 164.223 123.056C164.223 124.327 165.053 125.308 166.388 125.308C166.901 125.308 167.535 125.063 167.895 124.514L168.286 124.81Z" fill="black"/>
<path d="M169.943 120.501H173.069V120.935H170.421V122.753H172.903V123.187H170.421V125.178H173.184V125.611H169.943V120.501Z" fill="black"/>
<path d="M72.1064 108.844C72.1064 108.39 72.1406 108.049 72.015 107.834C71.902 107.618 71.653 107.517 71.0739 107.562V109.411H73.0029V111.306H71.0739V112.543C71.0739 112.906 71.0398 113.27 71.4025 113.497V115.222H67.7149V113.497C68.0784 113.27 68.0442 112.906 68.0442 112.543V108.175C68.0442 107.664 68.01 107.357 67.6584 107.221V105.496H74.7274V108.844H72.1064Z" fill="black"/>
<path d="M78.4485 112.554C78.4485 112.623 78.4143 113.314 79.0387 113.314C79.6631 113.314 79.6282 112.623 79.6282 112.554V108.151C79.6282 108.084 79.6631 107.402 79.0387 107.402C78.4143 107.402 78.4485 108.084 78.4485 108.151V112.554ZM82.6586 112.407C82.6586 114.813 81.1832 115.414 79.0387 115.414C76.8935 115.414 75.4187 114.813 75.4187 112.407V108.31C75.4187 105.905 76.8935 105.304 79.0387 105.304C81.1832 105.304 82.6586 105.905 82.6586 108.31V112.407Z" fill="black"/>
<path d="M86.6141 112.554C86.6141 112.623 86.5799 113.314 87.2043 113.314C87.828 113.314 87.7938 112.623 87.7938 112.554V108.151C87.7938 108.084 87.828 107.402 87.2043 107.402C86.5799 107.402 86.6141 108.084 86.6141 108.151V112.554ZM90.8236 112.407C90.8236 114.813 89.3488 115.414 87.2043 115.414C85.0591 115.414 83.5837 114.813 83.5837 112.407V108.31C83.5837 105.905 85.0591 105.304 87.2043 105.304C89.3488 105.304 90.8236 105.905 90.8236 108.31V112.407Z" fill="black"/>
<path d="M95.1125 113.167H95.3511C96.0083 113.167 96.2134 112.929 96.2134 112.225V108.56C96.2134 107.856 96.0083 107.618 95.3511 107.618H95.1125V113.167ZM95.8953 105.496C96.724 105.496 97.677 105.508 98.369 106.041C99.1636 106.665 99.2431 107.551 99.2431 108.481V112.123C99.2431 113.076 99.1971 113.814 98.4604 114.507C97.7677 115.164 96.9047 115.221 95.9866 115.221H91.697V113.497C92.0367 113.349 92.0716 113.054 92.0821 112.724V107.992C92.0716 107.653 92.0479 107.368 91.697 107.221V105.496H95.8953Z" fill="black"/>
<path d="M108.166 108.435C108.166 108.005 108.155 107.403 107.566 107.403C107.18 107.403 106.975 107.686 106.975 108.049C106.975 108.243 106.998 108.435 107.157 108.595C107.327 108.776 107.758 108.912 108.007 108.98C108.734 109.173 109.71 109.434 110.323 109.843C110.675 110.081 110.936 110.365 111.072 110.774C111.231 111.193 111.299 111.658 111.299 112.112V112.158C111.299 114.03 110.47 115.414 107.576 115.414C106.34 115.414 105.035 115.176 104.048 114.393V111.783H107.009C107.009 112.362 106.998 112.792 107.1 112.997C107.202 113.189 107.418 113.314 107.645 113.314C108.053 113.314 108.235 112.918 108.235 112.566C108.235 111.567 107.61 111.488 106.77 111.284C104.932 110.829 103.9 110.388 103.9 108.288V108.072C103.945 107.028 104.115 106.506 104.91 105.905C105.557 105.417 106.498 105.304 107.406 105.304C108.722 105.304 109.892 105.564 110.992 106.325V108.617H108.166V108.435Z" fill="black"/>
<path d="M116.183 105.496H119.7V107.221C119.292 107.448 119.326 107.811 119.326 108.175V112.112C119.303 113.145 119.223 113.962 118.395 114.688C117.68 115.312 116.693 115.414 115.819 115.414C114.945 115.414 113.958 115.312 113.243 114.688C112.416 113.962 112.335 113.145 112.313 112.112V108.175C112.313 107.811 112.347 107.448 111.983 107.221V105.496H115.672V107.221C115.309 107.448 115.343 107.811 115.343 108.175V112.611C115.343 112.804 115.387 113.303 115.943 113.303C116.5 113.303 116.546 112.804 116.546 112.611V108.175C116.534 107.811 116.568 107.448 116.183 107.221V105.496Z" fill="black"/>
<path d="M123.908 110.375H124.191C125.088 110.375 125.054 109.865 125.054 108.957C125.054 108.038 125.088 107.528 124.191 107.528H123.908V110.375ZM120.878 108.175C120.878 107.811 120.913 107.448 120.549 107.221V105.496H124.51C125.338 105.496 126.45 105.485 127.131 106.007C128.243 106.858 128.084 108.413 128.084 108.663V109.433C128.084 111.284 127.471 112.43 124.987 112.43H123.908C123.908 112.907 123.874 113.269 124.237 113.497V115.221H120.549V113.497C120.913 113.269 120.878 112.907 120.878 112.543V108.175Z" fill="black"/>
<path d="M132.18 110.375H132.463C133.36 110.375 133.326 109.865 133.326 108.957C133.326 108.038 133.36 107.528 132.463 107.528H132.18V110.375ZM129.149 108.175C129.149 107.811 129.184 107.448 128.821 107.221V105.496H132.781C133.61 105.496 134.722 105.485 135.402 106.007C136.515 106.858 136.356 108.413 136.356 108.663V109.433C136.356 111.284 135.743 112.43 133.258 112.43H132.18C132.18 112.907 132.146 113.269 132.509 113.497V115.221H128.821V113.497C129.184 113.269 129.149 112.907 129.149 112.543V108.175Z" fill="black"/>
<path d="M136.995 115.221V113.496C137.358 113.269 137.325 112.907 137.325 112.543V108.174C137.325 107.811 137.358 107.447 136.995 107.221V105.496H140.684V107.221C140.321 107.447 140.353 107.811 140.353 108.174V113.156H140.649C141.421 113.156 141.409 112.69 141.409 112.077V110.5H144.076V115.221H136.995Z" fill="black"/>
<path d="M145.261 108.175C145.261 107.811 145.295 107.448 144.932 107.221V105.496H148.619V107.221C148.257 107.448 148.291 107.811 148.291 108.175V112.543C148.291 112.907 148.257 113.27 148.619 113.497V115.222H144.932V113.497C145.295 113.27 145.261 112.907 145.261 112.543V108.175Z" fill="black"/>
<path d="M156.775 111.704V115.221H149.489V113.496C149.851 113.269 149.819 112.907 149.819 112.543V108.174C149.819 107.811 149.851 107.447 149.489 107.221V105.496H156.775V108.787H153.983V108.492C153.983 107.834 153.891 107.561 153.075 107.561H152.893V109.297H154.811V111.193H152.893V113.156H153.075C153.983 113.156 153.97 112.816 153.983 112.021V111.704H156.775Z" fill="black"/>
<path d="M160.915 109.491H161.22C161.88 109.491 162.083 109.15 162.083 108.469C162.083 107.845 161.88 107.504 161.22 107.504H160.915V109.491ZM160.915 112.543C160.915 112.906 160.881 113.269 161.243 113.497V115.221H157.555V113.497C157.919 113.269 157.884 112.906 157.884 112.543V108.175C157.884 107.811 157.919 107.448 157.555 107.221V105.496H161.765C162.515 105.496 163.456 105.485 164.114 105.882C164.909 106.347 165.181 107.176 165.181 108.06C165.181 109.127 164.862 110.058 163.728 110.341V110.364C164.682 110.591 164.999 111 164.999 111.987V112.543C164.999 112.872 164.999 113.348 165.375 113.497V115.221H162.118C161.993 114.687 161.912 114.234 161.947 112.611C161.947 111.84 161.867 111.453 161.039 111.431H160.915V112.543Z" fill="black"/>
<path d="M170.419 108.435C170.419 108.005 170.407 107.403 169.818 107.403C169.432 107.403 169.228 107.686 169.228 108.049C169.228 108.243 169.249 108.435 169.409 108.595C169.579 108.776 170.01 108.912 170.259 108.98C170.986 109.173 171.961 109.434 172.576 109.843C172.927 110.081 173.189 110.365 173.323 110.774C173.483 111.193 173.551 111.658 173.551 112.112V112.158C173.551 114.03 172.723 115.414 169.828 115.414C168.591 115.414 167.286 115.176 166.3 114.393V111.783H169.262C169.262 112.362 169.249 112.792 169.353 112.997C169.455 113.189 169.671 113.314 169.897 113.314C170.306 113.314 170.487 112.918 170.487 112.566C170.487 111.567 169.863 111.488 169.023 111.284C167.184 110.829 166.153 110.388 166.153 108.288V108.072C166.197 107.028 166.367 106.506 167.161 105.905C167.809 105.417 168.751 105.304 169.658 105.304C170.976 105.304 172.145 105.564 173.245 106.325V108.617H170.419V108.435Z" fill="black"/>
<path d="M82.4187 89.1455H75.9747V88.669C75.9747 87.7161 76.1749 85.8862 74.696 85.8862C73.4417 85.8862 73.3412 87.0652 73.3412 87.9923V97.5456C73.3412 97.7709 73.4417 98.9499 74.696 98.9499C76.1749 98.9499 75.9747 97.1193 75.9747 96.1412V95.1883H74.8202V91.0012H82.4187V101.256C80.3118 103.162 77.1279 103.588 74.3946 103.588C72.4636 103.588 70.257 103.438 68.7279 102.159C66.7466 100.479 66.6469 98.5236 66.6469 96.1657V87.9923C66.6469 86.0864 66.8722 84.2308 68.4265 82.9269C69.9815 81.5987 72.1134 81.2471 74.0932 81.2471C77.0267 81.2471 80.0614 81.9238 82.4187 83.7292V89.1455Z" fill="black"/>
<path d="M91.6356 90.5002H92.313C93.7668 90.5002 94.2182 89.7475 94.2182 88.2434C94.2182 86.8642 93.7668 86.1115 92.313 86.1115H91.6356V90.5002ZM91.6356 97.2448C91.6356 98.047 91.5603 98.85 92.3625 99.3516V103.162H84.2129V99.3516C85.0159 98.85 84.9399 98.047 84.9399 97.2448V87.5911C84.9399 86.7889 85.0159 85.9859 84.2129 85.485V81.6739H93.5157C95.1705 81.6739 97.2522 81.6488 98.7067 82.5257C100.461 83.554 101.063 85.3852 101.063 87.3407C101.063 89.6979 100.361 91.7538 97.8535 92.3803V92.4312C99.9603 92.9321 100.662 93.8341 100.662 96.0156V97.2448C100.662 97.9717 100.662 99.0258 101.489 99.3516V103.162H94.2935C94.0173 101.984 93.8415 100.981 93.9175 97.3948C93.9175 95.6898 93.7417 94.838 91.9119 94.7871H91.6356V97.2448Z" fill="black"/>
<path d="M119.407 95.3881V103.162H103.309V99.3505C104.111 98.849 104.036 98.0467 104.036 97.2437V87.5901C104.036 86.7878 104.111 85.9848 103.309 85.4839V81.6729H119.407V88.9442H113.239V88.2919C113.239 86.838 113.038 86.236 111.232 86.236H110.831V90.0729H115.069V94.26H110.831V98.5985H111.232C113.239 98.5985 113.214 97.8458 113.239 96.0913V95.3881H119.407Z" fill="black"/>
<path d="M137.142 95.3881V103.162H121.044V99.3505C121.846 98.849 121.771 98.0467 121.771 97.2437V87.5901C121.771 86.7878 121.846 85.9848 121.044 85.4839V81.6729H137.142V88.9442H130.973V88.2919C130.973 86.838 130.773 86.236 128.967 86.236H128.566V90.0729H132.804V94.26H128.566V98.5985H128.967C130.973 98.5985 130.949 97.8458 130.973 96.0913V95.3881H137.142Z" fill="black"/>
<path d="M149.907 91.3768H149.956V87.5901C149.956 86.7878 150.033 85.9848 149.23 85.4839V81.6729H156.1V85.4839C155.298 85.9848 155.372 86.7878 155.372 87.5901V103.162H148.878L144.892 93.508H144.842V97.2437C144.842 98.0467 144.766 98.849 145.569 99.3505V103.162H138.899V99.3505C139.701 98.849 139.627 98.0467 139.627 97.2437V87.5901C139.627 86.7878 139.701 85.9848 138.899 85.4839V81.6729H146.171L149.907 91.3768Z" fill="black"/>
<path d="M167.392 88.1675C167.392 87.2152 167.368 85.8862 166.063 85.8862C165.212 85.8862 164.76 86.5134 164.76 87.315C164.76 87.7419 164.81 88.1674 165.161 88.5191C165.538 88.9195 166.49 89.2209 167.041 89.3709C168.646 89.7978 170.802 90.374 172.156 91.2774C172.933 91.8042 173.51 92.4306 173.811 93.3326C174.161 94.2605 174.313 95.2895 174.313 96.2919V96.3917C174.313 100.53 172.481 103.588 166.09 103.588C163.355 103.588 160.472 103.062 158.29 101.332V95.565H164.835C164.835 96.8438 164.81 97.7967 165.035 98.2474C165.26 98.6743 165.737 98.9499 166.24 98.9499C167.142 98.9499 167.544 98.0716 167.544 97.2951C167.544 95.0886 166.163 94.9134 164.307 94.4607C160.246 93.4582 157.963 92.4815 157.963 87.8417V87.3652C158.066 85.0589 158.44 83.9057 160.196 82.576C161.624 81.4975 163.707 81.2471 165.712 81.2471C168.622 81.2471 171.203 81.8233 173.637 83.5032V88.5686H167.392V88.1675Z" fill="black"/>
<path d="M67.9521 118.341C67.7044 118.341 67.5049 118.138 67.5049 117.891C67.5049 117.643 67.7044 117.443 67.9521 117.443H173.069C173.315 117.443 173.515 117.643 173.515 117.891C173.515 118.138 173.315 118.341 173.069 118.341H67.9521Z" fill="black"/>
</g>
<defs>
<clipPath id="clip0">
<rect width="148.313" height="69.213" fill="white" transform="translate(26 59)"/>
</clipPath>
</defs>
</svg>
