<?xml version="1.0" encoding="iso-8859-1"?>
<!-- Generator: Adobe Illustrator 16.0.0, SVG Export Plug-In . SVG Version: 6.00 Build 0)  -->
<!DOCTYPE svg PUBLIC "-//W3C//DTD SVG 1.1//EN" "http://www.w3.org/Graphics/SVG/1.1/DTD/svg11.dtd">
<svg version="1.1" id="Capa_1" xmlns="http://www.w3.org/2000/svg" xmlns:xlink="http://www.w3.org/1999/xlink" x="0px" y="0px"
	 width="105.5px" height="105.5px" viewBox="0 0 105.5 105.5" style="enable-background:new 0 0 105.5 105.5;" xml:space="preserve"
	>
<g>
	<path d="M86.25,105.5h-67c-2.206,0-4-1.795-4-4V4c0-2.205,1.794-4,4-4h67c2.206,0,4,1.795,4,4v97.5
		C90.25,103.705,88.456,105.5,86.25,105.5z M19.25,1c-1.654,0-3,1.346-3,3v97.5c0,1.654,1.346,3,3,3h67c1.654,0,3-1.346,3-3V4
		c0-1.654-1.346-3-3-3H19.25z M50.006,62.832c-1.628,0-2.727-1.59-3.454-2.641C44.671,57.475,43.598,52.98,45.316,50
		c0.925-1.609,2.608-2.627,4.391-2.652l0.055-0.002c0.78,0,1.519,0.293,2.112,0.529c0.14,0.055,0.276,0.109,0.405,0.156l-0.05-0.383
		c-0.172-1.307,0.474-2.59,1.136-3.357c0.777-0.91,2.086-1.58,3.18-1.625l0.467-0.018l0.051,0.463
		c0.127,1.156-0.287,2.439-1.107,3.434c-0.325,0.393-0.714,0.725-1.135,0.979c0.548-0.168,1.156-0.279,1.777-0.219
		c0.729,0.029,2.625,0.299,3.866,2.113l0.286,0.42l-0.424,0.281c-0.458,0.285-1.863,1.313-1.844,3.227
		c0.021,2.43,2.026,3.322,2.256,3.418l0.437,0.178l-0.147,0.449c-0.146,0.463-0.564,1.644-1.387,2.846
		c-0.775,1.134-1.742,2.541-3.338,2.572c-0.001,0-0.002,0-0.003,0c-0.764,0-1.254-0.213-1.687-0.399
		c-0.43-0.187-0.836-0.361-1.482-0.361c-0.685,0-1.113,0.183-1.566,0.375c-0.442,0.188-0.899,0.384-1.554,0.41
		C50.008,62.832,50.007,62.832,50.006,62.832z M49.762,47.846l-0.039,0.502c-1.434,0.02-2.79,0.846-3.541,2.15
		c-1.606,2.789-0.27,7.014,1.192,9.123c0.773,1.119,1.607,2.213,2.548,2.213c0.518-0.021,0.856-0.164,1.248-0.332
		c0.501-0.213,1.069-0.455,1.958-0.455c0.854,0,1.399,0.236,1.879,0.443c0.394,0.17,0.734,0.318,1.228,0.318
		c1.051-0.021,1.729-0.898,2.578-2.14c0.574-0.84,0.933-1.666,1.125-2.188c-0.799-0.448-2.438-1.67-2.459-4.127
		c-0.02-1.96,1.125-3.182,1.854-3.76c-0.972-1.094-2.263-1.271-2.81-1.295c-0.115-0.01-0.2-0.014-0.285-0.014
		c-0.707,0-1.412,0.277-2.032,0.521c-0.506,0.199-0.942,0.371-1.332,0.371c-0.423,0-0.883-0.182-1.371-0.375
		c-0.541-0.215-1.154-0.459-1.743-0.459v-0.497H49.762z M52.347,48.057c0.385,0.135,0.582,0.156,1.024,0.002
		c-0.231,0.033-0.46,0.041-0.686,0.023L52.347,48.057z M56.078,43.742c-0.708,0.176-1.471,0.635-1.955,1.201
		c-0.423,0.488-0.871,1.297-0.918,2.127c0.705-0.096,1.456-0.529,1.979-1.162C55.71,45.27,56.027,44.49,56.078,43.742z
		 M24.667,10.416c-1.746,0-3.167-1.42-3.167-3.166s1.42-3.166,3.167-3.166s3.167,1.42,3.167,3.166S26.413,10.416,24.667,10.416z
		 M24.667,5.084c-1.195,0-2.167,0.971-2.167,2.166s0.972,2.166,2.167,2.166s2.167-0.971,2.167-2.166S25.862,5.084,24.667,5.084z"/>
</g>
<g>
</g>
<g>
</g>
<g>
</g>
<g>
</g>
<g>
</g>
<g>
</g>
<g>
</g>
<g>
</g>
<g>
</g>
<g>
</g>
<g>
</g>
<g>
</g>
<g>
</g>
<g>
</g>
<g>
</g>
</svg>
