<?xml version="1.0" encoding="iso-8859-1"?>
<!-- Generator: Adobe Illustrator 19.0.0, SVG Export Plug-In . SVG Version: 6.00 Build 0)  -->
<svg version="1.1" id="Capa_1" xmlns="http://www.w3.org/2000/svg" xmlns:xlink="http://www.w3.org/1999/xlink" x="0px" y="0px"
	 viewBox="0 0 512 512" style="enable-background:new 0 0 512 512;" xml:space="preserve">
<polygon style="fill:#45A2FF;" points="315.833,504.487 7.5,196.154 7.5,504.487 "/>
<g>
	<polygon style="fill:#2488FF;" points="7.5,196.154 7.5,504.487 67.118,504.487 67.118,255.771 	"/>
	<polygon style="fill:#2488FF;" points="291.628,480.282 446.896,325.014 504.5,382.618 504.5,504.487 315.833,504.487 	"/>
</g>
<polygon style="fill:#D8D7DA;" points="406.628,365.282 438.333,396.987 455.794,379.527 474.127,397.86 496.935,375.053 
	446.896,325.014 "/>
<polygon style="fill:#ACABB1;" points="429.411,365.282 458.288,336.406 446.896,325.014 406.628,365.282 438.333,396.987 
	449.725,385.596 "/>
<polygon style="fill:#FF456D;" points="398.061,224.081 398.061,276.585 434.945,276.585 434.944,208.803 387.015,160.874 
	387.048,160.841 321.846,95.64 321.814,95.672 236.758,10.617 210.678,36.698 295.733,121.753 235.055,182.432 155.852,182.432 
	94.385,243.899 120.465,269.98 171.13,219.315 233.38,219.315 263.403,249.339 263.403,311.57 212.769,362.205 238.849,388.285 
	300.287,326.848 300.287,247.602 360.935,186.955 "/>
<g>
	<polygon style="fill:#FF0C38;" points="433.376,276.585 433.377,224.081 396.251,186.955 378.593,204.613 398.061,224.081 
		398.06,276.585 	"/>
	<polygon style="fill:#FF0C38;" points="129.701,243.899 191.168,182.432 155.852,182.432 94.385,243.899 120.465,269.98 
		138.123,252.322 	"/>
	<polygon style="fill:#FF0C38;" points="235.055,182.432 270.371,182.432 331.049,121.753 245.994,36.697 254.416,28.275 
		236.758,10.617 210.678,36.697 295.733,121.753 	"/>
	<polygon style="fill:#FF0C38;" points="248.085,362.205 298.719,311.57 298.719,249.339 268.696,219.315 233.38,219.315 
		263.403,249.339 263.403,311.57 212.769,362.205 238.849,388.285 256.507,370.627 	"/>
</g>
<circle style="fill:#FFC477;" cx="392.06" cy="90.619" r="53.2"/>
<path style="fill:#FFA733;" d="M372.55,128.24c-20.775-20.775-20.775-54.458,0-75.233c8.076-8.076,18.104-12.997,28.565-14.795
	c-16.449-2.826-33.969,2.095-46.668,14.795c-20.775,20.775-20.775,54.458,0,75.233c12.699,12.699,30.219,17.621,46.668,14.795
	C390.655,141.238,380.626,136.316,372.55,128.24z"/>
<path style="fill:#ADDFBB;" d="M438.18,117.147c11.711-20.335,8.884-46.754-8.5-64.139c-17.385-17.385-43.804-20.211-64.139-8.5
	L438.18,117.147z"/>
<path style="fill:#7CCC92;" d="M385.791,44.507c5.156-2.969,10.705-5,16.397-6.1c-12.376-2.385-25.436-0.357-36.647,6.1
	l72.639,72.639c2.647-4.595,4.543-9.503,5.704-14.546L385.791,44.507z"/>
<path style="fill:#FF456D;" d="M365.541,44.507c-3.965,2.284-7.704,5.11-11.094,8.5c-3.378,3.378-6.197,7.101-8.476,11.051
	l21.514,21.514l19.56-19.56L365.541,44.507z"/>
<path style="fill:#FF0C38;" d="M362.249,64.058c2.279-3.949,5.098-7.673,8.476-11.05c0.557-0.557,1.138-1.076,1.713-1.602
	l-6.898-6.898c-3.965,2.284-7.704,5.11-11.094,8.5c-3.378,3.378-6.197,7.101-8.476,11.05l21.514,21.514l8.139-8.139L362.249,64.058z
	"/>
<path style="fill:#45A2FF;" d="M429.68,128.24c3.39-3.39,6.217-7.128,8.5-11.094l-51.135-51.135l-19.56,19.56l51.145,51.145
	C422.579,134.438,426.302,131.618,429.68,128.24z"/>
<path style="fill:#2488FF;" d="M383.735,85.572l11.435-11.435l-8.125-8.125l-19.56,19.56l51.145,51.145
	c3.306-1.908,6.439-4.217,9.358-6.892L383.735,85.572z"/>
<g>
	<path style="fill:#45A2FF;" d="M300.287,302.08c-6.344-0.002-12.689,2.417-17.529,7.257c-9.676,9.676-9.676,25.365,0,35.041
		l17.529-17.529V302.08z"/>
	<path style="fill:#45A2FF;" d="M417.424,226.324c4.838,4.838,11.179,7.257,17.52,7.257v-24.778l-17.52-17.52
		C407.748,200.96,407.748,216.647,417.424,226.324z"/>
	<path style="fill:#45A2FF;" d="M138.332,199.952c9.676,9.676,25.365,9.676,35.041,0c4.838-4.838,7.257-11.179,7.257-17.52h-24.778
		L138.332,199.952z"/>
	<path style="fill:#45A2FF;" d="M262.127,71.027c9.676,9.676,25.365,9.676,35.041,0l-35.041-35.041
		C252.451,45.662,252.451,61.35,262.127,71.027z"/>
</g>
<path style="fill:#ADDFBB;" d="M247.078,435.719L46.969,235.609v-36.262c0-7.639,6.193-13.831,13.831-13.831l0,0
	c7.639,0,13.831,6.192,13.831,13.831v24.804l183.905,183.905h24.804c7.639,0,13.831,6.192,13.831,13.831l0,0
	c0,7.639-6.192,13.831-13.831,13.831h-36.262V435.719z"/>
<g>
	
		<rect x="164.547" y="41.722" transform="matrix(0.7071 -0.7071 0.7071 0.7071 15.5863 136.0726)" style="fill:#1D1D1F;" width="15" height="15"/>
	
		<rect x="207.67" y="48.862" transform="matrix(0.7071 -0.7071 0.7071 0.7071 -2.2665 179.1912)" style="fill:#1D1D1F;" width="15" height="86.939"/>
	
		<rect x="146.883" y="24.051" transform="matrix(-0.7071 -0.7071 0.7071 -0.7071 241.2388 163.0256)" style="fill:#1D1D1F;" width="15" height="15"/>
	
		<rect x="60.717" y="90.756" transform="matrix(-0.7071 -0.7071 0.7071 -0.7071 85.3863 231.8799)" style="fill:#1D1D1F;" width="59.999" height="15"/>
	
		<rect x="118.769" y="131.662" transform="matrix(-0.7071 -0.7071 0.7071 -0.7071 126.3006 330.6383)" style="fill:#1D1D1F;" width="25.718" height="15"/>
	
		<rect x="124.115" y="103.772" transform="matrix(-0.7071 -0.7071 0.7071 -0.7071 209.6908 309.4005)" style="fill:#1D1D1F;" width="89.619" height="15"/>
	
		<rect x="47.404" y="441.945" transform="matrix(-0.7071 -0.7071 0.7071 -0.7071 -224.0794 806.074)" style="fill:#1D1D1F;" width="15" height="15"/>
	
		<rect x="65.074" y="459.618" transform="matrix(-0.7071 -0.7071 0.7071 -0.7071 -206.4115 848.7384)" style="fill:#1D1D1F;" width="15" height="15"/>
	
		<rect x="29.714" y="424.275" transform="matrix(0.7071 0.7071 -0.7071 0.7071 316.2105 100.1495)" style="fill:#1D1D1F;" width="15" height="15"/>
	
		<rect x="449.382" y="430.983" transform="matrix(0.7071 0.7071 -0.7071 0.7071 443.8723 -194.6358)" style="fill:#1D1D1F;" width="15" height="15"/>
	
		<rect x="467.061" y="448.652" transform="matrix(-0.7071 -0.7071 0.7071 -0.7071 487.5778 1114.2645)" style="fill:#1D1D1F;" width="15" height="15"/>
	<path style="fill:#1D1D1F;" d="M283.34,443.219c11.762,0,21.332-9.569,21.332-21.331c0-11.761-9.569-21.33-21.331-21.332h-21.697
		L82.132,221.046v-21.697c0-11.762-9.569-21.331-21.331-21.331s-21.332,9.569-21.332,21.331v39.368l204.503,204.503H283.34z
		 M54.469,199.348c0-3.491,2.84-6.331,6.332-6.331c3.492,0,6.331,2.84,6.331,6.331v27.91L255.43,415.556h27.909
		c3.492,0,6.332,2.841,6.332,6.332s-2.84,6.331-6.332,6.331h-33.155L54.469,232.503V199.348z"/>
	<path style="fill:#1D1D1F;" d="M446.896,314.408L300.468,460.836l10.606,10.607l95.554-95.554l31.705,31.705l17.46-17.461
		l18.333,18.334l22.808-22.808l0.065,0.065v111.263H389.607l28.696-28.696l-10.606-10.607l-39.304,39.304h-24.275v15H512V379.512
		L446.896,314.408z M474.127,387.254l-18.333-18.334l-17.46,17.461l-21.098-21.098l29.661-29.661l39.432,39.432L474.127,387.254z"/>
	<polygon style="fill:#1D1D1F;" points="261.762,461.022 297.727,496.987 15,496.987 15,370.093 45.65,400.743 56.256,390.136 
		15,348.879 15,214.261 21.666,220.927 32.272,210.32 0,178.048 0,511.987 333.94,511.987 272.368,450.415 	"/>
	<path style="fill:#1D1D1F;" d="M231.948,174.932h-79.202l-49.525,49.524l10.606,10.607l25.133-25.133
		c5.161,3.17,11.024,4.763,16.891,4.763c1.698,0,3.396-0.14,5.077-0.406l1.354,3.268l-32.981,32.981l10.606,10.607l34.328-34.329
		h56.037l25.63,25.631v56.019l-34.337,34.337l10.606,10.607l32.991-32.991l3.241,1.342c-0.264,1.671-0.404,3.374-0.404,5.098
		c0,6.062,1.667,11.866,4.772,16.899l-25.125,25.125l10.606,10.607l49.534-49.534V250.71l53.147-53.148l29.626,29.626v56.898h51.884
		v-78.389l-54.533-54.533c1.374,0.093,2.755,0.158,4.152,0.158c33.469,0,60.698-27.229,60.698-60.697s-27.229-60.697-60.698-60.697
		s-60.698,27.229-60.698,60.697c0,1.397,0.065,2.778,0.158,4.152L236.758,0.011l-36.687,36.687l85.056,85.056L231.948,174.932z
		 M346.366,90.624c0-4.705,0.716-9.246,2.043-13.521l57.176,57.176c-4.275,1.327-8.816,2.043-13.521,2.043
		C366.866,136.322,346.366,115.821,346.366,90.624z M419.591,127.071l-41.499-41.499l8.954-8.954l41.495,41.496
		C425.985,121.496,422.971,124.512,419.591,127.071z M437.761,90.624c0,4.686-0.711,9.209-2.028,13.469l-57.138-57.138
		c4.26-1.317,8.782-2.028,13.469-2.028C417.261,44.927,437.761,65.427,437.761,90.624z M364.574,54.147l11.865,11.865l-8.954,8.954
		l-11.869-11.869C358.175,59.717,361.191,56.703,364.574,54.147z M150.167,198.725l8.792-8.792h12.445
		c-0.833,1.724-1.941,3.323-3.335,4.717C163.235,199.483,156.23,200.828,150.167,198.725z M283.977,332.551
		c-0.63-1.808-0.977-3.722-0.977-5.693c0-4.615,1.797-8.954,5.061-12.218c1.396-1.396,2.998-2.506,4.726-3.339v12.441
		L283.977,332.551z M405.561,269.085v-39.994l3.25-1.346c0.985,1.358,2.086,2.658,3.31,3.881c4.287,4.286,9.569,7.212,15.324,8.575
		v28.883h-21.884V269.085z M427.444,224.355c-1.724-0.833-3.323-1.941-4.717-3.335c-4.834-4.835-6.18-11.84-4.075-17.904
		l8.792,8.792L427.444,224.355L427.444,224.355z M262.37,53.506c0-1.971,0.347-3.885,0.977-5.693l21.995,21.994
		c-1.808,0.63-3.722,0.977-5.694,0.977c-4.615,0-8.954-1.798-12.217-5.062C264.167,62.46,262.37,58.121,262.37,53.506z
		 M236.758,21.224l15.384,15.384c-3.105,5.033-4.772,10.837-4.772,16.899c0,3.927,0.704,7.744,2.039,11.316l-28.125-28.125
		L236.758,21.224z M268.333,83.746c3.572,1.334,7.388,2.038,11.315,2.038c6.062,0,11.866-1.667,16.899-4.772l110.899,110.899
		c-4.088,6.656-5.541,14.48-4.358,21.969l-3.268,1.353l-38.886-38.886l-68.147,68.148v50.96c-5.758,1.362-11.044,4.288-15.333,8.577
		c-1.214,1.214-2.313,2.51-3.305,3.87l-3.246-1.344v-60.327l-34.417-34.418h-60.345l-1.346-3.25c1.358-0.986,2.658-2.086,3.881-3.31
		c4.287-4.287,7.212-9.569,8.575-15.323h50.91l68.179-68.179L268.333,83.746z"/>
</g>
<g>
	<path style="fill:#FFFFFF;" d="M158.758,420.146l-96.42-96.421l10.606-10.607l96.42,96.421L158.758,420.146z M55.266,316.654
		L44.66,306.048l10.606-10.607l10.606,10.606L55.266,316.654z M37.588,298.977l-10.606-10.606l10.606-10.607l10.606,10.606
		L37.588,298.977z"/>
	<path style="fill:#FFFFFF;" d="M151.271,490.094l-25.292-25.292l10.606-10.607l25.292,25.292L151.271,490.094z M118.907,457.73
		l-10.606-10.606l10.606-10.607l10.606,10.606L118.907,457.73z M101.229,440.053l-10.606-10.606l10.606-10.607l10.606,10.606
		L101.229,440.053z"/>
	<path style="fill:#FFFFFF;" d="M292.643,234.986l-10.606-10.607l25.281-25.28l10.606,10.607L292.643,234.986z M324.995,202.635
		l-10.606-10.607l10.607-10.606l10.606,10.607L324.995,202.635z M342.673,184.957l-10.606-10.607l10.606-10.606l10.606,10.607
		L342.673,184.957z"/>
</g>
<g>
</g>
<g>
</g>
<g>
</g>
<g>
</g>
<g>
</g>
<g>
</g>
<g>
</g>
<g>
</g>
<g>
</g>
<g>
</g>
<g>
</g>
<g>
</g>
<g>
</g>
<g>
</g>
<g>
</g>
</svg>
