<?xml version="1.0" encoding="iso-8859-1"?>
<!-- Generator: Adobe Illustrator 19.0.0, SVG Export Plug-In . SVG Version: 6.00 Build 0)  -->
<svg version="1.1" id="Capa_1" xmlns="http://www.w3.org/2000/svg" xmlns:xlink="http://www.w3.org/1999/xlink" x="0px" y="0px"
	 viewBox="0 0 512 512" style="enable-background:new 0 0 512 512;" xml:space="preserve">
<path style="fill:#FDD8A8;" d="M502.686,512V319.269c0-56.113-44.361-102.804-100.455-104.263
	c-58.255-1.515-105.956,45.256-105.956,103.169c0,0.168,9.062,18.124,9.062,18.124l-9.062,83.068h35.241v51.351h60.413V512H502.686z
	"/>
<path style="fill:#FFFFFF;" d="M464.927,318.875c-0.026-4.541-0.507-9.079-1.431-13.489l14.783-3.094
	c1.13,5.397,1.719,10.947,1.751,16.496L464.927,318.875z M459.389,292.483c-3.167-7.283-7.588-13.912-13.143-19.703
	c-4.147-4.324-8.816-8.042-13.876-11.053l7.723-12.98c6.227,3.704,11.964,8.272,17.053,13.576
	c6.798,7.087,12.214,15.208,16.094,24.138L459.389,292.483z"/>
<rect x="391.929" y="470.718" style="fill:#FFC477;" width="52.358" height="20.138"/>
<path style="fill:#FDD8A8;" d="M9.314,512V319.269c0-56.113,44.361-102.804,100.455-104.263
	c58.255-1.515,105.956,45.256,105.956,103.169c0,0.168-9.062,18.124-9.062,18.124l9.062,83.068h-35.241v51.351h-60.413V512H9.314z"
	/>
<polygon style="fill:#BCF4E2;" points="502.686,178.722 445.294,178.722 409.046,229.066 372.798,178.722 230.828,178.722 
	230.828,7.552 502.686,7.552 "/>
<polygon style="fill:#70F2C3;" points="434.979,158.584 409.046,194.601 383.114,158.584 230.828,158.584 230.828,178.722 
	372.798,178.722 409.046,229.066 445.294,178.722 502.686,178.722 502.686,158.584 "/>
<polygon style="fill:#E9FF9C;" points="28.444,209.935 65.699,209.935 101.947,260.279 138.195,209.935 279.158,209.935 
	279.158,58.903 28.444,58.903 "/>
<rect x="67.713" y="470.718" style="fill:#FFC477;" width="52.358" height="20.138"/>
<rect x="230.828" y="58.903" style="fill:#F7AFD1;" width="48.33" height="119.819"/>
<rect x="230.828" y="158.584" style="fill:#F072AE;" width="48.33" height="20.138"/>
<polygon style="fill:#CFFF26;" points="127.879,189.797 101.947,225.815 76.015,189.797 28.444,189.797 28.444,209.935 
	65.699,209.935 101.947,260.279 138.195,209.935 279.158,209.935 279.158,189.797 "/>
<path d="M446.401,217.934l-6.468,13.648c33.534,15.892,55.202,50.311,55.202,87.686V512h15.103V319.269
	C510.238,276.087,485.18,236.311,446.401,217.934z"/>
<path d="M389.915,463.166h-50.848v-51.351h-34.373l8.391-76.922l-1.008-1.998c-2.618-5.186-6.637-13.176-8.237-16.41
	c0.743-41.683,28.924-78.633,69.042-90.22l-4.191-14.51c-22.604,6.529-42.954,20.477-57.304,39.275
	c-14.827,19.427-22.665,42.645-22.665,67.144c0,1.896,0,1.964,8.865,19.529l-9.733,89.214h36.109v51.351h60.413V512h15.103v-33.731
	h44.806v-15.103h-44.806H389.915z"/>
<path d="M223.276,0v186.273H368.93l40.116,55.717l40.116-55.717h61.076V0H223.276z M495.135,171.17h-53.709l-32.379,44.971
	l-32.379-44.971H238.38V15.103h256.755V171.17z"/>
<path d="M223.276,318.175c0-34.997-16.832-68.321-45.026-89.142l-8.971,12.149c23.9,17.651,38.349,45.698,38.879,75.305
	c-1.6,3.234-5.619,11.223-8.237,16.41l-1.008,1.998l8.392,76.921h-34.373v51.351h-51.854h-8.559H67.713v15.103h44.806V512h15.103
	v-33.731h60.413v-51.351h36.109l-9.733-89.214C223.276,320.139,223.276,320.071,223.276,318.175z"/>
<path d="M1.762,319.269V512h15.103V319.269c0-30.667,14.665-59.861,39.231-78.098l-9.003-12.127
	C18.708,250.116,1.762,283.844,1.762,319.269z"/>
<polygon points="271.607,155.563 286.71,155.563 286.71,51.351 253.986,51.351 253.986,66.454 271.607,66.454 "/>
<polygon points="271.607,202.383 134.326,202.383 101.947,247.355 69.568,202.383 35.996,202.383 35.996,66.454 207.67,66.454 
	207.67,51.351 20.893,51.351 20.893,217.487 61.831,217.487 101.947,273.204 142.063,217.487 286.71,217.487 286.71,198.859 
	271.607,198.859 "/>
<rect x="57.644" y="89.613" width="143.984" height="15.103"/>
<rect x="57.644" y="125.86" width="143.984" height="15.103"/>
<rect x="186.525" y="162.108" width="15.103" height="15.103"/>
<rect x="156.319" y="162.108" width="15.103" height="15.103"/>
<rect x="57.644" y="162.108" width="83.571" height="15.103"/>
<rect x="310.372" y="47.324" width="162.108" height="15.103"/>
<rect x="310.372" y="86.592" width="162.108" height="15.103"/>
<rect x="310.372" y="125.86" width="101.695" height="15.103"/>
<rect x="457.377" y="125.86" width="15.103" height="15.103"/>
<rect x="427.17" y="125.86" width="15.103" height="15.103"/>
<g>
</g>
<g>
</g>
<g>
</g>
<g>
</g>
<g>
</g>
<g>
</g>
<g>
</g>
<g>
</g>
<g>
</g>
<g>
</g>
<g>
</g>
<g>
</g>
<g>
</g>
<g>
</g>
<g>
</g>
</svg>
